<svg width="350" height="99" viewBox="0 0 350 99" fill="none" xmlns="http://www.w3.org/2000/svg">
<g filter="url(#filter0_d_132_1568)">
<mask id="path-1-outside-1_132_1568" maskUnits="userSpaceOnUse" x="3" y="-1" width="344" height="92" fill="black">
<rect fill="white" x="3" y="-1" width="344" height="92"/>
<path d="M18.341 88C17.317 88.1707 16.2077 88.2987 15.013 88.384C13.8183 88.4693 12.6663 88.512 11.557 88.512C10.533 88.512 9.381 88.4693 8.101 88.384C6.86367 88.2987 5.733 88.1707 4.709 88V1.34399L5.541 0.575996H18.213V7.296C18.213 10.624 18.2343 13.9733 18.277 17.344C18.3197 20.672 18.341 23.9573 18.341 27.2V88ZM56.229 0.575996C56.485 1.344 56.677 2.21866 56.805 3.2C56.933 4.18133 56.997 5.09866 56.997 5.952C56.997 8.17066 56.357 9.792 55.077 10.816C53.797 11.7973 51.877 12.288 49.317 12.288H30.501C27.0023 12.288 23.8023 12.2667 20.901 12.224C18.0423 12.1387 15.397 12.032 12.965 11.904V0.575996H56.229ZM49.445 38.336C49.6583 39.232 49.8077 40.2133 49.893 41.28C50.021 42.3467 50.085 43.264 50.085 44.032C50.085 44.8 50.021 45.7173 49.893 46.784C49.8077 47.808 49.6583 48.768 49.445 49.664H23.781C22.2023 49.664 20.453 49.6427 18.533 49.6C16.613 49.5573 14.8423 49.536 13.221 49.536V38.464C14.8423 38.464 16.613 38.4427 18.533 38.4C20.453 38.3573 22.2023 38.336 23.781 38.336H49.445ZM84.835 88C83.939 88.1707 82.915 88.2987 81.763 88.384C80.611 88.4693 79.4377 88.512 78.243 88.512C77.0483 88.512 75.875 88.4693 74.723 88.384C73.571 88.2987 72.5257 88.1707 71.587 88V41.088C71.587 38.8267 71.1817 37.1627 70.371 36.096C69.603 34.9867 68.1523 34.432 66.019 34.432H64.611C64.227 32.896 64.035 31.3387 64.035 29.76C64.035 28.992 64.0777 28.224 64.163 27.456C64.2483 26.6453 64.3977 25.8133 64.611 24.96C66.2323 24.7467 67.747 24.5973 69.155 24.512C70.6057 24.4267 71.8003 24.384 72.739 24.384H74.467C77.667 24.384 80.1843 25.408 82.019 27.456C83.8963 29.4613 84.835 32.2133 84.835 35.712V88ZM67.683 7.744C67.683 6.80533 67.7683 5.80266 67.939 4.73599C68.1523 3.66933 68.451 2.75199 68.835 1.98399C69.603 1.55733 70.6483 1.19466 71.971 0.895996C73.3363 0.597331 74.6377 0.447998 75.875 0.447998C77.0697 0.447998 78.371 0.597331 79.779 0.895996C81.187 1.19466 82.2323 1.55733 82.915 1.98399C83.299 2.75199 83.5763 3.69066 83.747 4.8C83.9603 5.86666 84.067 6.84799 84.067 7.744C84.067 8.64 83.9603 9.62133 83.747 10.688C83.5763 11.7547 83.299 12.672 82.915 13.44C82.3177 13.8667 81.2937 14.2507 79.843 14.592C78.3923 14.8907 77.0697 15.04 75.875 15.04C74.6377 15.04 73.3363 14.8907 71.971 14.592C70.6057 14.2933 69.5603 13.9093 68.835 13.44C68.451 12.672 68.1523 11.7547 67.939 10.688C67.7683 9.62133 67.683 8.64 67.683 7.744ZM106.352 13.632C106.352 10.688 106.843 8.55466 107.824 7.23199C108.805 5.86666 110.683 5.184 113.456 5.184H118.448L119.28 6.07999V72.512C119.28 74.2187 119.685 75.584 120.496 76.608C121.307 77.5893 122.672 78.08 124.592 78.08H133.424C134.107 80.0853 134.448 82.304 134.448 84.736C134.448 85.2053 134.427 85.696 134.384 86.208C134.384 86.72 134.32 87.1893 134.192 87.616C132.059 87.872 129.776 88.0853 127.344 88.256C124.912 88.4693 122.437 88.576 119.92 88.576C115.568 88.576 112.219 87.488 109.872 85.312C107.525 83.0933 106.352 79.7867 106.352 75.392V13.632ZM135.088 24.704C135.515 26.2827 135.728 27.8827 135.728 29.504C135.728 31.296 135.515 32.9387 135.088 34.432L114.16 34.176L96.944 34.432C96.6027 32.8533 96.432 31.2107 96.432 29.504C96.432 27.968 96.6027 26.368 96.944 24.704L114.352 24.96L135.088 24.704ZM144.443 70.848C144.443 65.9413 145.51 61.9307 147.643 58.816C149.819 55.6587 152.742 53.3333 156.411 51.84C160.123 50.3467 164.304 49.6 168.955 49.6C171.302 49.6 173.99 49.7067 177.019 49.92C180.048 50.1333 182.864 50.5387 185.467 51.136V60.032C183.163 59.4773 180.582 59.136 177.723 59.008C174.907 58.8373 172.262 58.752 169.787 58.752C165.904 58.752 162.896 59.7547 160.763 61.76C158.63 63.7227 157.563 66.432 157.563 69.888C157.563 72.4907 158.31 74.7093 159.803 76.544C161.296 78.336 163.43 79.232 166.203 79.232C169.318 79.232 172.603 78.144 176.059 75.968C179.515 73.792 182.438 70.592 184.827 66.368L186.875 76.48C185.339 78.272 183.44 80.192 181.179 82.24C178.918 84.288 176.294 86.0373 173.307 87.488C170.363 88.9387 167.014 89.664 163.259 89.664C159.035 89.664 155.515 88.7253 152.699 86.848C149.926 84.9707 147.856 82.6027 146.491 79.744C145.126 76.8427 144.443 73.8773 144.443 70.848ZM197.819 82.112C197.52 83.3067 196.88 84.5867 195.899 85.952C194.96 87.2747 193.958 88.2773 192.891 88.96C190.203 88.4053 188.027 87.4027 186.363 85.952C184.699 84.5013 183.462 82.7733 182.651 80.768C181.84 78.72 181.35 76.5653 181.179 74.304V45.44C181.179 41.4293 180.262 38.5493 178.427 36.8C176.635 35.008 174.075 34.112 170.747 34.112C167.547 34.112 164.24 34.6027 160.827 35.584C157.414 36.5653 154 37.7173 150.587 39.04C149.563 37.9733 148.688 36.5227 147.963 34.688C147.28 32.8107 146.896 31.0187 146.811 29.312C149.2 28.288 151.888 27.328 154.875 26.432C157.904 25.536 161.019 24.832 164.219 24.32C167.419 23.7653 170.47 23.488 173.371 23.488C177.595 23.488 181.264 24.256 184.379 25.792C187.494 27.328 189.904 29.6747 191.611 32.832C193.36 35.9893 194.235 40.0213 194.235 44.928V71.168C194.235 73.5573 194.47 75.6693 194.939 77.504C195.408 79.296 196.368 80.832 197.819 82.112ZM250.278 24.64C250.278 26.432 250.022 28.5227 249.51 30.912C248.998 33.2587 248.166 35.328 247.014 37.12C246.203 36.9067 245.35 36.7787 244.454 36.736C243.558 36.6507 242.683 36.5867 241.83 36.544C239.398 36.544 237.265 37.056 235.43 38.08C233.638 39.0613 232.102 40.3627 230.822 41.984C229.585 43.5627 228.518 45.312 227.622 47.232C226.726 49.152 226.001 51.0293 225.446 52.864L223.526 50.432C223.611 47.4027 224.017 44.352 224.742 41.28C225.467 38.1653 226.577 35.3067 228.07 32.704C229.606 30.0587 231.633 27.9467 234.15 26.368C236.71 24.7467 239.803 23.936 243.43 23.936C244.582 23.936 245.691 24 246.758 24.128C247.867 24.2133 249.041 24.384 250.278 24.64ZM210.15 30.912C210.449 29.76 211.067 28.48 212.006 27.072C212.945 25.6213 213.926 24.5547 214.95 23.872C219.217 24.8107 222.395 26.9653 224.486 30.336C226.577 33.664 227.771 37.8667 228.07 42.944V88C227.174 88.1707 226.15 88.2987 224.998 88.384C223.846 88.4693 222.673 88.512 221.478 88.512C220.283 88.512 219.11 88.4693 217.958 88.384C216.806 88.2987 215.782 88.1707 214.886 88V44.096C214.886 40.6827 214.374 37.888 213.35 35.712C212.326 33.536 211.259 31.936 210.15 30.912ZM266.619 24.256C269.35 24.256 271.27 25.088 272.379 26.752C273.488 28.416 274.043 30.72 274.043 33.664V88C273.19 88.1707 272.187 88.2987 271.035 88.384C269.883 88.4693 268.71 88.512 267.515 88.512C266.32 88.512 265.147 88.4693 263.995 88.384C262.843 88.2987 261.798 88.1707 260.859 88V25.152L261.691 24.256H266.619ZM295.547 47.936C295.547 43.4133 294.907 40.2347 293.627 38.4C292.347 36.5227 290.448 35.584 287.931 35.584C285.798 35.584 283.515 36.2667 281.083 37.632C278.694 38.9547 276.475 40.7253 274.427 42.944C272.379 45.1627 270.758 47.6373 269.563 50.368V37.504C271.44 34.8587 273.574 32.512 275.963 30.464C278.395 28.3733 280.976 26.7307 283.707 25.536C286.48 24.2987 289.296 23.68 292.155 23.68C295.867 23.68 298.96 24.576 301.435 26.368C303.91 28.1173 305.744 30.5067 306.939 33.536C308.176 36.5227 308.795 39.8507 308.795 43.52V88C307.856 88.1707 306.811 88.2987 305.659 88.384C304.507 88.4693 303.355 88.512 302.203 88.512C301.008 88.512 299.835 88.4693 298.683 88.384C297.531 88.2987 296.486 88.1707 295.547 88V47.936ZM330.235 47.808C330.235 43.2853 329.574 40.128 328.251 38.336C326.971 36.5013 325.072 35.584 322.555 35.584C320.55 35.584 318.352 36.2453 315.963 37.568C313.616 38.848 311.376 40.6187 309.243 42.88C307.11 45.1413 305.339 47.744 303.931 50.688V35.968C306.064 33.664 308.368 31.5947 310.843 29.76C313.318 27.8827 315.942 26.4107 318.715 25.344C321.488 24.2347 324.283 23.68 327.099 23.68C330.811 23.68 333.883 24.576 336.315 26.368C338.747 28.16 340.539 30.5707 341.691 33.6C342.886 36.5867 343.483 39.9573 343.483 43.712V74.496C343.483 76.7147 343.632 78.8267 343.931 80.832C344.23 82.7947 344.784 84.5227 345.595 86.016C344.614 86.8267 343.376 87.488 341.883 88C340.432 88.5547 338.918 88.832 337.339 88.832C334.736 88.832 332.902 88.128 331.835 86.72C330.768 85.312 330.235 83.2213 330.235 80.448V47.808Z"/>
</mask>
<path d="M18.341 88C17.317 88.1707 16.2077 88.2987 15.013 88.384C13.8183 88.4693 12.6663 88.512 11.557 88.512C10.533 88.512 9.381 88.4693 8.101 88.384C6.86367 88.2987 5.733 88.1707 4.709 88V1.34399L5.541 0.575996H18.213V7.296C18.213 10.624 18.2343 13.9733 18.277 17.344C18.3197 20.672 18.341 23.9573 18.341 27.2V88ZM56.229 0.575996C56.485 1.344 56.677 2.21866 56.805 3.2C56.933 4.18133 56.997 5.09866 56.997 5.952C56.997 8.17066 56.357 9.792 55.077 10.816C53.797 11.7973 51.877 12.288 49.317 12.288H30.501C27.0023 12.288 23.8023 12.2667 20.901 12.224C18.0423 12.1387 15.397 12.032 12.965 11.904V0.575996H56.229ZM49.445 38.336C49.6583 39.232 49.8077 40.2133 49.893 41.28C50.021 42.3467 50.085 43.264 50.085 44.032C50.085 44.8 50.021 45.7173 49.893 46.784C49.8077 47.808 49.6583 48.768 49.445 49.664H23.781C22.2023 49.664 20.453 49.6427 18.533 49.6C16.613 49.5573 14.8423 49.536 13.221 49.536V38.464C14.8423 38.464 16.613 38.4427 18.533 38.4C20.453 38.3573 22.2023 38.336 23.781 38.336H49.445ZM84.835 88C83.939 88.1707 82.915 88.2987 81.763 88.384C80.611 88.4693 79.4377 88.512 78.243 88.512C77.0483 88.512 75.875 88.4693 74.723 88.384C73.571 88.2987 72.5257 88.1707 71.587 88V41.088C71.587 38.8267 71.1817 37.1627 70.371 36.096C69.603 34.9867 68.1523 34.432 66.019 34.432H64.611C64.227 32.896 64.035 31.3387 64.035 29.76C64.035 28.992 64.0777 28.224 64.163 27.456C64.2483 26.6453 64.3977 25.8133 64.611 24.96C66.2323 24.7467 67.747 24.5973 69.155 24.512C70.6057 24.4267 71.8003 24.384 72.739 24.384H74.467C77.667 24.384 80.1843 25.408 82.019 27.456C83.8963 29.4613 84.835 32.2133 84.835 35.712V88ZM67.683 7.744C67.683 6.80533 67.7683 5.80266 67.939 4.73599C68.1523 3.66933 68.451 2.75199 68.835 1.98399C69.603 1.55733 70.6483 1.19466 71.971 0.895996C73.3363 0.597331 74.6377 0.447998 75.875 0.447998C77.0697 0.447998 78.371 0.597331 79.779 0.895996C81.187 1.19466 82.2323 1.55733 82.915 1.98399C83.299 2.75199 83.5763 3.69066 83.747 4.8C83.9603 5.86666 84.067 6.84799 84.067 7.744C84.067 8.64 83.9603 9.62133 83.747 10.688C83.5763 11.7547 83.299 12.672 82.915 13.44C82.3177 13.8667 81.2937 14.2507 79.843 14.592C78.3923 14.8907 77.0697 15.04 75.875 15.04C74.6377 15.04 73.3363 14.8907 71.971 14.592C70.6057 14.2933 69.5603 13.9093 68.835 13.44C68.451 12.672 68.1523 11.7547 67.939 10.688C67.7683 9.62133 67.683 8.64 67.683 7.744ZM106.352 13.632C106.352 10.688 106.843 8.55466 107.824 7.23199C108.805 5.86666 110.683 5.184 113.456 5.184H118.448L119.28 6.07999V72.512C119.28 74.2187 119.685 75.584 120.496 76.608C121.307 77.5893 122.672 78.08 124.592 78.08H133.424C134.107 80.0853 134.448 82.304 134.448 84.736C134.448 85.2053 134.427 85.696 134.384 86.208C134.384 86.72 134.32 87.1893 134.192 87.616C132.059 87.872 129.776 88.0853 127.344 88.256C124.912 88.4693 122.437 88.576 119.92 88.576C115.568 88.576 112.219 87.488 109.872 85.312C107.525 83.0933 106.352 79.7867 106.352 75.392V13.632ZM135.088 24.704C135.515 26.2827 135.728 27.8827 135.728 29.504C135.728 31.296 135.515 32.9387 135.088 34.432L114.16 34.176L96.944 34.432C96.6027 32.8533 96.432 31.2107 96.432 29.504C96.432 27.968 96.6027 26.368 96.944 24.704L114.352 24.96L135.088 24.704ZM144.443 70.848C144.443 65.9413 145.51 61.9307 147.643 58.816C149.819 55.6587 152.742 53.3333 156.411 51.84C160.123 50.3467 164.304 49.6 168.955 49.6C171.302 49.6 173.99 49.7067 177.019 49.92C180.048 50.1333 182.864 50.5387 185.467 51.136V60.032C183.163 59.4773 180.582 59.136 177.723 59.008C174.907 58.8373 172.262 58.752 169.787 58.752C165.904 58.752 162.896 59.7547 160.763 61.76C158.63 63.7227 157.563 66.432 157.563 69.888C157.563 72.4907 158.31 74.7093 159.803 76.544C161.296 78.336 163.43 79.232 166.203 79.232C169.318 79.232 172.603 78.144 176.059 75.968C179.515 73.792 182.438 70.592 184.827 66.368L186.875 76.48C185.339 78.272 183.44 80.192 181.179 82.24C178.918 84.288 176.294 86.0373 173.307 87.488C170.363 88.9387 167.014 89.664 163.259 89.664C159.035 89.664 155.515 88.7253 152.699 86.848C149.926 84.9707 147.856 82.6027 146.491 79.744C145.126 76.8427 144.443 73.8773 144.443 70.848ZM197.819 82.112C197.52 83.3067 196.88 84.5867 195.899 85.952C194.96 87.2747 193.958 88.2773 192.891 88.96C190.203 88.4053 188.027 87.4027 186.363 85.952C184.699 84.5013 183.462 82.7733 182.651 80.768C181.84 78.72 181.35 76.5653 181.179 74.304V45.44C181.179 41.4293 180.262 38.5493 178.427 36.8C176.635 35.008 174.075 34.112 170.747 34.112C167.547 34.112 164.24 34.6027 160.827 35.584C157.414 36.5653 154 37.7173 150.587 39.04C149.563 37.9733 148.688 36.5227 147.963 34.688C147.28 32.8107 146.896 31.0187 146.811 29.312C149.2 28.288 151.888 27.328 154.875 26.432C157.904 25.536 161.019 24.832 164.219 24.32C167.419 23.7653 170.47 23.488 173.371 23.488C177.595 23.488 181.264 24.256 184.379 25.792C187.494 27.328 189.904 29.6747 191.611 32.832C193.36 35.9893 194.235 40.0213 194.235 44.928V71.168C194.235 73.5573 194.47 75.6693 194.939 77.504C195.408 79.296 196.368 80.832 197.819 82.112ZM250.278 24.64C250.278 26.432 250.022 28.5227 249.51 30.912C248.998 33.2587 248.166 35.328 247.014 37.12C246.203 36.9067 245.35 36.7787 244.454 36.736C243.558 36.6507 242.683 36.5867 241.83 36.544C239.398 36.544 237.265 37.056 235.43 38.08C233.638 39.0613 232.102 40.3627 230.822 41.984C229.585 43.5627 228.518 45.312 227.622 47.232C226.726 49.152 226.001 51.0293 225.446 52.864L223.526 50.432C223.611 47.4027 224.017 44.352 224.742 41.28C225.467 38.1653 226.577 35.3067 228.07 32.704C229.606 30.0587 231.633 27.9467 234.15 26.368C236.71 24.7467 239.803 23.936 243.43 23.936C244.582 23.936 245.691 24 246.758 24.128C247.867 24.2133 249.041 24.384 250.278 24.64ZM210.15 30.912C210.449 29.76 211.067 28.48 212.006 27.072C212.945 25.6213 213.926 24.5547 214.95 23.872C219.217 24.8107 222.395 26.9653 224.486 30.336C226.577 33.664 227.771 37.8667 228.07 42.944V88C227.174 88.1707 226.15 88.2987 224.998 88.384C223.846 88.4693 222.673 88.512 221.478 88.512C220.283 88.512 219.11 88.4693 217.958 88.384C216.806 88.2987 215.782 88.1707 214.886 88V44.096C214.886 40.6827 214.374 37.888 213.35 35.712C212.326 33.536 211.259 31.936 210.15 30.912ZM266.619 24.256C269.35 24.256 271.27 25.088 272.379 26.752C273.488 28.416 274.043 30.72 274.043 33.664V88C273.19 88.1707 272.187 88.2987 271.035 88.384C269.883 88.4693 268.71 88.512 267.515 88.512C266.32 88.512 265.147 88.4693 263.995 88.384C262.843 88.2987 261.798 88.1707 260.859 88V25.152L261.691 24.256H266.619ZM295.547 47.936C295.547 43.4133 294.907 40.2347 293.627 38.4C292.347 36.5227 290.448 35.584 287.931 35.584C285.798 35.584 283.515 36.2667 281.083 37.632C278.694 38.9547 276.475 40.7253 274.427 42.944C272.379 45.1627 270.758 47.6373 269.563 50.368V37.504C271.44 34.8587 273.574 32.512 275.963 30.464C278.395 28.3733 280.976 26.7307 283.707 25.536C286.48 24.2987 289.296 23.68 292.155 23.68C295.867 23.68 298.96 24.576 301.435 26.368C303.91 28.1173 305.744 30.5067 306.939 33.536C308.176 36.5227 308.795 39.8507 308.795 43.52V88C307.856 88.1707 306.811 88.2987 305.659 88.384C304.507 88.4693 303.355 88.512 302.203 88.512C301.008 88.512 299.835 88.4693 298.683 88.384C297.531 88.2987 296.486 88.1707 295.547 88V47.936ZM330.235 47.808C330.235 43.2853 329.574 40.128 328.251 38.336C326.971 36.5013 325.072 35.584 322.555 35.584C320.55 35.584 318.352 36.2453 315.963 37.568C313.616 38.848 311.376 40.6187 309.243 42.88C307.11 45.1413 305.339 47.744 303.931 50.688V35.968C306.064 33.664 308.368 31.5947 310.843 29.76C313.318 27.8827 315.942 26.4107 318.715 25.344C321.488 24.2347 324.283 23.68 327.099 23.68C330.811 23.68 333.883 24.576 336.315 26.368C338.747 28.16 340.539 30.5707 341.691 33.6C342.886 36.5867 343.483 39.9573 343.483 43.712V74.496C343.483 76.7147 343.632 78.8267 343.931 80.832C344.23 82.7947 344.784 84.5227 345.595 86.016C344.614 86.8267 343.376 87.488 341.883 88C340.432 88.5547 338.918 88.832 337.339 88.832C334.736 88.832 332.902 88.128 331.835 86.72C330.768 85.312 330.235 83.2213 330.235 80.448V47.808Z" fill="#253237"/>
<path d="M18.341 88L18.5054 88.9864L19.341 88.8471V88H18.341ZM15.013 88.384L14.9418 87.3865L15.013 88.384ZM8.101 88.384L8.0322 89.3816L8.03448 89.3818L8.101 88.384ZM4.709 88H3.709V88.8471L4.5446 88.9864L4.709 88ZM4.709 1.34399L4.03072 0.60919L3.709 0.906162V1.34399H4.709ZM5.541 0.575996V-0.424004H5.15002L4.86272 -0.158808L5.541 0.575996ZM18.213 0.575996H19.213V-0.424004H18.213V0.575996ZM18.277 17.344L17.2771 17.3567L17.2771 17.3568L18.277 17.344ZM56.229 0.575996L57.1777 0.25977L56.9498 -0.424004H56.229V0.575996ZM56.805 3.2L57.7966 3.07066L57.7966 3.07066L56.805 3.2ZM55.077 10.816L55.6854 11.6096L55.6936 11.6033L55.7017 11.5969L55.077 10.816ZM20.901 12.224L20.8712 13.2236L20.8787 13.2238L20.8863 13.2239L20.901 12.224ZM12.965 11.904H11.965V12.8528L12.9124 12.9026L12.965 11.904ZM12.965 0.575996V-0.424004H11.965V0.575996H12.965ZM49.445 38.336L50.4178 38.1044L50.2349 37.336H49.445V38.336ZM49.893 41.28L48.8962 41.3597L48.8978 41.3795L48.9001 41.3991L49.893 41.28ZM49.893 46.784L48.9001 46.6649L48.898 46.6829L48.8965 46.701L49.893 46.784ZM49.445 49.664V50.664H50.2349L50.4178 49.8956L49.445 49.664ZM18.533 49.6L18.5108 50.5998L18.533 49.6ZM13.221 49.536H12.221V50.536H13.221V49.536ZM13.221 38.464V37.464H12.221V38.464H13.221ZM18.533 38.4L18.5108 37.4002L18.533 38.4ZM18.1766 87.0136C17.1877 87.1784 16.1098 87.3031 14.9418 87.3865L15.0842 89.3815C16.3055 89.2942 17.4463 89.1629 18.5054 88.9864L18.1766 87.0136ZM14.9418 87.3865C13.7689 87.4703 12.6408 87.512 11.557 87.512V89.512C12.6919 89.512 13.8677 89.4684 15.0842 89.3815L14.9418 87.3865ZM11.557 87.512C10.5599 87.512 9.43063 87.4704 8.16752 87.3862L8.03448 89.3818C9.33137 89.4682 10.5061 89.512 11.557 89.512V87.512ZM8.1698 87.3864C6.95855 87.3028 5.86035 87.1781 4.8734 87.0136L4.5446 88.9864C5.60565 89.1632 6.76878 89.2945 8.0322 89.3816L8.1698 87.3864ZM5.709 88V1.34399H3.709V88H5.709ZM5.38728 2.0788L6.21928 1.3108L4.86272 -0.158808L4.03072 0.60919L5.38728 2.0788ZM5.541 1.576H18.213V-0.424004H5.541V1.576ZM17.213 0.575996V7.296H19.213V0.575996H17.213ZM17.213 7.296C17.213 10.6283 17.2344 13.9818 17.2771 17.3567L19.2769 17.3313C19.2343 13.9648 19.213 10.6197 19.213 7.296H17.213ZM17.2771 17.3568C17.3197 20.6807 17.341 23.9617 17.341 27.2H19.341C19.341 23.9529 19.3196 20.6633 19.2769 17.3312L17.2771 17.3568ZM17.341 27.2V88H19.341V27.2H17.341ZM55.2803 0.892223C55.5122 1.58781 55.6919 2.39808 55.8134 3.32934L57.7966 3.07066C57.6621 2.03924 57.4578 1.10019 57.1777 0.25977L55.2803 0.892223ZM55.8134 3.32933C55.9367 4.27438 55.997 5.14809 55.997 5.952H57.997C57.997 5.04923 57.9293 4.08828 57.7966 3.07066L55.8134 3.32933ZM55.997 5.952C55.997 7.98139 55.4182 9.26245 54.4523 10.0351L55.7017 11.5969C57.2959 10.3215 57.997 8.35994 57.997 5.952H55.997ZM54.4686 10.0224C53.4392 10.8116 51.7773 11.288 49.317 11.288V13.288C51.9767 13.288 54.1548 12.7831 55.6854 11.6096L54.4686 10.0224ZM49.317 11.288H30.501V13.288H49.317V11.288ZM30.501 11.288C27.0063 11.288 23.8113 11.2667 20.9157 11.2241L20.8863 13.2239C23.7934 13.2666 26.9984 13.288 30.501 13.288V11.288ZM20.9308 11.2244C18.0785 11.1393 15.4408 11.0329 13.0176 10.9054L12.9124 12.9026C15.3532 13.0311 18.0062 13.138 20.8712 13.2236L20.9308 11.2244ZM13.965 11.904V0.575996H11.965V11.904H13.965ZM12.965 1.576H56.229V-0.424004H12.965V1.576ZM48.4722 38.5676C48.6719 39.4065 48.8143 40.3363 48.8962 41.3597L50.8898 41.2003C50.801 40.0904 50.6448 39.0575 50.4178 38.1044L48.4722 38.5676ZM48.9001 41.3991C49.0251 42.4406 49.085 43.316 49.085 44.032H51.085C51.085 43.212 51.0169 42.2528 50.8859 41.1609L48.9001 41.3991ZM49.085 44.032C49.085 44.748 49.0251 45.6234 48.9001 46.6649L50.8859 46.9031C51.0169 45.8112 51.085 44.852 51.085 44.032H49.085ZM48.8965 46.701C48.8148 47.6805 48.6727 48.5905 48.4722 49.4324L50.4178 49.8956C50.644 48.9455 50.8005 47.9354 50.8895 46.867L48.8965 46.701ZM49.445 48.664H23.781V50.664H49.445V48.664ZM23.781 48.664C22.2111 48.664 20.4693 48.6428 18.5552 48.6002L18.5108 50.5998C20.4367 50.6425 22.1936 50.664 23.781 50.664V48.664ZM18.5552 48.6002C16.6291 48.5574 14.8509 48.536 13.221 48.536V50.536C14.8337 50.536 16.5969 50.5572 18.5108 50.5998L18.5552 48.6002ZM14.221 49.536V38.464H12.221V49.536H14.221ZM13.221 39.464C14.8509 39.464 16.6291 39.4426 18.5552 39.3998L18.5108 37.4002C16.5969 37.4428 14.8337 37.464 13.221 37.464V39.464ZM18.5552 39.3998C20.4693 39.3572 22.2111 39.336 23.781 39.336V37.336C22.1936 37.336 20.4367 37.3574 18.5108 37.4002L18.5552 39.3998ZM23.781 39.336H49.445V37.336H23.781V39.336ZM84.835 88L85.0221 88.9823L85.835 88.8275V88H84.835ZM81.763 88.384L81.6891 87.3867L81.6891 87.3867L81.763 88.384ZM74.723 88.384L74.7969 87.3867L74.723 88.384ZM71.587 88H70.587V88.8346L71.4081 88.9839L71.587 88ZM70.371 36.096L69.5488 36.6652L69.5614 36.6834L69.5748 36.7011L70.371 36.096ZM64.611 34.432L63.6409 34.6745L63.8302 35.432H64.611V34.432ZM64.163 27.456L65.1569 27.5664L65.1575 27.5607L64.163 27.456ZM64.611 24.96L64.4805 23.9685L63.8059 24.0573L63.6409 24.7175L64.611 24.96ZM69.155 24.512L69.0963 23.5137L69.0945 23.5138L69.155 24.512ZM82.019 27.456L81.2742 28.1232L81.2815 28.1314L81.289 28.1394L82.019 27.456ZM67.939 4.73599L66.9584 4.53988L66.9546 4.55887L66.9516 4.578L67.939 4.73599ZM68.835 1.98399L68.3494 1.10984L68.0789 1.26008L67.9406 1.53678L68.835 1.98399ZM71.971 0.895996L71.7573 -0.0809262L71.7507 -0.0794451L71.971 0.895996ZM82.915 1.98399L83.8094 1.53678L83.6836 1.28512L83.445 1.13599L82.915 1.98399ZM83.747 4.8L82.7586 4.95205L82.762 4.97417L82.7664 4.99611L83.747 4.8ZM83.747 10.688L82.7664 10.4919L82.7626 10.5109L82.7596 10.53L83.747 10.688ZM82.915 13.44L83.4962 14.2537L83.6984 14.1094L83.8094 13.8872L82.915 13.44ZM79.843 14.592L80.0447 15.5715L80.0584 15.5686L80.072 15.5654L79.843 14.592ZM68.835 13.44L67.9406 13.8872L68.0626 14.1313L68.2917 14.2796L68.835 13.44ZM67.939 10.688L66.9516 10.846L66.9546 10.8651L66.9584 10.8841L67.939 10.688ZM84.6479 87.0177C83.7976 87.1796 82.8126 87.3035 81.6891 87.3867L81.8369 89.3813C83.0174 89.2938 84.0804 89.1617 85.0221 88.9823L84.6479 87.0177ZM81.6891 87.3867C80.5625 87.4702 79.4139 87.512 78.243 87.512V89.512C79.4615 89.512 80.6595 89.4685 81.8369 89.3813L81.6891 87.3867ZM78.243 87.512C77.0721 87.512 75.9235 87.4702 74.7969 87.3867L74.6491 89.3813C75.8265 89.4685 77.0245 89.512 78.243 89.512V87.512ZM74.7969 87.3867C73.673 87.3035 72.6635 87.1793 71.7659 87.0161L71.4081 88.9839C72.3878 89.162 73.469 89.2938 74.6491 89.3813L74.7969 87.3867ZM72.587 88V41.088H70.587V88H72.587ZM72.587 41.088C72.587 38.7444 72.1739 36.8155 71.1672 35.4909L69.5748 36.7011C70.1895 37.5098 70.587 38.9089 70.587 41.088H72.587ZM71.1932 35.5268C70.1493 34.0189 68.2843 33.432 66.019 33.432V35.432C68.0203 35.432 69.0567 35.9544 69.5488 36.6652L71.1932 35.5268ZM66.019 33.432H64.611V35.432H66.019V33.432ZM65.5811 34.1895C65.2169 32.7325 65.035 31.2567 65.035 29.76H63.035C63.035 31.4207 63.2371 33.0594 63.6409 34.6745L65.5811 34.1895ZM65.035 29.76C65.035 29.0291 65.0756 28.298 65.1569 27.5664L63.1691 27.3456C63.0797 28.15 63.035 28.9549 63.035 29.76H65.035ZM65.1575 27.5607C65.2376 26.8 65.3783 26.0141 65.5811 25.2025L63.6409 24.7175C63.4171 25.6126 63.2591 26.4907 63.1685 27.3513L65.1575 27.5607ZM64.7415 25.9514C66.3431 25.7407 67.8342 25.5939 69.2155 25.5102L69.0945 23.5138C67.6598 23.6008 66.1216 23.7526 64.4805 23.9685L64.7415 25.9514ZM69.2137 25.5103C70.6542 25.4255 71.8274 25.384 72.739 25.384V23.384C71.7732 23.384 70.5572 23.4278 69.0963 23.5137L69.2137 25.5103ZM72.739 25.384H74.467V23.384H72.739V25.384ZM74.467 25.384C77.4339 25.384 79.6609 26.3224 81.2742 28.1232L82.7638 26.7887C80.7078 24.4936 77.9001 23.384 74.467 23.384V25.384ZM81.289 28.1394C82.9491 29.9127 83.835 32.395 83.835 35.712H85.835C85.835 32.0317 84.8436 29.0099 82.749 26.7726L81.289 28.1394ZM83.835 35.712V88H85.835V35.712H83.835ZM68.683 7.744C68.683 6.86544 68.7629 5.91603 68.9264 4.89398L66.9516 4.578C66.7738 5.6893 66.683 6.74522 66.683 7.744H68.683ZM68.9196 4.93211C69.1199 3.93058 69.3941 3.10186 69.7294 2.43121L67.9406 1.53678C67.5079 2.40213 67.1848 3.40807 66.9584 4.53988L68.9196 4.93211ZM69.3206 2.85815C69.9732 2.4956 70.9169 2.1592 72.1913 1.87144L71.7507 -0.0794451C70.3798 0.23012 69.2328 0.61905 68.3494 1.10984L69.3206 2.85815ZM72.1847 1.8729C73.4887 1.58764 74.7181 1.448 75.875 1.448V-0.552002C74.5573 -0.552002 73.184 -0.392983 71.7573 -0.0809041L72.1847 1.8729ZM75.875 1.448C76.9875 1.448 78.2183 1.5872 79.5715 1.87423L79.9865 -0.0822382C78.5237 -0.392538 77.1519 -0.552002 75.875 -0.552002V1.448ZM79.5715 1.87423C80.9406 2.16464 81.8505 2.49796 82.385 2.83199L83.445 1.13599C82.6141 0.616695 81.4334 0.224687 79.9865 -0.0822382L79.5715 1.87423ZM82.0206 2.43121C82.3464 3.08279 82.5992 3.9157 82.7586 4.95205L84.7354 4.64794C84.5535 3.46562 84.2516 2.4212 83.8094 1.53678L82.0206 2.43121ZM82.7664 4.99611C82.9695 6.01139 83.067 6.92605 83.067 7.744H85.067C85.067 6.76994 84.9512 5.72193 84.7276 4.60388L82.7664 4.99611ZM83.067 7.744C83.067 8.56194 82.9695 9.4766 82.7664 10.4919L84.7276 10.8841C84.9512 9.76606 85.067 8.71805 85.067 7.744H83.067ZM82.7596 10.53C82.601 11.5208 82.349 12.3359 82.0206 12.9928L83.8094 13.8872C84.249 13.0081 84.5516 11.9885 84.7344 10.846L82.7596 10.53ZM82.3338 12.6263C81.9037 12.9335 81.0414 13.2827 79.614 13.6186L80.072 15.5654C81.5459 15.2186 82.7316 14.7999 83.4962 14.2537L82.3338 12.6263ZM79.6413 13.6125C78.242 13.9006 76.9881 14.04 75.875 14.04V16.04C77.1512 16.04 78.5427 15.8807 80.0447 15.5715L79.6413 13.6125ZM75.875 14.04C74.7181 14.04 73.4887 13.9003 72.1847 13.6151L71.7573 15.5689C73.184 15.881 74.5573 16.04 75.875 16.04V14.04ZM72.1847 13.6151C70.8733 13.3282 69.9599 12.9768 69.3783 12.6004L68.2917 14.2796C69.1607 14.8418 70.3381 15.2584 71.7573 15.5689L72.1847 13.6151ZM69.7294 12.9928C69.3941 12.3221 69.1199 11.4934 68.9196 10.4919L66.9584 10.8841C67.1848 12.0159 67.5079 13.0219 67.9406 13.8872L69.7294 12.9928ZM68.9264 10.53C68.7625 9.50534 68.683 8.57763 68.683 7.744H66.683C66.683 8.70236 66.7742 9.73732 66.9516 10.846L68.9264 10.53ZM107.824 7.23199L108.627 7.82784L108.632 7.82177L108.636 7.81563L107.824 7.23199ZM118.448 5.184L119.181 4.50355L118.884 4.184H118.448V5.184ZM119.28 6.07999H120.28V5.6873L120.013 5.39954L119.28 6.07999ZM120.496 76.608L119.712 77.2287L119.718 77.2369L119.725 77.2449L120.496 76.608ZM133.424 78.08L134.371 77.7577L134.14 77.08H133.424V78.08ZM134.384 86.208L133.387 86.125L133.384 86.1664V86.208H134.384ZM134.192 87.616L134.311 88.6089L134.962 88.5308L135.15 87.9033L134.192 87.616ZM127.344 88.256L127.274 87.2585L127.265 87.2591L127.257 87.2598L127.344 88.256ZM109.872 85.312L109.185 86.0387L109.192 86.0453L109.872 85.312ZM135.088 24.704L136.053 24.4431L135.851 23.6945L135.076 23.7041L135.088 24.704ZM135.088 34.432L135.076 35.4319L135.84 35.4413L136.05 34.7067L135.088 34.432ZM114.16 34.176L114.172 33.1761L114.159 33.1759L114.145 33.1761L114.16 34.176ZM96.944 34.432L95.9666 34.6433L96.1397 35.4441L96.9589 35.4319L96.944 34.432ZM96.944 24.704L96.9587 23.7041L96.1308 23.6919L95.9644 24.5031L96.944 24.704ZM114.352 24.96L114.337 25.9599L114.351 25.9601L114.364 25.9599L114.352 24.96ZM107.352 13.632C107.352 10.7537 107.84 8.88811 108.627 7.82784L107.021 6.63615C105.845 8.22121 105.352 10.6223 105.352 13.632H107.352ZM108.636 7.81563C109.334 6.8449 110.795 6.184 113.456 6.184V4.184C110.57 4.184 108.277 4.88843 107.012 6.64836L108.636 7.81563ZM113.456 6.184H118.448V4.184H113.456V6.184ZM117.715 5.86445L118.547 6.76045L120.013 5.39954L119.181 4.50355L117.715 5.86445ZM118.28 6.07999V72.512H120.28V6.07999H118.28ZM118.28 72.512C118.28 74.3744 118.724 75.9803 119.712 77.2287L121.28 75.9873C120.647 75.1877 120.28 74.0629 120.28 72.512H118.28ZM119.725 77.2449C120.806 78.5532 122.528 79.08 124.592 79.08V77.08C122.816 77.08 121.807 76.6254 121.267 75.9711L119.725 77.2449ZM124.592 79.08H133.424V77.08H124.592V79.08ZM132.477 78.4023C133.12 80.2897 133.448 82.3977 133.448 84.736H135.448C135.448 82.2103 135.093 79.8809 134.371 77.7577L132.477 78.4023ZM133.448 84.736C133.448 85.1752 133.428 85.638 133.387 86.125L135.381 86.291C135.425 85.754 135.448 85.2355 135.448 84.736H133.448ZM133.384 86.208C133.384 86.6369 133.33 87.0079 133.234 87.3287L135.15 87.9033C135.31 87.3708 135.384 86.8031 135.384 86.208H133.384ZM134.073 86.6231C131.958 86.8769 129.692 87.0888 127.274 87.2585L127.414 89.2535C129.86 89.0819 132.159 88.8671 134.311 88.6089L134.073 86.6231ZM127.257 87.2598C124.855 87.4705 122.409 87.576 119.92 87.576V89.576C122.466 89.576 124.969 89.4681 127.431 89.2522L127.257 87.2598ZM119.92 87.576C115.728 87.576 112.656 86.5295 110.552 84.5787L109.192 86.0453C111.782 88.4465 115.408 89.576 119.92 89.576V87.576ZM110.559 84.5854C108.476 82.6161 107.352 79.6144 107.352 75.392H105.352C105.352 79.959 106.575 83.5706 109.185 86.0386L110.559 84.5854ZM107.352 75.392V13.632H105.352V75.392H107.352ZM134.123 24.9649C134.527 26.4593 134.728 27.9715 134.728 29.504H136.728C136.728 27.7938 136.503 26.1061 136.053 24.4431L134.123 24.9649ZM134.728 29.504C134.728 31.217 134.524 32.7658 134.126 34.1573L136.05 34.7067C136.505 33.1116 136.728 31.375 136.728 29.504H134.728ZM135.1 33.4321L114.172 33.1761L114.148 35.1759L135.076 35.4319L135.1 33.4321ZM114.145 33.1761L96.9291 33.4321L96.9589 35.4319L114.175 35.1759L114.145 33.1761ZM97.9214 34.2207C97.5959 32.7152 97.432 31.1436 97.432 29.504H95.432C95.432 31.2777 95.6094 32.9914 95.9666 34.6433L97.9214 34.2207ZM97.432 29.504C97.432 28.0422 97.5944 26.5097 97.9236 24.9049L95.9644 24.5031C95.6109 26.2263 95.432 27.8938 95.432 29.504H97.432ZM96.9293 25.7039L114.337 25.9599L114.367 23.9601L96.9587 23.7041L96.9293 25.7039ZM114.364 25.9599L135.1 25.7039L135.076 23.7041L114.34 23.9601L114.364 25.9599ZM147.643 58.816L146.82 58.2485L146.818 58.2509L147.643 58.816ZM156.411 51.84L156.038 50.9123L156.034 50.9138L156.411 51.84ZM177.019 49.92L176.949 50.9175L176.949 50.9175L177.019 49.92ZM185.467 51.136H186.467V50.3395L185.691 50.1613L185.467 51.136ZM185.467 60.032L185.233 61.0042L186.467 61.3013V60.032H185.467ZM177.723 59.008L177.663 60.0062L177.67 60.0066L177.678 60.007L177.723 59.008ZM160.763 61.76L161.44 62.496L161.448 62.4886L160.763 61.76ZM159.803 76.544L159.027 77.1753L159.035 77.1842L159.803 76.544ZM184.827 66.368L185.807 66.1695L185.275 63.5442L183.957 65.8757L184.827 66.368ZM186.875 76.48L187.634 77.1308L187.952 76.7601L187.855 76.2815L186.875 76.48ZM181.179 82.24L180.508 81.4988L180.508 81.4988L181.179 82.24ZM173.307 87.488L172.87 86.5885L172.865 86.591L173.307 87.488ZM152.699 86.848L152.138 87.6761L152.144 87.6801L152.699 86.848ZM146.491 79.744L145.586 80.1698L145.589 80.175L146.491 79.744ZM197.819 82.112L198.789 82.3545L198.937 81.7645L198.481 81.3622L197.819 82.112ZM195.899 85.952L195.087 85.3684L195.083 85.3733L195.899 85.952ZM192.891 88.96L192.689 89.9394L193.087 90.0216L193.43 89.8023L192.891 88.96ZM186.363 85.952L187.02 85.1982L187.02 85.1982L186.363 85.952ZM182.651 80.768L181.721 81.1361L181.724 81.1428L182.651 80.768ZM181.179 74.304H180.179V74.3417L180.182 74.3793L181.179 74.304ZM178.427 36.8L177.72 37.5071L177.728 37.5155L177.737 37.5237L178.427 36.8ZM160.827 35.584L161.103 36.5451L161.103 36.5451L160.827 35.584ZM150.587 39.04L149.866 39.7325L150.327 40.2132L150.948 39.9724L150.587 39.04ZM147.963 34.688L147.023 35.0297L147.028 35.0428L147.033 35.0557L147.963 34.688ZM146.811 29.312L146.417 28.3929L145.777 28.667L145.812 29.3619L146.811 29.312ZM154.875 26.432L154.591 25.4731L154.588 25.4742L154.875 26.432ZM164.219 24.32L164.377 25.3075L164.39 25.3053L164.219 24.32ZM184.379 25.792L184.821 24.8951L184.821 24.8951L184.379 25.792ZM191.611 32.832L190.731 33.3075L190.736 33.3166L191.611 32.832ZM194.939 77.504L193.97 77.7518L193.972 77.7574L194.939 77.504ZM145.443 70.848C145.443 66.0831 146.478 62.2859 148.468 59.3811L146.818 58.2509C144.541 61.5754 143.443 65.7996 143.443 70.848H145.443ZM148.466 59.3835C150.528 56.3922 153.293 54.1886 156.788 52.7662L156.034 50.9138C152.19 52.478 149.11 54.9251 146.82 58.2485L148.466 59.3835ZM156.784 52.7677C160.36 51.3292 164.412 50.6 168.955 50.6V48.6C164.197 48.6 159.886 49.3641 156.038 50.9123L156.784 52.7677ZM168.955 50.6C171.273 50.6 173.936 50.7054 176.949 50.9175L177.089 48.9225C174.043 48.7079 171.331 48.6 168.955 48.6V50.6ZM176.949 50.9175C179.933 51.1277 182.697 51.5264 185.243 52.1107L185.691 50.1613C183.031 49.551 180.163 49.139 177.089 48.9225L176.949 50.9175ZM184.467 51.136V60.032H186.467V51.136H184.467ZM185.701 59.0598C183.324 58.4875 180.678 58.1393 177.768 58.009L177.678 60.007C180.486 60.1327 183.002 60.4672 185.233 61.0042L185.701 59.0598ZM177.783 58.0098C174.95 57.8381 172.284 57.752 169.787 57.752V59.752C172.239 59.752 174.864 59.8366 177.663 60.0062L177.783 58.0098ZM169.787 57.752C165.735 57.752 162.451 58.8011 160.078 61.0314L161.448 62.4886C163.342 60.7083 166.074 59.752 169.787 59.752V57.752ZM160.086 61.0241C157.707 63.2123 156.563 66.2108 156.563 69.888H158.563C158.563 66.6532 159.552 64.233 161.44 62.4959L160.086 61.0241ZM156.563 69.888C156.563 72.6961 157.374 75.1441 159.027 77.1753L160.579 75.9127C159.245 74.2746 158.563 72.2853 158.563 69.888H156.563ZM159.035 77.1842C160.755 79.2479 163.195 80.232 166.203 80.232V78.232C163.664 78.232 161.838 77.4241 160.571 75.9038L159.035 77.1842ZM166.203 80.232C169.556 80.232 173.025 79.06 176.592 76.8142L175.526 75.1218C172.181 77.2279 169.079 78.232 166.203 78.232V80.232ZM176.592 76.8142C180.212 74.5348 183.242 71.2013 185.697 66.8603L183.957 65.8757C181.633 69.9826 178.818 73.0492 175.526 75.1218L176.592 76.8142ZM183.847 66.5665L185.895 76.6785L187.855 76.2815L185.807 66.1695L183.847 66.5665ZM186.116 75.8292C184.614 77.5816 182.746 79.4714 180.508 81.4988L181.85 82.9812C184.134 80.9126 186.064 78.9624 187.634 77.1308L186.116 75.8292ZM180.508 81.4988C178.323 83.4778 175.779 85.1756 172.87 86.5885L173.744 88.3875C176.808 86.8991 179.513 85.0982 181.85 82.9812L180.508 81.4988ZM172.865 86.591C170.077 87.9648 166.883 88.664 163.259 88.664V90.664C167.145 90.664 170.649 89.9126 173.749 88.385L172.865 86.591ZM163.259 88.664C159.183 88.664 155.869 87.7594 153.254 86.0159L152.144 87.6801C155.161 89.6913 158.887 90.664 163.259 90.664V88.664ZM153.26 86.0199C150.625 84.2363 148.678 82.002 147.393 79.313L145.589 80.175C147.035 83.2033 149.227 85.7051 152.138 87.6761L153.26 86.0199ZM147.396 79.3182C146.089 76.5421 145.443 73.7216 145.443 70.848H143.443C143.443 74.0331 144.162 77.1432 145.586 80.1698L147.396 79.3182ZM196.849 81.8695C196.59 82.9055 196.02 84.0706 195.087 85.3684L196.711 86.5356C197.741 85.1027 198.451 83.7078 198.789 82.3545L196.849 81.8695ZM195.083 85.3733C194.199 86.6193 193.285 87.5208 192.352 88.1177L193.43 89.8023C194.631 89.0339 195.721 87.9301 196.715 86.5307L195.083 85.3733ZM193.093 87.9806C190.533 87.4524 188.526 86.5114 187.02 85.1982L185.706 86.7058C187.528 88.2939 189.873 89.3583 192.689 89.9394L193.093 87.9806ZM187.02 85.1982C185.472 83.8487 184.329 82.2497 183.578 80.3932L181.724 81.1428C182.595 83.297 183.926 85.154 185.706 86.7058L187.02 85.1982ZM183.581 80.4C182.808 78.4484 182.339 76.3926 182.176 74.2287L180.182 74.3793C180.36 76.738 180.872 78.9916 181.721 81.136L183.581 80.4ZM182.179 74.304V45.44H180.179V74.304H182.179ZM182.179 45.44C182.179 41.3109 181.239 38.0997 179.117 36.0763L177.737 37.5237C179.284 38.999 180.179 41.5478 180.179 45.44H182.179ZM179.134 36.0929C177.101 34.0601 174.254 33.112 170.747 33.112V35.112C173.896 35.112 176.169 35.9559 177.72 37.5071L179.134 36.0929ZM170.747 33.112C167.444 33.112 164.044 33.6186 160.551 34.6229L161.103 36.5451C164.437 35.5868 167.65 35.112 170.747 35.112V33.112ZM160.551 34.6229C157.108 35.6128 153.666 36.7744 150.226 38.1076L150.948 39.9724C154.335 38.6603 157.72 37.5179 161.103 36.5451L160.551 34.6229ZM151.308 38.3475C150.399 37.4001 149.586 36.0723 148.893 34.3203L147.033 35.0557C147.791 36.973 148.727 38.5465 149.866 39.7325L151.308 38.3475ZM148.903 34.3463C148.249 32.5473 147.889 30.8539 147.81 29.2621L145.812 29.3619C145.903 31.1834 146.312 33.0741 147.023 35.0297L148.903 34.3463ZM147.205 30.2311C149.553 29.2246 152.205 28.277 155.162 27.3898L154.588 25.4742C151.572 26.379 148.847 27.3514 146.417 28.3929L147.205 30.2311ZM155.159 27.3909C158.146 26.5074 161.218 25.8128 164.377 25.3074L164.061 23.3326C160.82 23.8512 157.663 24.5646 154.591 25.4731L155.159 27.3909ZM164.39 25.3053C167.54 24.7593 170.533 24.488 173.371 24.488V22.488C170.406 22.488 167.298 22.7714 164.048 23.3347L164.39 25.3053ZM173.371 24.488C177.474 24.488 180.986 25.2338 183.937 26.6889L184.821 24.8951C181.542 23.2782 177.716 22.488 173.371 22.488V24.488ZM183.937 26.6889C186.859 28.1299 189.12 30.3261 190.731 33.3075L192.491 32.3565C190.689 29.0233 188.128 26.5261 184.821 24.8951L183.937 26.6889ZM190.736 33.3166C192.379 36.2819 193.235 40.1326 193.235 44.928H195.235C195.235 39.9101 194.341 35.6968 192.486 32.3474L190.736 33.3166ZM193.235 44.928V71.168H195.235V44.928H193.235ZM193.235 71.168C193.235 73.6202 193.476 75.8183 193.97 77.7518L195.908 77.2562C195.464 75.5203 195.235 73.4944 195.235 71.168H193.235ZM193.972 77.7574C194.494 79.7504 195.565 81.4566 197.157 82.8618L198.481 81.3622C197.172 80.2074 196.323 78.8416 195.906 77.2506L193.972 77.7574ZM250.278 24.64H251.278V23.8257L250.481 23.6607L250.278 24.64ZM249.51 30.912L250.487 31.1252L250.488 31.1215L249.51 30.912ZM247.014 37.12L246.76 38.0871L247.462 38.272L247.855 37.6608L247.014 37.12ZM244.454 36.736L244.359 37.7315L244.383 37.7337L244.406 37.7349L244.454 36.736ZM241.83 36.544L241.88 35.5452L241.855 35.544H241.83V36.544ZM235.43 38.08L235.91 38.9571L235.917 38.9532L235.43 38.08ZM230.822 41.984L230.037 41.3643L230.035 41.3671L230.822 41.984ZM225.446 52.864L224.661 53.4836L225.849 54.9878L226.403 53.1534L225.446 52.864ZM223.526 50.432L222.526 50.4038L222.516 50.7667L222.741 51.0516L223.526 50.432ZM224.742 41.28L225.715 41.5098L225.716 41.5068L224.742 41.28ZM228.07 32.704L227.205 32.2019L227.203 32.2063L228.07 32.704ZM234.15 26.368L234.681 27.2152L234.685 27.2128L234.15 26.368ZM246.758 24.128L246.639 25.1209L246.66 25.1234L246.681 25.1251L246.758 24.128ZM210.15 30.912L209.182 30.661L209.032 31.2407L209.472 31.6468L210.15 30.912ZM212.006 27.072L212.838 27.6268L212.846 27.6152L212.006 27.072ZM214.95 23.872L215.165 22.8953L214.749 22.8039L214.395 23.0399L214.95 23.872ZM224.486 30.336L223.636 30.8631L223.639 30.8679L224.486 30.336ZM228.07 42.944H229.07V42.9146L229.068 42.8853L228.07 42.944ZM228.07 88L228.257 88.9823L229.07 88.8275V88H228.07ZM224.998 88.384L224.924 87.3867L224.998 88.384ZM217.958 88.384L218.032 87.3867L218.032 87.3867L217.958 88.384ZM214.886 88H213.886V88.8275L214.699 88.9823L214.886 88ZM249.278 24.64C249.278 26.3414 249.034 28.359 248.532 30.7025L250.488 31.1215C251.01 28.6863 251.278 26.5226 251.278 24.64H249.278ZM248.533 30.6988C248.043 32.9438 247.253 34.8994 246.173 36.5792L247.855 37.6608C249.079 35.7566 249.953 33.5735 250.487 31.1252L248.533 30.6988ZM247.268 36.1529C246.386 35.9206 245.463 35.7829 244.502 35.7371L244.406 37.7349C245.237 37.7744 246.021 37.8927 246.76 38.0871L247.268 36.1529ZM244.549 35.7405C243.639 35.6538 242.749 35.5887 241.88 35.5452L241.78 37.5428C242.618 37.5846 243.477 37.6475 244.359 37.7315L244.549 35.7405ZM241.83 35.544C239.255 35.544 236.948 36.0874 234.943 37.2068L235.917 38.9532C237.581 38.0246 239.541 37.544 241.83 37.544V35.544ZM234.95 37.2029C233.039 38.2495 231.399 39.6388 230.037 41.3644L231.607 42.6036C232.805 41.0865 234.237 39.8732 235.91 38.9571L234.95 37.2029ZM230.035 41.3671C228.748 43.009 227.642 44.824 226.716 46.8091L228.528 47.6549C229.394 45.8 230.421 44.1164 231.609 42.6009L230.035 41.3671ZM226.716 46.8091C225.802 48.7679 225.059 50.6898 224.489 52.5746L226.403 53.1534C226.943 51.3689 227.65 49.5361 228.528 47.6549L226.716 46.8091ZM226.231 52.2444L224.311 49.8124L222.741 51.0516L224.661 53.4836L226.231 52.2444ZM224.526 50.4602C224.609 47.5015 225.005 44.5184 225.715 41.5098L223.769 41.0502C223.028 44.1856 222.614 47.3038 222.526 50.4038L224.526 50.4602ZM225.716 41.5068C226.421 38.4809 227.496 35.7143 228.937 33.2017L227.203 32.2063C225.658 34.899 224.514 37.8498 223.768 41.0532L225.716 41.5068ZM228.935 33.2061C230.392 30.6969 232.306 28.705 234.681 27.2152L233.619 25.5208C230.96 27.1883 228.82 29.4204 227.205 32.2019L228.935 33.2061ZM234.685 27.2128C237.056 25.7113 239.955 24.936 243.43 24.936V22.936C239.652 22.936 236.364 23.782 233.615 25.5232L234.685 27.2128ZM243.43 24.936C244.545 24.936 245.614 24.9979 246.639 25.1209L246.877 23.1351C245.768 23.002 244.619 22.936 243.43 22.936V24.936ZM246.681 25.1251C247.743 25.2067 248.874 25.3707 250.075 25.6193L250.481 23.6607C249.207 23.3973 247.992 23.2199 246.835 23.1309L246.681 25.1251ZM211.118 31.163C211.38 30.1542 211.937 28.9777 212.838 27.6267L211.174 26.5173C210.197 27.9823 209.518 29.3658 209.182 30.661L211.118 31.163ZM212.846 27.6152C213.738 26.2362 214.63 25.2869 215.505 24.704L214.395 23.0399C213.222 23.8225 212.151 25.0065 211.166 26.5287L212.846 27.6152ZM214.735 24.8486C218.768 25.7358 221.703 27.7463 223.636 30.8631L225.336 29.8089C223.088 26.1844 219.666 23.8855 215.165 22.8953L214.735 24.8486ZM223.639 30.8679C225.618 34.0176 226.78 38.0453 227.072 43.0027L229.068 42.8853C228.763 37.688 227.535 33.3104 225.333 29.804L223.639 30.8679ZM227.07 42.944V88H229.07V42.944H227.07ZM227.883 87.0177C227.033 87.1796 226.048 87.3035 224.924 87.3867L225.072 89.3813C226.252 89.2938 227.315 89.1617 228.257 88.9823L227.883 87.0177ZM224.924 87.3867C223.798 87.4702 222.649 87.512 221.478 87.512V89.512C222.696 89.512 223.894 89.4685 225.072 89.3813L224.924 87.3867ZM221.478 87.512C220.307 87.512 219.158 87.4702 218.032 87.3867L217.884 89.3813C219.062 89.4685 220.26 89.512 221.478 89.512V87.512ZM218.032 87.3867C216.908 87.3035 215.923 87.1796 215.073 87.0177L214.699 88.9823C215.641 89.1617 216.704 89.2938 217.884 89.3813L218.032 87.3867ZM215.886 88V44.096H213.886V88H215.886ZM215.886 44.096C215.886 40.5929 215.362 37.6391 214.255 35.2862L212.445 36.1378C213.386 38.1369 213.886 40.7724 213.886 44.096H215.886ZM214.255 35.2862C213.205 33.0546 212.072 31.325 210.828 30.1772L209.472 31.6468C210.447 32.547 211.447 34.0174 212.445 36.1378L214.255 35.2862ZM272.379 26.752L271.547 27.3067L271.547 27.3067L272.379 26.752ZM274.043 88L274.239 88.9806L275.043 88.8198V88H274.043ZM271.035 88.384L271.109 89.3813L271.109 89.3813L271.035 88.384ZM263.995 88.384L264.069 87.3867L264.069 87.3867L263.995 88.384ZM260.859 88H259.859V88.8346L260.68 88.9839L260.859 88ZM260.859 25.152L260.126 24.4715L259.859 24.7593V25.152H260.859ZM261.691 24.256V23.256H261.255L260.958 23.5755L261.691 24.256ZM293.627 38.4L292.801 38.9634L292.807 38.9722L293.627 38.4ZM281.083 37.632L281.567 38.5069L281.573 38.504L281.083 37.632ZM274.427 42.944L273.692 42.2657L273.692 42.2657L274.427 42.944ZM269.563 50.368H268.563L270.479 50.7688L269.563 50.368ZM269.563 37.504L268.747 36.9253L268.563 37.1852V37.504H269.563ZM275.963 30.464L276.614 31.2233L276.615 31.2223L275.963 30.464ZM283.707 25.536L284.108 26.4522L284.114 26.4492L283.707 25.536ZM301.435 26.368L300.848 27.178L300.858 27.1846L301.435 26.368ZM306.939 33.536L306.009 33.9029L306.012 33.9108L306.015 33.9187L306.939 33.536ZM308.795 88L308.974 88.9839L309.795 88.8346V88H308.795ZM305.659 88.384L305.733 89.3813L305.733 89.3813L305.659 88.384ZM298.683 88.384L298.757 87.3867L298.683 88.384ZM295.547 88H294.547V88.8346L295.368 88.9839L295.547 88ZM328.251 38.336L327.431 38.9082L327.439 38.9191L327.446 38.9298L328.251 38.336ZM315.963 37.568L316.442 38.4459L316.447 38.4429L315.963 37.568ZM309.243 42.88L308.516 42.1938L308.516 42.1938L309.243 42.88ZM303.931 50.688H302.931L304.833 51.1195L303.931 50.688ZM303.931 35.968L303.197 35.2886L302.931 35.5761V35.968H303.931ZM310.843 29.76L311.439 30.5634L311.447 30.5567L310.843 29.76ZM318.715 25.344L319.074 26.2774L319.086 26.2725L318.715 25.344ZM336.315 26.368L335.722 27.1731L335.722 27.1731L336.315 26.368ZM341.691 33.6L340.756 33.9554L340.759 33.9634L340.763 33.9714L341.691 33.6ZM343.931 80.832L342.942 80.9793L342.942 80.9824L343.931 80.832ZM345.595 86.016L346.232 86.787L346.867 86.2626L346.474 85.5389L345.595 86.016ZM341.883 88L341.559 87.0541L341.542 87.0597L341.526 87.0659L341.883 88ZM331.835 86.72L332.632 86.1161L332.632 86.1161L331.835 86.72ZM266.619 25.256C269.15 25.256 270.687 26.0166 271.547 27.3067L273.211 26.1973C271.852 24.1594 269.55 23.256 266.619 23.256V25.256ZM271.547 27.3067C272.506 28.7459 273.043 30.8293 273.043 33.664H275.043C275.043 30.6107 274.47 28.0861 273.211 26.1973L271.547 27.3067ZM273.043 33.664V88H275.043V33.664H273.043ZM273.847 87.0194C273.045 87.1799 272.084 87.3035 270.961 87.3867L271.109 89.3813C272.29 89.2938 273.335 89.1614 274.239 88.9806L273.847 87.0194ZM270.961 87.3867C269.835 87.4702 268.686 87.512 267.515 87.512V89.512C268.733 89.512 269.931 89.4685 271.109 89.3813L270.961 87.3867ZM267.515 87.512C266.344 87.512 265.195 87.4702 264.069 87.3867L263.921 89.3813C265.099 89.4685 266.297 89.512 267.515 89.512V87.512ZM264.069 87.3867C262.945 87.3035 261.935 87.1793 261.038 87.0161L260.68 88.9839C261.66 89.162 262.741 89.2938 263.921 89.3813L264.069 87.3867ZM261.859 88V25.152H259.859V88H261.859ZM261.592 25.8324L262.424 24.9364L260.958 23.5755L260.126 24.4715L261.592 25.8324ZM261.691 25.256H266.619V23.256H261.691V25.256ZM296.547 47.936C296.547 43.3813 295.914 39.931 294.447 37.8278L292.807 38.9722C293.9 40.5383 294.547 43.4453 294.547 47.936H296.547ZM294.453 37.8367C292.965 35.6533 290.737 34.584 287.931 34.584V36.584C290.159 36.584 291.729 37.392 292.801 38.9633L294.453 37.8367ZM287.931 34.584C285.581 34.584 283.13 35.3358 280.593 36.76L281.573 38.504C283.9 37.1975 286.014 36.584 287.931 36.584V34.584ZM280.599 36.7571C278.107 38.1367 275.805 39.9768 273.692 42.2657L275.162 43.6223C277.145 41.4739 279.281 39.7727 281.567 38.5069L280.599 36.7571ZM273.692 42.2657C271.57 44.5651 269.887 47.1332 268.647 49.9672L270.479 50.7688C271.629 48.1414 273.188 45.7603 275.162 43.6223L273.692 42.2657ZM270.563 50.368V37.504H268.563V50.368H270.563ZM270.379 38.0827C272.21 35.502 274.288 33.2164 276.614 31.2233L275.312 29.7047C272.859 31.8076 270.671 34.2153 268.747 36.9253L270.379 38.0827ZM276.615 31.2223C278.977 29.1915 281.475 27.6041 284.108 26.4522L283.306 24.6198C280.478 25.8573 277.813 27.5551 275.311 29.7057L276.615 31.2223ZM284.114 26.4492C286.768 25.2655 289.445 24.68 292.155 24.68V22.68C289.147 22.68 286.193 23.3319 283.3 24.6228L284.114 26.4492ZM292.155 24.68C295.703 24.68 298.578 25.5341 300.848 27.1779L302.022 25.5581C299.342 23.6179 296.031 22.68 292.155 22.68V24.68ZM300.858 27.1846C303.162 28.8131 304.88 31.0405 306.009 33.9029L307.869 33.1691C306.609 29.9729 304.658 27.4216 302.012 25.5514L300.858 27.1846ZM306.015 33.9187C307.196 36.7688 307.795 39.9644 307.795 43.52H309.795C309.795 39.737 309.157 36.2766 307.863 33.1533L306.015 33.9187ZM307.795 43.52V88H309.795V43.52H307.795ZM308.616 87.0161C307.719 87.1793 306.709 87.3035 305.585 87.3867L305.733 89.3813C306.913 89.2938 307.994 89.162 308.974 88.9839L308.616 87.0161ZM305.585 87.3867C304.458 87.4702 303.33 87.512 302.203 87.512V89.512C303.38 89.512 304.556 89.4684 305.733 89.3813L305.585 87.3867ZM302.203 87.512C301.032 87.512 299.883 87.4702 298.757 87.3867L298.609 89.3813C299.787 89.4685 300.985 89.512 302.203 89.512V87.512ZM298.757 87.3867C297.633 87.3035 296.623 87.1793 295.726 87.0161L295.368 88.9839C296.348 89.162 297.429 89.2938 298.609 89.3813L298.757 87.3867ZM296.547 88V47.936H294.547V88H296.547ZM331.235 47.808C331.235 43.2542 330.582 39.8104 329.056 37.7421L327.446 38.9298C328.565 40.4456 329.235 43.3165 329.235 47.808H331.235ZM329.071 37.7638C327.578 35.6243 325.352 34.584 322.555 34.584V36.584C324.793 36.584 326.364 37.3784 327.431 38.9082L329.071 37.7638ZM322.555 34.584C320.33 34.584 317.965 35.3168 315.479 36.6931L316.447 38.4429C318.74 37.1739 320.769 36.584 322.555 36.584V34.584ZM315.484 36.6901C313.031 38.028 310.71 39.8681 308.516 42.1938L309.97 43.5662C312.043 41.3693 314.201 39.668 316.442 38.4459L315.484 36.6901ZM308.516 42.1938C306.308 44.5341 304.479 47.2238 303.029 50.2565L304.833 51.1195C306.199 48.2642 307.912 45.7485 309.97 43.5662L308.516 42.1938ZM304.931 50.688V35.968H302.931V50.688H304.931ZM304.665 36.6474C306.757 34.388 309.015 32.3603 311.439 30.5633L310.247 28.9567C307.722 30.829 305.372 32.94 303.197 35.2886L304.665 36.6474ZM311.447 30.5567C313.851 28.7336 316.392 27.3087 319.074 26.2773L318.356 24.4107C315.491 25.5126 312.785 27.0317 310.239 28.9633L311.447 30.5567ZM319.086 26.2725C321.749 25.2075 324.418 24.68 327.099 24.68V22.68C324.148 22.68 321.228 23.2618 318.344 24.4155L319.086 26.2725ZM327.099 24.68C330.647 24.68 333.498 25.5343 335.722 27.1731L336.908 25.5629C334.268 23.6177 330.975 22.68 327.099 22.68V24.68ZM335.722 27.1731C337.988 28.8427 339.667 31.092 340.756 33.9554L342.626 33.2446C341.411 30.0493 339.506 27.4773 336.908 25.5629L335.722 27.1731ZM340.763 33.9714C341.903 36.8219 342.483 40.0636 342.483 43.712H344.483C344.483 39.8511 343.869 36.3514 342.619 33.2286L340.763 33.9714ZM342.483 43.712V74.496H344.483V43.712H342.483ZM342.483 74.496C342.483 76.7594 342.635 78.9209 342.942 80.9793L344.92 80.6847C344.629 78.7324 344.483 76.6699 344.483 74.496H342.483ZM342.942 80.9824C343.256 83.0406 343.842 84.8825 344.716 86.4931L346.474 85.5389C345.727 84.1628 345.204 82.5487 344.92 80.6816L342.942 80.9824ZM344.958 85.245C344.089 85.9631 342.965 86.5721 341.559 87.0541L342.207 88.9459C343.788 88.4039 345.138 87.6902 346.232 86.787L344.958 85.245ZM341.526 87.0659C340.191 87.5763 338.798 87.832 337.339 87.832V89.832C339.038 89.832 340.674 89.533 342.24 88.9341L341.526 87.0659ZM337.339 87.832C334.895 87.832 333.433 87.173 332.632 86.1161L331.038 87.3239C332.371 89.083 334.578 89.832 337.339 89.832V87.832ZM332.632 86.1161C331.753 84.956 331.235 83.1194 331.235 80.448H329.235C329.235 83.3232 329.783 85.668 331.038 87.3239L332.632 86.1161ZM331.235 80.448V47.808H329.235V80.448H331.235Z" fill="white" mask="url(#path-1-outside-1_132_1568)"/>
</g>
<defs>
<filter id="filter0_d_132_1568" x="0.709015" y="0.447998" width="348.886" height="98.2161" filterUnits="userSpaceOnUse" color-interpolation-filters="sRGB">
<feFlood flood-opacity="0" result="BackgroundImageFix"/>
<feColorMatrix in="SourceAlpha" type="matrix" values="0 0 0 0 0 0 0 0 0 0 0 0 0 0 0 0 0 0 127 0" result="hardAlpha"/>
<feOffset dy="5"/>
<feGaussianBlur stdDeviation="2"/>
<feComposite in2="hardAlpha" operator="out"/>
<feColorMatrix type="matrix" values="0 0 0 0 0 0 0 0 0 0 0 0 0 0 0 0 0 0 0.7 0"/>
<feBlend mode="normal" in2="BackgroundImageFix" result="effect1_dropShadow_132_1568"/>
<feBlend mode="normal" in="SourceGraphic" in2="effect1_dropShadow_132_1568" result="shape"/>
</filter>
</defs>
</svg>
