<svg width="107" height="29" viewBox="0 0 107 29" fill="none" xmlns="http://www.w3.org/2000/svg">
<mask id="path-1-outside-1_144_1014" maskUnits="userSpaceOnUse" x="-1" y="-1" width="110" height="31" fill="black">
<rect fill="white" x="-1" y="-1" width="110" height="31"/>
<path d="M4.66906 28C4.34906 28.0533 4.0024 28.0933 3.62906 28.12C3.25573 28.1467 2.89573 28.16 2.54906 28.16C2.22906 28.16 1.86906 28.1467 1.46906 28.12C1.0824 28.0933 0.729063 28.0533 0.409063 28V0.919998L0.669063 0.679999H4.62906V2.78C4.62906 3.82 4.63573 4.86666 4.64906 5.92C4.6624 6.96 4.66906 7.98667 4.66906 9V28ZM16.5091 0.679999C16.5891 0.919999 16.6491 1.19333 16.6891 1.5C16.7291 1.80667 16.7491 2.09333 16.7491 2.36C16.7491 3.05333 16.5491 3.56 16.1491 3.88C15.7491 4.18666 15.1491 4.34 14.3491 4.34H8.46906C7.37573 4.34 6.37573 4.33333 5.46906 4.32C4.57573 4.29333 3.74906 4.26 2.98906 4.22V0.679999H16.5091ZM14.3891 12.48C14.4557 12.76 14.5024 13.0667 14.5291 13.4C14.5691 13.7333 14.5891 14.02 14.5891 14.26C14.5891 14.5 14.5691 14.7867 14.5291 15.12C14.5024 15.44 14.4557 15.74 14.3891 16.02H6.36906C5.87573 16.02 5.32906 16.0133 4.72906 16C4.12906 15.9867 3.57573 15.98 3.06906 15.98V12.52C3.57573 12.52 4.12906 12.5133 4.72906 12.5C5.32906 12.4867 5.87573 12.48 6.36906 12.48H14.3891ZM25.4484 28C25.1684 28.0533 24.8484 28.0933 24.4884 28.12C24.1284 28.1467 23.7618 28.16 23.3884 28.16C23.0151 28.16 22.6484 28.1467 22.2884 28.12C21.9284 28.0933 21.6018 28.0533 21.3084 28V13.34C21.3084 12.6333 21.1818 12.1133 20.9284 11.78C20.6884 11.4333 20.2351 11.26 19.5684 11.26H19.1284C19.0084 10.78 18.9484 10.2933 18.9484 9.8C18.9484 9.56 18.9618 9.32 18.9884 9.08C19.0151 8.82667 19.0618 8.56667 19.1284 8.3C19.6351 8.23333 20.1084 8.18667 20.5484 8.16C21.0018 8.13333 21.3751 8.12 21.6684 8.12H22.2084C23.2084 8.12 23.9951 8.44 24.5684 9.08C25.1551 9.70667 25.4484 10.5667 25.4484 11.66V28ZM20.0884 2.92C20.0884 2.62667 20.1151 2.31333 20.1684 1.98C20.2351 1.64666 20.3284 1.36 20.4484 1.12C20.6884 0.986665 21.0151 0.873332 21.4284 0.779999C21.8551 0.686666 22.2618 0.639999 22.6484 0.639999C23.0218 0.639999 23.4284 0.686666 23.8684 0.779999C24.3084 0.873332 24.6351 0.986665 24.8484 1.12C24.9684 1.36 25.0551 1.65333 25.1084 2C25.1751 2.33333 25.2084 2.64 25.2084 2.92C25.2084 3.2 25.1751 3.50667 25.1084 3.84C25.0551 4.17333 24.9684 4.46 24.8484 4.7C24.6618 4.83333 24.3418 4.95333 23.8884 5.06C23.4351 5.15333 23.0218 5.2 22.6484 5.2C22.2618 5.2 21.8551 5.15333 21.4284 5.06C21.0018 4.96667 20.6751 4.84667 20.4484 4.7C20.3284 4.46 20.2351 4.17333 20.1684 3.84C20.1151 3.50667 20.0884 3.2 20.0884 2.92ZM32.1725 4.76C32.1725 3.84 32.3258 3.17333 32.6325 2.76C32.9392 2.33333 33.5258 2.12 34.3925 2.12H35.9525L36.2125 2.4V23.16C36.2125 23.6933 36.3392 24.12 36.5925 24.44C36.8458 24.7467 37.2725 24.9 37.8725 24.9H40.6325C40.8458 25.5267 40.9525 26.22 40.9525 26.98C40.9525 27.1267 40.9458 27.28 40.9325 27.44C40.9325 27.6 40.9125 27.7467 40.8725 27.88C40.2058 27.96 39.4925 28.0267 38.7325 28.08C37.9725 28.1467 37.1992 28.18 36.4125 28.18C35.0525 28.18 34.0058 27.84 33.2725 27.16C32.5392 26.4667 32.1725 25.4333 32.1725 24.06V4.76ZM41.1525 8.22C41.2858 8.71333 41.3525 9.21333 41.3525 9.72C41.3525 10.28 41.2858 10.7933 41.1525 11.26L34.6125 11.18L29.2325 11.26C29.1258 10.7667 29.0725 10.2533 29.0725 9.72C29.0725 9.24 29.1258 8.74 29.2325 8.22L34.6725 8.3L41.1525 8.22ZM44.0759 22.64C44.0759 21.1067 44.4093 19.8533 45.0759 18.88C45.7559 17.8933 46.6693 17.1667 47.8159 16.7C48.9759 16.2333 50.2826 16 51.7359 16C52.4693 16 53.3093 16.0333 54.2559 16.1C55.2026 16.1667 56.0826 16.2933 56.8959 16.48V19.26C56.1759 19.0867 55.3693 18.98 54.4759 18.94C53.5959 18.8867 52.7693 18.86 51.9959 18.86C50.7826 18.86 49.8426 19.1733 49.1759 19.8C48.5093 20.4133 48.1759 21.26 48.1759 22.34C48.1759 23.1533 48.4093 23.8467 48.8759 24.42C49.3426 24.98 50.0093 25.26 50.8759 25.26C51.8493 25.26 52.8759 24.92 53.9559 24.24C55.0359 23.56 55.9493 22.56 56.6959 21.24L57.3359 24.4C56.8559 24.96 56.2626 25.56 55.5559 26.2C54.8493 26.84 54.0293 27.3867 53.0959 27.84C52.1759 28.2933 51.1293 28.52 49.9559 28.52C48.6359 28.52 47.5359 28.2267 46.6559 27.64C45.7893 27.0533 45.1426 26.3133 44.7159 25.42C44.2893 24.5133 44.0759 23.5867 44.0759 22.64ZM60.7559 26.16C60.6626 26.5333 60.4626 26.9333 60.1559 27.36C59.8626 27.7733 59.5493 28.0867 59.2159 28.3C58.3759 28.1267 57.6959 27.8133 57.1759 27.36C56.6559 26.9067 56.2693 26.3667 56.0159 25.74C55.7626 25.1 55.6093 24.4267 55.5559 23.72V14.7C55.5559 13.4467 55.2693 12.5467 54.6959 12C54.1359 11.44 53.3359 11.16 52.2959 11.16C51.2959 11.16 50.2626 11.3133 49.1959 11.62C48.1293 11.9267 47.0626 12.2867 45.9959 12.7C45.6759 12.3667 45.4026 11.9133 45.1759 11.34C44.9626 10.7533 44.8426 10.1933 44.8159 9.66C45.5626 9.34 46.4026 9.04 47.3359 8.76C48.2826 8.48 49.2559 8.26 50.2559 8.1C51.2559 7.92667 52.2093 7.84 53.1159 7.84C54.4359 7.84 55.5826 8.08 56.5559 8.56C57.5293 9.04 58.2826 9.77333 58.8159 10.76C59.3626 11.7467 59.6359 13.0067 59.6359 14.54V22.74C59.6359 23.4867 59.7093 24.1467 59.8559 24.72C60.0026 25.28 60.3026 25.76 60.7559 26.16ZM77.1494 8.2C77.1494 8.76 77.0694 9.41333 76.9094 10.16C76.7494 10.8933 76.4894 11.54 76.1294 12.1C75.876 12.0333 75.6094 11.9933 75.3294 11.98C75.0494 11.9533 74.776 11.9333 74.5094 11.92C73.7494 11.92 73.0827 12.08 72.5094 12.4C71.9494 12.7067 71.4694 13.1133 71.0694 13.62C70.6827 14.1133 70.3494 14.66 70.0694 15.26C69.7894 15.86 69.5627 16.4467 69.3894 17.02L68.7894 16.26C68.816 15.3133 68.9427 14.36 69.1694 13.4C69.396 12.4267 69.7427 11.5333 70.2094 10.72C70.6894 9.89333 71.3227 9.23333 72.1094 8.74C72.9094 8.23333 73.876 7.98 75.0094 7.98C75.3694 7.98 75.716 8 76.0494 8.04C76.396 8.06667 76.7627 8.12 77.1494 8.2ZM64.6094 10.16C64.7027 9.8 64.896 9.4 65.1894 8.96C65.4827 8.50667 65.7894 8.17333 66.1094 7.96C67.4427 8.25333 68.436 8.92667 69.0894 9.98C69.7427 11.02 70.116 12.3333 70.2094 13.92V28C69.9294 28.0533 69.6094 28.0933 69.2494 28.12C68.8894 28.1467 68.5227 28.16 68.1494 28.16C67.776 28.16 67.4094 28.1467 67.0494 28.12C66.6894 28.0933 66.3694 28.0533 66.0894 28V14.28C66.0894 13.2133 65.9294 12.34 65.6094 11.66C65.2894 10.98 64.956 10.48 64.6094 10.16ZM82.2559 8.08C83.1093 8.08 83.7093 8.34 84.0559 8.86C84.4026 9.38 84.5759 10.1 84.5759 11.02V28C84.3093 28.0533 83.9959 28.0933 83.6359 28.12C83.2759 28.1467 82.9093 28.16 82.5359 28.16C82.1626 28.16 81.7959 28.1467 81.4359 28.12C81.0759 28.0933 80.7493 28.0533 80.4559 28V8.36L80.7159 8.08H82.2559ZM91.2959 15.48C91.2959 14.0667 91.0959 13.0733 90.6959 12.5C90.2959 11.9133 89.7026 11.62 88.9159 11.62C88.2493 11.62 87.5359 11.8333 86.7759 12.26C86.0293 12.6733 85.3359 13.2267 84.6959 13.92C84.0559 14.6133 83.5493 15.3867 83.1759 16.24V12.22C83.7626 11.3933 84.4293 10.66 85.1759 10.02C85.9359 9.36667 86.7426 8.85333 87.5959 8.48C88.4626 8.09333 89.3426 7.9 90.2359 7.9C91.3959 7.9 92.3626 8.18 93.1359 8.74C93.9093 9.28667 94.4826 10.0333 94.8559 10.98C95.2426 11.9133 95.4359 12.9533 95.4359 14.1V28C95.1426 28.0533 94.8159 28.0933 94.4559 28.12C94.0959 28.1467 93.7359 28.16 93.3759 28.16C93.0026 28.16 92.6359 28.1467 92.2759 28.12C91.9159 28.0933 91.5893 28.0533 91.2959 28V15.48ZM102.136 15.44C102.136 14.0267 101.929 13.04 101.516 12.48C101.116 11.9067 100.523 11.62 99.7359 11.62C99.1093 11.62 98.4226 11.8267 97.6759 12.24C96.9426 12.64 96.2426 13.1933 95.5759 13.9C94.9093 14.6067 94.3559 15.42 93.9159 16.34V11.74C94.5826 11.02 95.3026 10.3733 96.0759 9.8C96.8493 9.21333 97.6693 8.75333 98.5359 8.42C99.4026 8.07333 100.276 7.9 101.156 7.9C102.316 7.9 103.276 8.18 104.036 8.74C104.796 9.3 105.356 10.0533 105.716 11C106.089 11.9333 106.276 12.9867 106.276 14.16V23.78C106.276 24.4733 106.323 25.1333 106.416 25.76C106.509 26.3733 106.683 26.9133 106.936 27.38C106.629 27.6333 106.243 27.84 105.776 28C105.323 28.1733 104.849 28.26 104.356 28.26C103.543 28.26 102.969 28.04 102.636 27.6C102.303 27.16 102.136 26.5067 102.136 25.64V15.44Z"/>
</mask>
<path d="M4.66906 28C4.34906 28.0533 4.0024 28.0933 3.62906 28.12C3.25573 28.1467 2.89573 28.16 2.54906 28.16C2.22906 28.16 1.86906 28.1467 1.46906 28.12C1.0824 28.0933 0.729063 28.0533 0.409063 28V0.919998L0.669063 0.679999H4.62906V2.78C4.62906 3.82 4.63573 4.86666 4.64906 5.92C4.6624 6.96 4.66906 7.98667 4.66906 9V28ZM16.5091 0.679999C16.5891 0.919999 16.6491 1.19333 16.6891 1.5C16.7291 1.80667 16.7491 2.09333 16.7491 2.36C16.7491 3.05333 16.5491 3.56 16.1491 3.88C15.7491 4.18666 15.1491 4.34 14.3491 4.34H8.46906C7.37573 4.34 6.37573 4.33333 5.46906 4.32C4.57573 4.29333 3.74906 4.26 2.98906 4.22V0.679999H16.5091ZM14.3891 12.48C14.4557 12.76 14.5024 13.0667 14.5291 13.4C14.5691 13.7333 14.5891 14.02 14.5891 14.26C14.5891 14.5 14.5691 14.7867 14.5291 15.12C14.5024 15.44 14.4557 15.74 14.3891 16.02H6.36906C5.87573 16.02 5.32906 16.0133 4.72906 16C4.12906 15.9867 3.57573 15.98 3.06906 15.98V12.52C3.57573 12.52 4.12906 12.5133 4.72906 12.5C5.32906 12.4867 5.87573 12.48 6.36906 12.48H14.3891ZM25.4484 28C25.1684 28.0533 24.8484 28.0933 24.4884 28.12C24.1284 28.1467 23.7618 28.16 23.3884 28.16C23.0151 28.16 22.6484 28.1467 22.2884 28.12C21.9284 28.0933 21.6018 28.0533 21.3084 28V13.34C21.3084 12.6333 21.1818 12.1133 20.9284 11.78C20.6884 11.4333 20.2351 11.26 19.5684 11.26H19.1284C19.0084 10.78 18.9484 10.2933 18.9484 9.8C18.9484 9.56 18.9618 9.32 18.9884 9.08C19.0151 8.82667 19.0618 8.56667 19.1284 8.3C19.6351 8.23333 20.1084 8.18667 20.5484 8.16C21.0018 8.13333 21.3751 8.12 21.6684 8.12H22.2084C23.2084 8.12 23.9951 8.44 24.5684 9.08C25.1551 9.70667 25.4484 10.5667 25.4484 11.66V28ZM20.0884 2.92C20.0884 2.62667 20.1151 2.31333 20.1684 1.98C20.2351 1.64666 20.3284 1.36 20.4484 1.12C20.6884 0.986665 21.0151 0.873332 21.4284 0.779999C21.8551 0.686666 22.2618 0.639999 22.6484 0.639999C23.0218 0.639999 23.4284 0.686666 23.8684 0.779999C24.3084 0.873332 24.6351 0.986665 24.8484 1.12C24.9684 1.36 25.0551 1.65333 25.1084 2C25.1751 2.33333 25.2084 2.64 25.2084 2.92C25.2084 3.2 25.1751 3.50667 25.1084 3.84C25.0551 4.17333 24.9684 4.46 24.8484 4.7C24.6618 4.83333 24.3418 4.95333 23.8884 5.06C23.4351 5.15333 23.0218 5.2 22.6484 5.2C22.2618 5.2 21.8551 5.15333 21.4284 5.06C21.0018 4.96667 20.6751 4.84667 20.4484 4.7C20.3284 4.46 20.2351 4.17333 20.1684 3.84C20.1151 3.50667 20.0884 3.2 20.0884 2.92ZM32.1725 4.76C32.1725 3.84 32.3258 3.17333 32.6325 2.76C32.9392 2.33333 33.5258 2.12 34.3925 2.12H35.9525L36.2125 2.4V23.16C36.2125 23.6933 36.3392 24.12 36.5925 24.44C36.8458 24.7467 37.2725 24.9 37.8725 24.9H40.6325C40.8458 25.5267 40.9525 26.22 40.9525 26.98C40.9525 27.1267 40.9458 27.28 40.9325 27.44C40.9325 27.6 40.9125 27.7467 40.8725 27.88C40.2058 27.96 39.4925 28.0267 38.7325 28.08C37.9725 28.1467 37.1992 28.18 36.4125 28.18C35.0525 28.18 34.0058 27.84 33.2725 27.16C32.5392 26.4667 32.1725 25.4333 32.1725 24.06V4.76ZM41.1525 8.22C41.2858 8.71333 41.3525 9.21333 41.3525 9.72C41.3525 10.28 41.2858 10.7933 41.1525 11.26L34.6125 11.18L29.2325 11.26C29.1258 10.7667 29.0725 10.2533 29.0725 9.72C29.0725 9.24 29.1258 8.74 29.2325 8.22L34.6725 8.3L41.1525 8.22ZM44.0759 22.64C44.0759 21.1067 44.4093 19.8533 45.0759 18.88C45.7559 17.8933 46.6693 17.1667 47.8159 16.7C48.9759 16.2333 50.2826 16 51.7359 16C52.4693 16 53.3093 16.0333 54.2559 16.1C55.2026 16.1667 56.0826 16.2933 56.8959 16.48V19.26C56.1759 19.0867 55.3693 18.98 54.4759 18.94C53.5959 18.8867 52.7693 18.86 51.9959 18.86C50.7826 18.86 49.8426 19.1733 49.1759 19.8C48.5093 20.4133 48.1759 21.26 48.1759 22.34C48.1759 23.1533 48.4093 23.8467 48.8759 24.42C49.3426 24.98 50.0093 25.26 50.8759 25.26C51.8493 25.26 52.8759 24.92 53.9559 24.24C55.0359 23.56 55.9493 22.56 56.6959 21.24L57.3359 24.4C56.8559 24.96 56.2626 25.56 55.5559 26.2C54.8493 26.84 54.0293 27.3867 53.0959 27.84C52.1759 28.2933 51.1293 28.52 49.9559 28.52C48.6359 28.52 47.5359 28.2267 46.6559 27.64C45.7893 27.0533 45.1426 26.3133 44.7159 25.42C44.2893 24.5133 44.0759 23.5867 44.0759 22.64ZM60.7559 26.16C60.6626 26.5333 60.4626 26.9333 60.1559 27.36C59.8626 27.7733 59.5493 28.0867 59.2159 28.3C58.3759 28.1267 57.6959 27.8133 57.1759 27.36C56.6559 26.9067 56.2693 26.3667 56.0159 25.74C55.7626 25.1 55.6093 24.4267 55.5559 23.72V14.7C55.5559 13.4467 55.2693 12.5467 54.6959 12C54.1359 11.44 53.3359 11.16 52.2959 11.16C51.2959 11.16 50.2626 11.3133 49.1959 11.62C48.1293 11.9267 47.0626 12.2867 45.9959 12.7C45.6759 12.3667 45.4026 11.9133 45.1759 11.34C44.9626 10.7533 44.8426 10.1933 44.8159 9.66C45.5626 9.34 46.4026 9.04 47.3359 8.76C48.2826 8.48 49.2559 8.26 50.2559 8.1C51.2559 7.92667 52.2093 7.84 53.1159 7.84C54.4359 7.84 55.5826 8.08 56.5559 8.56C57.5293 9.04 58.2826 9.77333 58.8159 10.76C59.3626 11.7467 59.6359 13.0067 59.6359 14.54V22.74C59.6359 23.4867 59.7093 24.1467 59.8559 24.72C60.0026 25.28 60.3026 25.76 60.7559 26.16ZM77.1494 8.2C77.1494 8.76 77.0694 9.41333 76.9094 10.16C76.7494 10.8933 76.4894 11.54 76.1294 12.1C75.876 12.0333 75.6094 11.9933 75.3294 11.98C75.0494 11.9533 74.776 11.9333 74.5094 11.92C73.7494 11.92 73.0827 12.08 72.5094 12.4C71.9494 12.7067 71.4694 13.1133 71.0694 13.62C70.6827 14.1133 70.3494 14.66 70.0694 15.26C69.7894 15.86 69.5627 16.4467 69.3894 17.02L68.7894 16.26C68.816 15.3133 68.9427 14.36 69.1694 13.4C69.396 12.4267 69.7427 11.5333 70.2094 10.72C70.6894 9.89333 71.3227 9.23333 72.1094 8.74C72.9094 8.23333 73.876 7.98 75.0094 7.98C75.3694 7.98 75.716 8 76.0494 8.04C76.396 8.06667 76.7627 8.12 77.1494 8.2ZM64.6094 10.16C64.7027 9.8 64.896 9.4 65.1894 8.96C65.4827 8.50667 65.7894 8.17333 66.1094 7.96C67.4427 8.25333 68.436 8.92667 69.0894 9.98C69.7427 11.02 70.116 12.3333 70.2094 13.92V28C69.9294 28.0533 69.6094 28.0933 69.2494 28.12C68.8894 28.1467 68.5227 28.16 68.1494 28.16C67.776 28.16 67.4094 28.1467 67.0494 28.12C66.6894 28.0933 66.3694 28.0533 66.0894 28V14.28C66.0894 13.2133 65.9294 12.34 65.6094 11.66C65.2894 10.98 64.956 10.48 64.6094 10.16ZM82.2559 8.08C83.1093 8.08 83.7093 8.34 84.0559 8.86C84.4026 9.38 84.5759 10.1 84.5759 11.02V28C84.3093 28.0533 83.9959 28.0933 83.6359 28.12C83.2759 28.1467 82.9093 28.16 82.5359 28.16C82.1626 28.16 81.7959 28.1467 81.4359 28.12C81.0759 28.0933 80.7493 28.0533 80.4559 28V8.36L80.7159 8.08H82.2559ZM91.2959 15.48C91.2959 14.0667 91.0959 13.0733 90.6959 12.5C90.2959 11.9133 89.7026 11.62 88.9159 11.62C88.2493 11.62 87.5359 11.8333 86.7759 12.26C86.0293 12.6733 85.3359 13.2267 84.6959 13.92C84.0559 14.6133 83.5493 15.3867 83.1759 16.24V12.22C83.7626 11.3933 84.4293 10.66 85.1759 10.02C85.9359 9.36667 86.7426 8.85333 87.5959 8.48C88.4626 8.09333 89.3426 7.9 90.2359 7.9C91.3959 7.9 92.3626 8.18 93.1359 8.74C93.9093 9.28667 94.4826 10.0333 94.8559 10.98C95.2426 11.9133 95.4359 12.9533 95.4359 14.1V28C95.1426 28.0533 94.8159 28.0933 94.4559 28.12C94.0959 28.1467 93.7359 28.16 93.3759 28.16C93.0026 28.16 92.6359 28.1467 92.2759 28.12C91.9159 28.0933 91.5893 28.0533 91.2959 28V15.48ZM102.136 15.44C102.136 14.0267 101.929 13.04 101.516 12.48C101.116 11.9067 100.523 11.62 99.7359 11.62C99.1093 11.62 98.4226 11.8267 97.6759 12.24C96.9426 12.64 96.2426 13.1933 95.5759 13.9C94.9093 14.6067 94.3559 15.42 93.9159 16.34V11.74C94.5826 11.02 95.3026 10.3733 96.0759 9.8C96.8493 9.21333 97.6693 8.75333 98.5359 8.42C99.4026 8.07333 100.276 7.9 101.156 7.9C102.316 7.9 103.276 8.18 104.036 8.74C104.796 9.3 105.356 10.0533 105.716 11C106.089 11.9333 106.276 12.9867 106.276 14.16V23.78C106.276 24.4733 106.323 25.1333 106.416 25.76C106.509 26.3733 106.683 26.9133 106.936 27.38C106.629 27.6333 106.243 27.84 105.776 28C105.323 28.1733 104.849 28.26 104.356 28.26C103.543 28.26 102.969 28.04 102.636 27.6C102.303 27.16 102.136 26.5067 102.136 25.64V15.44Z" fill="#253237"/>
<path d="M4.66906 28L4.83346 28.9864L5.66906 28.8471V28H4.66906ZM3.62906 28.12L3.55782 27.1225L3.62906 28.12ZM1.46906 28.12L1.40026 29.1176L1.40254 29.1178L1.46906 28.12ZM0.409063 28H-0.590937V28.8471L0.244664 28.9864L0.409063 28ZM0.409063 0.919998L-0.269216 0.185194L-0.590937 0.482166V0.919998H0.409063ZM0.669063 0.679999V-0.320001H0.27808L-0.00921651 -0.0548055L0.669063 0.679999ZM4.62906 0.679999H5.62906V-0.320001H4.62906V0.679999ZM4.64906 5.92L3.64914 5.93266L3.64914 5.93282L4.64906 5.92ZM16.5091 0.679999L17.4577 0.363772L17.2298 -0.320001H16.5091V0.679999ZM16.6891 1.5L17.6807 1.37066L17.6807 1.37066L16.6891 1.5ZM16.1491 3.88L16.7575 4.6736L16.7657 4.66732L16.7738 4.66087L16.1491 3.88ZM5.46906 4.32L5.43922 5.31955L5.44679 5.31978L5.45436 5.31989L5.46906 4.32ZM2.98906 4.22H1.98906V5.16875L2.93651 5.21862L2.98906 4.22ZM2.98906 0.679999V-0.320001H1.98906V0.679999H2.98906ZM14.3891 12.48L15.3619 12.2484L15.1789 11.48H14.3891V12.48ZM14.5291 13.4L13.5322 13.4797L13.5338 13.4995L13.5362 13.5191L14.5291 13.4ZM14.5291 15.12L13.5362 15.0009L13.534 15.0189L13.5325 15.037L14.5291 15.12ZM14.3891 16.02V17.02H15.1789L15.3619 16.2516L14.3891 16.02ZM4.72906 16L4.70685 16.9998L4.72906 16ZM3.06906 15.98H2.06906V16.98H3.06906V15.98ZM3.06906 12.52V11.52H2.06906V12.52H3.06906ZM4.72906 12.5L4.70685 11.5002L4.72906 12.5ZM4.50466 27.0136C4.21978 27.0611 3.90456 27.0978 3.55782 27.1225L3.70031 29.1175C4.10023 29.0889 4.47835 29.0456 4.83346 28.9864L4.50466 27.0136ZM3.55782 27.1225C3.20634 27.1476 2.87017 27.16 2.54906 27.16V29.16C2.92129 29.16 3.30512 29.1457 3.70031 29.1175L3.55782 27.1225ZM2.54906 27.16C2.25596 27.16 1.91869 27.1478 1.53558 27.1222L1.40254 29.1178C1.81943 29.1456 2.20217 29.16 2.54906 29.16V27.16ZM1.53786 27.1224C1.17728 27.0975 0.856416 27.0608 0.573462 27.0136L0.244664 28.9864C0.60171 29.0459 0.987512 29.0892 1.40026 29.1176L1.53786 27.1224ZM1.40906 28V0.919998H-0.590937V28H1.40906ZM1.08734 1.6548L1.34734 1.4148L-0.00921651 -0.0548055L-0.269216 0.185194L1.08734 1.6548ZM0.669063 1.68H4.62906V-0.320001H0.669063V1.68ZM3.62906 0.679999V2.78H5.62906V0.679999H3.62906ZM3.62906 2.78C3.62906 3.82427 3.63576 4.87516 3.64914 5.93266L5.64898 5.90734C5.6357 4.85817 5.62906 3.81573 5.62906 2.78H3.62906ZM3.64914 5.93282C3.66243 6.96866 3.66906 7.99105 3.66906 9H5.66906C5.66906 7.98228 5.66237 6.95134 5.64898 5.90718L3.64914 5.93282ZM3.66906 9V28H5.66906V9H3.66906ZM15.5604 0.996226C15.6162 1.16381 15.664 1.37275 15.6975 1.62934L17.6807 1.37066C17.6341 1.01391 17.5619 0.676188 17.4577 0.363772L15.5604 0.996226ZM15.6975 1.62934C15.7327 1.89972 15.7491 2.14276 15.7491 2.36H17.7491C17.7491 2.0439 17.7254 1.71361 17.6807 1.37066L15.6975 1.62934ZM15.7491 2.36C15.7491 2.86406 15.6102 3.03045 15.5244 3.09913L16.7738 4.66087C17.4879 4.08954 17.7491 3.24261 17.7491 2.36H15.7491ZM15.5406 3.08639C15.3913 3.2009 15.0494 3.34 14.3491 3.34V5.34C15.2487 5.34 16.1069 5.17243 16.7575 4.6736L15.5406 3.08639ZM14.3491 3.34H8.46906V5.34H14.3491V3.34ZM8.46906 3.34C7.37967 3.34 6.38466 3.33336 5.48377 3.32011L5.45436 5.31989C6.3668 5.33331 7.37179 5.34 8.46906 5.34V3.34ZM5.4989 3.32044C4.61188 3.29397 3.79289 3.26092 3.04162 3.22138L2.93651 5.21862C3.70524 5.25908 4.53958 5.2927 5.43922 5.31955L5.4989 3.32044ZM3.98906 4.22V0.679999H1.98906V4.22H3.98906ZM2.98906 1.68H16.5091V-0.320001H2.98906V1.68ZM13.4163 12.7116C13.4693 12.9345 13.509 13.1896 13.5322 13.4797L15.5259 13.3203C15.4958 12.9437 15.4421 12.5855 15.3619 12.2484L13.4163 12.7116ZM13.5362 13.5191C13.5732 13.8272 13.5891 14.072 13.5891 14.26H15.5891C15.5891 13.968 15.565 13.6394 15.5219 13.2809L13.5362 13.5191ZM13.5891 14.26C13.5891 14.448 13.5732 14.6928 13.5362 15.0009L15.5219 15.2391C15.565 14.8806 15.5891 14.552 15.5891 14.26H13.5891ZM13.5325 15.037C13.5096 15.3125 13.47 15.5625 13.4163 15.7884L15.3619 16.2516C15.4414 15.9175 15.4952 15.5675 15.5256 15.203L13.5325 15.037ZM14.3891 15.02H6.36906V17.02H14.3891V15.02ZM6.36906 15.02C5.88451 15.02 5.34539 15.0134 4.75128 15.0002L4.70685 16.9998C5.31273 17.0132 5.86695 17.02 6.36906 17.02V15.02ZM4.75128 15.0002C4.14518 14.9868 3.58433 14.98 3.06906 14.98V16.98C3.56713 16.98 4.11295 16.9866 4.70685 16.9998L4.75128 15.0002ZM4.06906 15.98V12.52H2.06906V15.98H4.06906ZM3.06906 13.52C3.58433 13.52 4.14518 13.5132 4.75128 13.4998L4.70685 11.5002C4.11295 11.5134 3.56713 11.52 3.06906 11.52V13.52ZM4.75128 13.4998C5.34539 13.4866 5.88451 13.48 6.36906 13.48V11.48C5.86695 11.48 5.31273 11.4868 4.70685 11.5002L4.75128 13.4998ZM6.36906 13.48H14.3891V11.48H6.36906V13.48ZM25.4484 28L25.6355 28.9823L26.4484 28.8275V28H25.4484ZM24.4884 28.12L24.4146 27.1227L24.4146 27.1227L24.4884 28.12ZM22.2884 28.12L22.3623 27.1227L22.2884 28.12ZM21.3084 28H20.3084V28.8346L21.1296 28.9839L21.3084 28ZM20.9284 11.78L20.1062 12.3492L20.1189 12.3674L20.1323 12.3851L20.9284 11.78ZM19.1284 11.26L18.1583 11.5025L18.3477 12.26H19.1284V11.26ZM18.9884 9.08L19.9823 9.19043L19.9829 9.18468L18.9884 9.08ZM19.1284 8.3L18.998 7.30854L18.3233 7.39731L18.1583 8.05746L19.1284 8.3ZM20.5484 8.16L20.4897 7.16172L20.4879 7.16183L20.5484 8.16ZM24.5684 9.08L23.8236 9.74725L23.8309 9.75542L23.8384 9.76342L24.5684 9.08ZM20.1684 1.98L19.1879 1.78388L19.1841 1.80288L19.181 1.82201L20.1684 1.98ZM20.4484 1.12L19.9628 0.24584L19.6924 0.396081L19.554 0.672785L20.4484 1.12ZM21.4284 0.779999L21.2147 -0.196924L21.2082 -0.195442L21.4284 0.779999ZM24.8484 1.12L25.7429 0.672784L25.617 0.421123L25.3784 0.271999L24.8484 1.12ZM25.1084 2L24.1201 2.15206L24.1235 2.17417L24.1279 2.19611L25.1084 2ZM25.1084 3.84L24.1279 3.64388L24.1241 3.66288L24.121 3.68201L25.1084 3.84ZM24.8484 4.7L25.4297 5.51373L25.6318 5.36937L25.7429 5.14721L24.8484 4.7ZM23.8884 5.06L24.0901 6.03946L24.1038 6.03663L24.1175 6.03342L23.8884 5.06ZM20.4484 4.7L19.554 5.14721L19.6761 5.39131L19.9052 5.53957L20.4484 4.7ZM20.1684 3.84L19.181 3.99799L19.1841 4.01712L19.1879 4.03612L20.1684 3.84ZM25.2613 27.0177C25.0271 27.0623 24.746 27.0982 24.4146 27.1227L24.5623 29.1173C24.9508 29.0885 25.3098 29.0444 25.6355 28.9823L25.2613 27.0177ZM24.4146 27.1227C24.08 27.1475 23.738 27.16 23.3884 27.16V29.16C23.7856 29.16 24.1769 29.1458 24.5623 29.1173L24.4146 27.1227ZM23.3884 27.16C23.0389 27.16 22.6969 27.1475 22.3623 27.1227L22.2146 29.1173C22.6 29.1458 22.9913 29.16 23.3884 29.16V27.16ZM22.3623 27.1227C22.0305 27.0982 21.7396 27.062 21.4873 27.0161L21.1296 28.9839C21.464 29.0447 21.8264 29.0885 22.2146 29.1173L22.3623 27.1227ZM22.3084 28V13.34H20.3084V28H22.3084ZM22.3084 13.34C22.3084 12.5511 22.174 11.7662 21.7246 11.1749L20.1323 12.3851C20.1896 12.4605 20.3084 12.7156 20.3084 13.34H22.3084ZM21.7506 11.2108C21.2347 10.4656 20.3671 10.26 19.5684 10.26V12.26C19.8222 12.26 19.9726 12.2939 20.0513 12.3241C20.119 12.35 20.1176 12.3656 20.1062 12.3492L21.7506 11.2108ZM19.5684 10.26H19.1284V12.26H19.5684V10.26ZM20.0986 11.0175C19.9984 10.6166 19.9484 10.2113 19.9484 9.8H17.9484C17.9484 10.3753 18.0185 10.9434 18.1583 11.5025L20.0986 11.0175ZM19.9484 9.8C19.9484 9.59712 19.9597 9.39399 19.9823 9.19043L17.9946 8.96957C17.9638 9.24601 17.9484 9.52288 17.9484 9.8H19.9484ZM19.9829 9.18468C20.0044 8.98129 20.0424 8.7674 20.0986 8.54253L18.1583 8.05746C18.0812 8.36593 18.0259 8.67204 17.9939 8.97531L19.9829 9.18468ZM19.2589 9.29145C19.7459 9.22738 20.1957 9.18321 20.6089 9.15817L20.4879 7.16183C20.0212 7.19012 19.5243 7.23929 18.998 7.30854L19.2589 9.29145ZM20.6072 9.15827C21.0503 9.13221 21.4022 9.12 21.6684 9.12V7.12C21.348 7.12 20.9533 7.13446 20.4897 7.16172L20.6072 9.15827ZM21.6684 9.12H22.2084V7.12H21.6684V9.12ZM22.2084 9.12C22.9754 9.12 23.4717 9.35437 23.8236 9.74725L25.3133 8.41275C24.5186 7.52563 23.4415 7.12 22.2084 7.12V9.12ZM23.8384 9.76342C24.2079 10.1581 24.4484 10.7483 24.4484 11.66H26.4484C26.4484 10.385 26.1023 9.25525 25.2985 8.39657L23.8384 9.76342ZM24.4484 11.66V28H26.4484V11.66H24.4484ZM21.0884 2.92C21.0884 2.68677 21.1097 2.42669 21.1559 2.13799L19.181 1.82201C19.1205 2.19997 19.0884 2.56656 19.0884 2.92H21.0884ZM21.149 2.17611C21.2027 1.90792 21.2715 1.70986 21.3429 1.56721L19.554 0.672785C19.3853 1.01013 19.2676 1.38541 19.1879 1.78388L21.149 2.17611ZM20.9341 1.99416C21.0587 1.92494 21.2836 1.83787 21.6487 1.75544L21.2082 -0.195442C20.7466 -0.0912096 20.3182 0.0483873 19.9628 0.24584L20.9341 1.99416ZM21.6421 1.7569C22.0075 1.67698 22.3422 1.64 22.6484 1.64V-0.360001C22.1814 -0.360001 21.7027 -0.303648 21.2147 -0.196901L21.6421 1.7569ZM22.6484 1.64C22.9396 1.64 23.2758 1.67653 23.6609 1.75823L24.0759 -0.198236C23.5811 -0.303203 23.104 -0.360001 22.6484 -0.360001V1.64ZM23.6609 1.75823C24.062 1.84331 24.2533 1.9273 24.3184 1.968L25.3784 0.271999C25.0169 0.0460324 24.5549 -0.0966432 24.0759 -0.198236L23.6609 1.75823ZM23.954 1.56721C24.0158 1.69079 24.078 1.87837 24.1201 2.15206L26.0968 1.84794C26.0322 1.42829 25.9211 1.0292 25.7429 0.672784L23.954 1.56721ZM24.1279 2.19611C24.1842 2.47806 24.2084 2.71806 24.2084 2.92H26.2084C26.2084 2.56194 26.166 2.1886 26.089 1.80388L24.1279 2.19611ZM24.2084 2.92C24.2084 3.12194 24.1842 3.36194 24.1279 3.64388L26.089 4.03611C26.166 3.65139 26.2084 3.27806 26.2084 2.92H24.2084ZM24.121 3.68201C24.0798 3.93949 24.0185 4.12387 23.954 4.25278L25.7429 5.14721C25.9184 4.79613 26.0304 4.40718 26.0959 3.99799L24.121 3.68201ZM24.2672 3.88626C24.2704 3.88397 24.2314 3.9109 24.1173 3.95367C24.0085 3.99447 23.8584 4.03977 23.6594 4.08658L24.1175 6.03342C24.594 5.92128 25.0757 5.76654 25.4297 5.51373L24.2672 3.88626ZM23.6868 4.08054C23.2847 4.16332 22.9402 4.2 22.6484 4.2V6.2C23.1033 6.2 23.5855 6.14334 24.0901 6.03946L23.6868 4.08054ZM22.6484 4.2C22.3422 4.2 22.0075 4.16302 21.6421 4.0831L21.2147 6.0369C21.7027 6.14365 22.1814 6.2 22.6484 6.2V4.2ZM21.6421 4.0831C21.2694 4.00156 21.0747 3.91415 20.9917 3.86043L19.9052 5.53957C20.2755 5.77918 20.7342 5.93178 21.2147 6.0369L21.6421 4.0831ZM21.3429 4.25279C21.2715 4.11013 21.2027 3.91208 21.149 3.64388L19.1879 4.03612C19.2676 4.43459 19.3853 4.80986 19.554 5.14721L21.3429 4.25279ZM21.1559 3.68201C21.1093 3.39068 21.0884 3.13764 21.0884 2.92H19.0884C19.0884 3.26236 19.1209 3.62265 19.181 3.99799L21.1559 3.68201ZM32.6325 2.76L33.4356 3.35585L33.4401 3.34977L33.4445 3.34364L32.6325 2.76ZM35.9525 2.12L36.6853 1.43955L36.3886 1.12H35.9525V2.12ZM36.2125 2.4H37.2125V2.00731L36.9453 1.71955L36.2125 2.4ZM36.5925 24.44L35.8085 25.0607L35.8149 25.0689L35.8215 25.0769L36.5925 24.44ZM40.6325 24.9L41.5792 24.5777L41.3484 23.9H40.6325V24.9ZM40.9325 27.44L39.936 27.357L39.9325 27.3984V27.44H40.9325ZM40.8725 27.88L40.9916 28.8729L41.6421 28.7948L41.8303 28.1673L40.8725 27.88ZM38.7325 28.08L38.6625 27.0825L38.6538 27.0831L38.6451 27.0838L38.7325 28.08ZM33.2725 27.16L32.5855 27.8867L32.5926 27.8933L33.2725 27.16ZM41.1525 8.22L42.1179 7.95909L41.9155 7.2105L41.1402 7.22008L41.1525 8.22ZM41.1525 11.26L41.1403 12.2599L41.9042 12.2693L42.114 11.5347L41.1525 11.26ZM34.6125 11.18L34.6247 10.1801L34.6112 10.1799L34.5976 10.1801L34.6125 11.18ZM29.2325 11.26L28.2551 11.4713L28.4282 12.2721L29.2474 12.2599L29.2325 11.26ZM29.2325 8.22L29.2472 7.22011L28.4193 7.20793L28.2529 8.01906L29.2325 8.22ZM34.6725 8.3L34.6578 9.29989L34.6713 9.30009L34.6848 9.29992L34.6725 8.3ZM33.1725 4.76C33.1725 3.90566 33.3236 3.50678 33.4356 3.35585L31.8294 2.16415C31.3281 2.83988 31.1725 3.77434 31.1725 4.76H33.1725ZM33.4445 3.34364C33.4676 3.31157 33.6381 3.12 34.3925 3.12V1.12C33.4136 1.12 32.4108 1.35509 31.8205 2.17636L33.4445 3.34364ZM34.3925 3.12H35.9525V1.12H34.3925V3.12ZM35.2197 2.80045L35.4797 3.08045L36.9453 1.71955L36.6853 1.43955L35.2197 2.80045ZM35.2125 2.4V23.16H37.2125V2.4H35.2125ZM35.2125 23.16C35.2125 23.8491 35.3775 24.5163 35.8085 25.0607L37.3765 23.8193C37.3009 23.7237 37.2125 23.5376 37.2125 23.16H35.2125ZM35.8215 25.0769C36.345 25.7106 37.1284 25.9 37.8725 25.9V23.9C37.6527 23.9 37.5168 23.8713 37.4407 23.8439C37.4044 23.8309 37.3845 23.8192 37.3753 23.813C37.3668 23.8072 37.3641 23.8039 37.3635 23.8031L35.8215 25.0769ZM37.8725 25.9H40.6325V23.9H37.8725V25.9ZM39.6859 25.2223C39.8591 25.7311 39.9525 26.3137 39.9525 26.98H41.9525C41.9525 26.1263 41.8326 25.3223 41.5792 24.5777L39.6859 25.2223ZM39.9525 26.98C39.9525 27.0965 39.9472 27.222 39.936 27.357L41.929 27.523C41.9445 27.338 41.9525 27.1568 41.9525 26.98H39.9525ZM39.9325 27.44C39.9325 27.5169 39.9229 27.5652 39.9147 27.5927L41.8303 28.1673C41.9021 27.9281 41.9325 27.6831 41.9325 27.44H39.9325ZM40.7534 26.8871C40.105 26.9649 39.4082 27.0301 38.6625 27.0825L38.8025 29.0775C39.5768 29.0232 40.3066 28.9551 40.9916 28.8729L40.7534 26.8871ZM38.6451 27.0838C37.9151 27.1479 37.1709 27.18 36.4125 27.18V29.18C37.2274 29.18 38.0299 29.1455 38.8199 29.0762L38.6451 27.0838ZM36.4125 27.18C35.2126 27.18 34.4429 26.8815 33.9524 26.4267L32.5926 27.8933C33.5687 28.7985 34.8924 29.18 36.4125 29.18V27.18ZM33.9595 26.4334C33.49 25.9894 33.1725 25.261 33.1725 24.06H31.1725C31.1725 25.6056 31.5884 26.9439 32.5855 27.8866L33.9595 26.4334ZM33.1725 24.06V4.76H31.1725V24.06H33.1725ZM40.1871 8.48091C40.2977 8.88992 40.3525 9.30221 40.3525 9.72H42.3525C42.3525 9.12445 42.274 8.53675 42.1179 7.95909L40.1871 8.48091ZM40.3525 9.72C40.3525 10.201 40.2952 10.6204 40.191 10.9853L42.114 11.5347C42.2765 10.9662 42.3525 10.359 42.3525 9.72H40.3525ZM41.1647 10.2601L34.6247 10.1801L34.6003 12.1799L41.1403 12.2599L41.1647 10.2601ZM34.5976 10.1801L29.2176 10.2601L29.2474 12.2599L34.6274 12.1799L34.5976 10.1801ZM30.2099 11.0487C30.1191 10.6286 30.0725 10.1863 30.0725 9.72H28.0725C28.0725 10.3204 28.1326 10.9048 28.2551 11.4713L30.2099 11.0487ZM30.0725 9.72C30.0725 9.31417 30.1176 8.88169 30.2121 8.42094L28.2529 8.01906C28.1341 8.59831 28.0725 9.16583 28.0725 9.72H30.0725ZM29.2178 9.21989L34.6578 9.29989L34.6872 7.30011L29.2472 7.22011L29.2178 9.21989ZM34.6848 9.29992L41.1648 9.21992L41.1402 7.22008L34.6602 7.30007L34.6848 9.29992ZM45.0759 18.88L44.2525 18.3125L44.2509 18.3149L45.0759 18.88ZM47.8159 16.7L47.4427 15.7723L47.439 15.7738L47.8159 16.7ZM54.2559 16.1L54.1857 17.0975L54.1857 17.0975L54.2559 16.1ZM56.8959 16.48H57.8959V15.6835L57.1196 15.5053L56.8959 16.48ZM56.8959 19.26L56.6619 20.2322L57.8959 20.5293V19.26H56.8959ZM54.4759 18.94L54.4154 19.9382L54.4233 19.9386L54.4312 19.939L54.4759 18.94ZM49.1759 19.8L49.853 20.536L49.8608 20.5286L49.1759 19.8ZM48.8759 24.42L48.1003 25.0513L48.1077 25.0602L48.8759 24.42ZM56.6959 21.24L57.676 21.0415L57.1443 18.4162L55.8255 20.7477L56.6959 21.24ZM57.3359 24.4L58.0952 25.0508L58.413 24.6801L58.316 24.2015L57.3359 24.4ZM55.5559 26.2L54.8847 25.4588L54.8847 25.4588L55.5559 26.2ZM53.0959 27.84L52.659 26.9405L52.6539 26.943L53.0959 27.84ZM46.6559 27.64L46.0954 28.4681L46.1012 28.4721L46.6559 27.64ZM44.7159 25.42L43.8111 25.8458L43.8136 25.851L44.7159 25.42ZM60.7559 26.16L61.7261 26.4025L61.8736 25.8125L61.4176 25.4102L60.7559 26.16ZM60.1559 27.36L59.3439 26.7764L59.3404 26.7813L60.1559 27.36ZM59.2159 28.3L59.0138 29.2794L59.4123 29.3616L59.755 29.1423L59.2159 28.3ZM57.1759 27.36L57.8331 26.6062L57.8331 26.6062L57.1759 27.36ZM56.0159 25.74L55.0861 26.1081L55.0888 26.1148L56.0159 25.74ZM55.5559 23.72H54.5559V23.7577L54.5588 23.7953L55.5559 23.72ZM54.6959 12L53.9888 12.7071L53.9972 12.7155L54.0059 12.7237L54.6959 12ZM49.1959 11.62L49.4722 12.5811L49.4722 12.5811L49.1959 11.62ZM45.9959 12.7L45.2746 13.3925L45.736 13.8732L46.3573 13.6324L45.9959 12.7ZM45.1759 11.34L44.2361 11.6817L44.2409 11.6948L44.246 11.7077L45.1759 11.34ZM44.8159 9.66L44.422 8.74085L43.7824 9.01496L43.8172 9.70994L44.8159 9.66ZM47.3359 8.76L47.0523 7.80106L47.0486 7.80217L47.3359 8.76ZM50.2559 8.1L50.4139 9.08752L50.4267 9.08531L50.2559 8.1ZM56.5559 8.56L56.9982 7.66313L56.9982 7.66313L56.5559 8.56ZM58.8159 10.76L57.9362 11.2355L57.9412 11.2446L58.8159 10.76ZM59.8559 24.72L58.8871 24.9678L58.8886 24.9734L59.8559 24.72ZM45.0759 22.64C45.0759 21.2484 45.378 20.2086 45.901 19.4451L44.2509 18.3149C43.4405 19.4981 43.0759 20.9649 43.0759 22.64H45.0759ZM45.8993 19.4475C46.4649 18.6269 47.2205 18.022 48.1929 17.6262L47.439 15.7738C46.118 16.3114 45.047 17.1598 44.2525 18.3125L45.8993 19.4475ZM48.1892 17.6277C49.2129 17.2159 50.39 17 51.7359 17V15C50.1752 15 48.739 15.2508 47.4427 15.7723L48.1892 17.6277ZM51.7359 17C52.4402 17 53.256 17.0321 54.1857 17.0975L54.3262 15.1025C53.3625 15.0346 52.4983 15 51.7359 15V17ZM54.1857 17.0975C55.0876 17.161 55.9157 17.281 56.6722 17.4547L57.1196 15.5053C56.2495 15.3056 55.3176 15.1723 54.3262 15.1025L54.1857 17.0975ZM55.8959 16.48V19.26H57.8959V16.48H55.8959ZM57.13 18.2878C56.3367 18.0968 55.4652 17.9833 54.5207 17.941L54.4312 19.939C55.2734 19.9767 56.0152 20.0765 56.6619 20.2322L57.13 18.2878ZM54.5364 17.9418C53.639 17.8874 52.792 17.86 51.9959 17.86V19.86C52.7465 19.86 53.5529 19.8859 54.4154 19.9382L54.5364 17.9418ZM51.9959 17.86C50.6132 17.86 49.397 18.2197 48.491 19.0714L49.8608 20.5286C50.2882 20.1269 50.952 19.86 51.9959 19.86V17.86ZM48.4989 19.0641C47.587 19.903 47.1759 21.0388 47.1759 22.34H49.1759C49.1759 21.4812 49.4315 20.9237 49.853 20.5359L48.4989 19.0641ZM47.1759 22.34C47.1759 23.3587 47.4737 24.2814 48.1004 25.0513L49.6515 23.7887C49.3448 23.4119 49.1759 22.9479 49.1759 22.34H47.1759ZM48.1077 25.0602C48.8008 25.8919 49.7745 26.26 50.8759 26.26V24.26C50.244 24.26 49.8844 24.0681 49.6442 23.7798L48.1077 25.0602ZM50.8759 26.26C52.0881 26.26 53.2979 25.836 54.4888 25.0862L53.4231 23.3938C52.454 24.0039 51.6105 24.26 50.8759 24.26V26.26ZM54.4888 25.0862C55.733 24.3028 56.7535 23.1693 57.5663 21.7323L55.8255 20.7477C55.1451 21.9507 54.3389 22.8172 53.4231 23.3938L54.4888 25.0862ZM55.7158 21.4385L56.3558 24.5985L58.316 24.2015L57.676 21.0415L55.7158 21.4385ZM56.5767 23.7492C56.1306 24.2696 55.5686 24.8394 54.8847 25.4588L56.2272 26.9412C56.9566 26.2806 57.5812 25.6504 58.0952 25.0508L56.5767 23.7492ZM54.8847 25.4588C54.2541 26.0298 53.5146 26.5249 52.659 26.9405L53.5328 28.7395C54.5439 28.2484 55.4444 27.6502 56.2272 26.9412L54.8847 25.4588ZM52.6539 26.943C51.89 27.3194 50.9981 27.52 49.9559 27.52V29.52C51.2604 29.52 52.4619 29.2672 53.5379 28.737L52.6539 26.943ZM49.9559 27.52C48.7843 27.52 47.8898 27.2607 47.2106 26.8079L46.1012 28.4721C47.1821 29.1926 48.4876 29.52 49.9559 29.52V27.52ZM47.2165 26.8119C46.4883 26.3189 45.9639 25.7127 45.6183 24.989L43.8136 25.851C44.3213 26.914 45.0902 27.7877 46.0954 28.4681L47.2165 26.8119ZM45.6208 24.9942C45.253 24.2128 45.0759 23.4309 45.0759 22.64H43.0759C43.0759 23.7424 43.3255 24.8139 43.8111 25.8458L45.6208 24.9942ZM59.7858 25.9175C59.7321 26.1322 59.602 26.4173 59.3439 26.7764L60.968 27.9436C61.3232 27.4494 61.5931 26.9345 61.7261 26.4025L59.7858 25.9175ZM59.3404 26.7813C59.1015 27.1179 58.8763 27.3301 58.6769 27.4577L59.755 29.1423C60.2223 28.8432 60.6237 28.4287 60.9714 27.9387L59.3404 26.7813ZM59.418 27.3206C58.7061 27.1737 58.1954 26.9221 57.8331 26.6062L56.5188 28.1138C57.1965 28.7046 58.0458 29.0796 59.0138 29.2794L59.418 27.3206ZM57.8331 26.6062C57.4291 26.254 57.1362 25.843 56.943 25.3652L55.0888 26.1148C55.4023 26.8903 55.8828 27.5593 56.5188 28.1138L57.8331 26.6062ZM56.9457 25.372C56.7306 24.8284 56.5991 24.254 56.5531 23.6447L54.5588 23.7953C54.6195 24.5994 54.7946 25.3716 55.0861 26.108L56.9457 25.372ZM56.5559 23.72V14.7H54.5559V23.72H56.5559ZM56.5559 14.7C56.5559 13.3282 56.2468 12.097 55.386 11.2763L54.0059 12.7237C54.2917 12.9963 54.5559 13.5651 54.5559 14.7H56.5559ZM55.403 11.2929C54.6022 10.4921 53.5149 10.16 52.2959 10.16V12.16C53.157 12.16 53.6696 12.3879 53.9888 12.7071L55.403 11.2929ZM52.2959 10.16C51.1928 10.16 50.0664 10.3292 48.9196 10.6589L49.4722 12.5811C50.4588 12.2974 51.399 12.16 52.2959 12.16V10.16ZM48.9196 10.6589C47.8233 10.9741 46.7283 11.3437 45.6346 11.7676L46.3573 13.6324C47.3969 13.2296 48.4352 12.8792 49.4722 12.5811L48.9196 10.6589ZM46.7173 12.0075C46.5119 11.7935 46.2999 11.463 46.1059 10.9723L44.246 11.7077C44.5053 12.3637 44.84 12.9399 45.2746 13.3925L46.7173 12.0075ZM46.1157 10.9983C45.9309 10.4899 45.8356 10.0286 45.8147 9.61006L43.8172 9.70994C43.8496 10.3581 43.9943 11.0167 44.2361 11.6817L46.1157 10.9983ZM45.2099 10.5791C45.9157 10.2766 46.7193 9.98902 47.6233 9.71782L47.0486 7.80217C46.0859 8.09097 45.2095 8.40337 44.422 8.74085L45.2099 10.5791ZM47.6196 9.71893C48.524 9.45144 49.4553 9.24082 50.4139 9.08744L50.0979 7.11256C49.0566 7.27918 48.0412 7.50856 47.0523 7.80106L47.6196 9.71893ZM50.4267 9.08531C51.3769 8.92061 52.2728 8.84 53.1159 8.84V6.84C52.1457 6.84 51.135 6.93272 50.0852 7.11469L50.4267 9.08531ZM53.1159 8.84C54.3152 8.84 55.3045 9.05782 56.1136 9.45687L56.9982 7.66313C55.8608 7.10218 54.5567 6.84 53.1159 6.84V8.84ZM56.1136 9.45687C56.8945 9.84194 57.498 10.4247 57.9362 11.2355L59.6956 10.2845C59.0672 9.12193 58.1641 8.23806 56.9982 7.66313L56.1136 9.45687ZM57.9412 11.2446C58.3815 12.0392 58.6359 13.1179 58.6359 14.54H60.6359C60.6359 12.8954 60.3438 11.4541 59.6907 10.2754L57.9412 11.2446ZM58.6359 14.54V22.74H60.6359V14.54H58.6359ZM58.6359 22.74C58.6359 23.5496 58.7152 24.2957 58.8871 24.9678L60.8247 24.4722C60.7034 23.9977 60.6359 23.4238 60.6359 22.74H58.6359ZM58.8886 24.9734C59.0879 25.7344 59.499 26.3846 60.0943 26.9098L61.4176 25.4102C61.1062 25.1354 60.9173 24.8256 60.8233 24.4666L58.8886 24.9734ZM77.1494 8.2H78.1494V7.38572L77.352 7.22074L77.1494 8.2ZM76.9094 10.16L77.8864 10.3732L77.8872 10.3695L76.9094 10.16ZM76.1294 12.1L75.8749 13.0671L76.5776 13.252L76.9706 12.6408L76.1294 12.1ZM75.3294 11.98L75.2346 12.9755L75.2581 12.9777L75.2818 12.9789L75.3294 11.98ZM74.5094 11.92L74.5593 10.9212L74.5344 10.92H74.5094V11.92ZM72.5094 12.4L72.9897 13.2771L72.9967 13.2732L72.5094 12.4ZM71.0694 13.62L70.2845 13.0004L70.2823 13.0031L71.0694 13.62ZM69.3894 17.02L68.6045 17.6396L69.792 19.1438L70.3466 17.3094L69.3894 17.02ZM68.7894 16.26L67.7898 16.2318L67.7795 16.5947L68.0045 16.8796L68.7894 16.26ZM69.1694 13.4L70.1426 13.6298L70.1433 13.6268L69.1694 13.4ZM70.2094 10.72L69.3446 10.2179L69.342 10.2223L70.2094 10.72ZM72.1094 8.74L72.6407 9.5872L72.6444 9.58482L72.1094 8.74ZM76.0494 8.04L75.9302 9.03288L75.9514 9.03542L75.9727 9.03705L76.0494 8.04ZM64.6094 10.16L63.6414 9.90904L63.4911 10.4887L63.9311 10.8948L64.6094 10.16ZM65.1894 8.96L66.0215 9.51475L66.0289 9.50325L65.1894 8.96ZM66.1094 7.96L66.3242 6.98335L65.9087 6.89193L65.5547 7.12795L66.1094 7.96ZM69.0894 9.98L68.2396 10.5071L68.2426 10.5119L69.0894 9.98ZM70.2094 13.92H71.2094V13.8906L71.2076 13.8613L70.2094 13.92ZM70.2094 28L70.3965 28.9823L71.2094 28.8275V28H70.2094ZM69.2494 28.12L69.1755 27.1227L69.2494 28.12ZM67.0494 28.12L67.1232 27.1227L67.1232 27.1227L67.0494 28.12ZM66.0894 28H65.0894V28.8275L65.9023 28.9823L66.0894 28ZM76.1494 8.2C76.1494 8.6694 76.0817 9.24966 75.9316 9.95047L77.8872 10.3695C78.057 9.577 78.1494 8.8506 78.1494 8.2H76.1494ZM75.9324 9.94683C75.7945 10.5785 75.5761 11.1114 75.2882 11.5592L76.9706 12.6408C77.4027 11.9686 77.7042 11.2082 77.8864 10.3732L75.9324 9.94683ZM76.3839 11.1329C76.0583 11.0473 75.722 10.9976 75.3769 10.9811L75.2818 12.9789C75.4968 12.9891 75.6938 13.0194 75.8749 13.0671L76.3839 11.1329ZM75.4242 10.9845C75.13 10.9565 74.8417 10.9354 74.5593 10.9212L74.4594 12.9188C74.7104 12.9313 74.9687 12.9502 75.2346 12.9755L75.4242 10.9845ZM74.5094 10.92C73.6059 10.92 72.7663 11.1114 72.022 11.5268L72.9967 13.2732C73.3991 13.0486 73.8929 12.92 74.5094 12.92V10.92ZM72.0291 11.5229C71.35 11.8948 70.7668 12.3895 70.2845 13.0004L71.8543 14.2396C72.172 13.8372 72.5488 13.5185 72.9897 13.2771L72.0291 11.5229ZM70.2823 13.0031C69.8461 13.5596 69.4736 14.172 69.1632 14.8371L70.9756 15.6829C71.2252 15.148 71.5193 14.667 71.8564 14.2369L70.2823 13.0031ZM69.1632 14.8371C68.8651 15.4759 68.6207 16.1071 68.4322 16.7306L70.3466 17.3094C70.5048 16.7862 70.7137 16.2441 70.9756 15.6829L69.1632 14.8371ZM70.1743 16.4004L69.5743 15.6404L68.0045 16.8796L68.6045 17.6396L70.1743 16.4004ZM69.789 16.2882C69.8137 15.4122 69.9309 14.5264 70.1426 13.6298L68.1961 13.1702C67.9545 14.1936 67.8184 15.2145 67.7898 16.2318L69.789 16.2882ZM70.1433 13.6268C70.3493 12.7422 70.6617 11.941 71.0767 11.2177L69.342 10.2223C68.8237 11.1257 68.4428 12.1111 68.1954 13.1732L70.1433 13.6268ZM71.0742 11.2221C71.4751 10.5316 71.9957 9.99168 72.6407 9.58719L71.5781 7.89281C70.6497 8.47499 69.9036 9.25511 69.3446 10.2179L71.0742 11.2221ZM72.6444 9.58482C73.2553 9.19795 74.0278 8.98 75.0094 8.98V6.98C73.7243 6.98 72.5635 7.26872 71.5743 7.89518L72.6444 9.58482ZM75.0094 8.98C75.3324 8.98 75.6392 8.99795 75.9302 9.03288L76.1685 7.04712C75.7929 7.00205 75.4064 6.98 75.0094 6.98V8.98ZM75.9727 9.03705C76.2718 9.06006 76.5962 9.10673 76.9468 9.17926L77.352 7.22074C76.9292 7.13327 76.5203 7.07327 76.1261 7.04294L75.9727 9.03705ZM65.5774 10.411C65.6336 10.1942 65.7661 9.89769 66.0214 9.5147L64.3573 8.4053C64.026 8.9023 63.7718 9.4058 63.6414 9.90904L65.5774 10.411ZM66.0289 9.50325C66.2759 9.12153 66.4939 8.90552 66.6641 8.79205L65.5547 7.12795C65.0849 7.44114 64.6895 7.89181 64.3498 8.41675L66.0289 9.50325ZM65.8945 8.93664C66.9937 9.17846 67.7437 9.70763 68.2396 10.5071L69.9392 9.4529C69.1284 8.1457 67.8917 7.3282 66.3242 6.98335L65.8945 8.93664ZM68.2426 10.5119C68.7839 11.3736 69.1248 12.512 69.2111 13.9787L71.2076 13.8613C71.1073 12.1547 70.7015 10.6664 69.9362 9.44805L68.2426 10.5119ZM69.2094 13.92V28H71.2094V13.92H69.2094ZM70.0223 27.0177C69.788 27.0623 69.507 27.0982 69.1755 27.1227L69.3232 29.1173C69.7118 29.0885 70.0708 29.0444 70.3965 28.9823L70.0223 27.0177ZM69.1755 27.1227C68.8409 27.1475 68.4989 27.16 68.1494 27.16V29.16C68.5465 29.16 68.9378 29.1458 69.3232 29.1173L69.1755 27.1227ZM68.1494 27.16C67.7999 27.16 67.4578 27.1475 67.1232 27.1227L66.9755 29.1173C67.3609 29.1458 67.7522 29.16 68.1494 29.16V27.16ZM67.1232 27.1227C66.7918 27.0982 66.5108 27.0623 66.2765 27.0177L65.9023 28.9823C66.228 29.0444 66.587 29.0885 66.9755 29.1173L67.1232 27.1227ZM67.0894 28V14.28H65.0894V28H67.0894ZM67.0894 14.28C67.0894 13.1236 66.9174 12.0911 66.5142 11.2342L64.7046 12.0858C64.9413 12.5889 65.0894 13.3031 65.0894 14.28H67.0894ZM66.5142 11.2342C66.168 10.4986 65.7685 9.86903 65.2877 9.4252L63.9311 10.8948C64.1436 11.091 64.4107 11.4614 64.7046 12.0858L66.5142 11.2342ZM84.0559 8.86L83.2239 9.4147L83.2239 9.4147L84.0559 8.86ZM84.5759 28L84.7721 28.9806L85.5759 28.8198V28H84.5759ZM83.6359 28.12L83.7098 29.1173L83.7098 29.1173L83.6359 28.12ZM81.4359 28.12L81.5098 27.1227L81.5098 27.1227L81.4359 28.12ZM80.4559 28H79.4559V28.8346L80.2771 28.9839L80.4559 28ZM80.4559 8.36L79.7231 7.67955L79.4559 7.96731V8.36H80.4559ZM80.7159 8.08V7.08H80.2799L79.9831 7.39955L80.7159 8.08ZM90.6959 12.5L89.8697 13.0634L89.8758 13.0722L90.6959 12.5ZM86.7759 12.26L87.2603 13.1349L87.2655 13.132L86.7759 12.26ZM84.6959 13.92L83.9611 13.2417L83.9611 13.2417L84.6959 13.92ZM83.1759 16.24H82.1759L84.0921 16.6408L83.1759 16.24ZM83.1759 12.22L82.3604 11.6413L82.1759 11.9012V12.22H83.1759ZM85.1759 10.02L85.8267 10.7793L85.8278 10.7783L85.1759 10.02ZM87.5959 8.48L87.9968 9.39618L88.0034 9.39323L87.5959 8.48ZM93.1359 8.74L92.5494 9.54999L92.5587 9.55658L93.1359 8.74ZM94.8559 10.98L93.9257 11.3469L93.9288 11.3548L93.9321 11.3627L94.8559 10.98ZM95.4359 28L95.6148 28.9839L96.4359 28.8346V28H95.4359ZM94.4559 28.12L94.5298 29.1173L94.5298 29.1173L94.4559 28.12ZM92.2759 28.12L92.3498 27.1227L92.2759 28.12ZM91.2959 28H90.2959V28.8346L91.1171 28.9839L91.2959 28ZM101.516 12.48L100.696 13.0522L100.703 13.0631L100.711 13.0739L101.516 12.48ZM97.6759 12.24L98.1548 13.1179L98.1603 13.1149L97.6759 12.24ZM95.5759 13.9L94.8485 13.2138L94.8485 13.2138L95.5759 13.9ZM93.9159 16.34H92.9159L94.8181 16.7715L93.9159 16.34ZM93.9159 11.74L93.1822 11.0606L92.9159 11.3481V11.74H93.9159ZM96.0759 9.8L96.6715 10.6034L96.6803 10.5967L96.0759 9.8ZM98.5359 8.42L98.8949 9.35343L98.9073 9.34848L98.5359 8.42ZM104.036 8.74L103.443 9.54505L103.443 9.54505L104.036 8.74ZM105.716 11L104.781 11.3554L104.784 11.3634L104.787 11.3714L105.716 11ZM106.416 25.76L105.427 25.9073L105.427 25.9104L106.416 25.76ZM106.936 27.38L107.573 28.151L108.208 27.6266L107.815 26.9029L106.936 27.38ZM105.776 28L105.452 27.0541L105.435 27.0597L105.419 27.0659L105.776 28ZM102.636 27.6L103.433 26.9961L103.433 26.9961L102.636 27.6ZM82.2559 9.08C82.9091 9.08 83.1265 9.26858 83.2239 9.4147L84.888 8.3053C84.2921 7.41142 83.3094 7.08 82.2559 7.08V9.08ZM83.2239 9.4147C83.4207 9.70991 83.5759 10.2093 83.5759 11.02H85.5759C85.5759 9.99066 85.3845 9.05009 84.888 8.3053L83.2239 9.4147ZM83.5759 11.02V28H85.5759V11.02H83.5759ZM84.3798 27.0194C84.1641 27.0626 83.8934 27.0982 83.5621 27.1227L83.7098 29.1173C84.0985 29.0885 84.4544 29.0441 84.7721 28.9806L84.3798 27.0194ZM83.5621 27.1227C83.2275 27.1475 82.8855 27.16 82.5359 27.16V29.16C82.9331 29.16 83.3244 29.1458 83.7098 29.1173L83.5621 27.1227ZM82.5359 27.16C82.1864 27.16 81.8444 27.1475 81.5098 27.1227L81.3621 29.1173C81.7475 29.1458 82.1388 29.16 82.5359 29.16V27.16ZM81.5098 27.1227C81.178 27.0982 80.8871 27.062 80.6348 27.0161L80.2771 28.9839C80.6115 29.0447 80.9739 29.0885 81.3621 29.1173L81.5098 27.1227ZM81.4559 28V8.36H79.4559V28H81.4559ZM81.1887 9.04045L81.4487 8.76045L79.9831 7.39955L79.7231 7.67955L81.1887 9.04045ZM80.7159 9.08H82.2559V7.08H80.7159V9.08ZM92.2959 15.48C92.2959 14.0347 92.1034 12.7697 91.5161 11.9278L89.8758 13.0722C90.0884 13.377 90.2959 14.0987 90.2959 15.48H92.2959ZM91.5222 11.9367C90.9135 11.044 89.9914 10.62 88.9159 10.62V12.62C89.4138 12.62 89.6784 12.7827 89.8697 13.0633L91.5222 11.9367ZM88.9159 10.62C88.033 10.62 87.1513 10.9025 86.2864 11.388L87.2655 13.132C87.9206 12.7642 88.4655 12.62 88.9159 12.62V10.62ZM86.2916 11.3851C85.4422 11.8553 84.666 12.4781 83.9611 13.2417L85.4307 14.5983C86.0059 13.9752 86.6164 13.4913 87.2603 13.1349L86.2916 11.3851ZM83.9611 13.2417C83.2467 14.0157 82.6783 14.8826 82.2598 15.8392L84.0921 16.6408C84.4202 15.8908 84.8652 15.2109 85.4307 14.5983L83.9611 13.2417ZM84.1759 16.24V12.22H82.1759V16.24H84.1759ZM83.9914 12.7987C84.5323 12.0367 85.144 11.3644 85.8267 10.7793L84.5251 9.26074C83.7145 9.95557 82.993 10.75 82.3604 11.6413L83.9914 12.7987ZM85.8278 10.7783C86.5182 10.1849 87.2411 9.72673 87.9968 9.39616L87.1951 7.56384C86.2441 7.97993 85.3537 8.54846 84.5241 9.26168L85.8278 10.7783ZM88.0034 9.39323C88.75 9.06014 89.4916 8.9 90.2359 8.9V6.9C89.1936 6.9 88.1752 7.12653 87.1885 7.56677L88.0034 9.39323ZM90.2359 8.9C91.2315 8.9 91.9806 9.13807 92.5494 9.54994L93.7224 7.93006C92.7446 7.22193 91.5604 6.9 90.2359 6.9V8.9ZM92.5587 9.55658C93.1611 9.98244 93.6182 10.5671 93.9257 11.3469L95.7862 10.6131C95.347 9.49952 94.6574 8.59089 93.7132 7.92342L92.5587 9.55658ZM93.9321 11.3627C94.2621 12.1594 94.4359 13.067 94.4359 14.1H96.4359C96.4359 12.8396 96.2231 11.6672 95.7798 10.5973L93.9321 11.3627ZM94.4359 14.1V28H96.4359V14.1H94.4359ZM95.2571 27.0161C95.0048 27.062 94.7139 27.0982 94.3821 27.1227L94.5298 29.1173C94.918 29.0885 95.2804 29.0447 95.6148 28.9839L95.2571 27.0161ZM94.3821 27.1227C94.0466 27.1476 93.7112 27.16 93.3759 27.16V29.16C93.7607 29.16 94.1453 29.1458 94.5298 29.1173L94.3821 27.1227ZM93.3759 27.16C93.0264 27.16 92.6844 27.1475 92.3498 27.1227L92.2021 29.1173C92.5875 29.1458 92.9788 29.16 93.3759 29.16V27.16ZM92.3498 27.1227C92.018 27.0982 91.7271 27.062 91.4748 27.0161L91.1171 28.9839C91.4515 29.0447 91.8139 29.0885 92.2021 29.1173L92.3498 27.1227ZM92.2959 28V15.48H90.2959V28H92.2959ZM103.136 15.44C103.136 13.9955 102.938 12.7224 102.321 11.8861L100.711 13.0739C100.921 13.3576 101.136 14.0578 101.136 15.44H103.136ZM102.336 11.9078C101.723 11.0296 100.802 10.62 99.7359 10.62V12.62C100.243 12.62 100.509 12.7837 100.696 13.0522L102.336 11.9078ZM99.7359 10.62C98.8896 10.62 98.0352 10.8981 97.1916 11.3651L98.1603 13.1149C98.81 12.7552 99.329 12.62 99.7359 12.62V10.62ZM97.1971 11.3621C96.3577 11.82 95.5759 12.4427 94.8485 13.2138L96.3033 14.5862C96.9093 13.9439 97.5275 13.46 98.1548 13.1179L97.1971 11.3621ZM94.8485 13.2138C94.1073 13.9995 93.4963 14.8998 93.0138 15.9085L94.8181 16.7715C95.2156 15.9402 95.7112 15.2139 96.3033 14.5862L94.8485 13.2138ZM94.9159 16.34V11.74H92.9159V16.34H94.9159ZM94.6497 12.4194C95.2751 11.744 95.9489 11.139 96.6715 10.6033L95.4804 8.99669C94.6563 9.60765 93.8902 10.296 93.1822 11.0606L94.6497 12.4194ZM96.6803 10.5967C97.3821 10.0643 98.12 9.6514 98.8949 9.35335L98.177 7.48665C97.2186 7.85527 96.3164 8.36236 95.4716 9.00331L96.6803 10.5967ZM98.9073 9.34848C99.6631 9.04615 100.411 8.9 101.156 8.9V6.9C100.141 6.9 99.1421 7.10051 98.1645 7.49152L98.9073 9.34848ZM101.156 8.9C102.152 8.9 102.891 9.13831 103.443 9.54505L104.629 7.93494C103.661 7.22168 102.48 6.9 101.156 6.9V8.9ZM103.443 9.54505C104.037 9.98272 104.484 10.5747 104.781 11.3554L106.651 10.6446C106.228 9.532 105.555 8.61728 104.629 7.93494L103.443 9.54505ZM104.787 11.3714C105.106 12.1686 105.276 13.0929 105.276 14.16H107.276C107.276 12.8804 107.072 11.6981 106.644 10.6286L104.787 11.3714ZM105.276 14.16V23.78H107.276V14.16H105.276ZM105.276 23.78C105.276 24.5181 105.326 25.2276 105.427 25.9073L107.405 25.6127C107.32 25.0391 107.276 24.4286 107.276 23.78H105.276ZM105.427 25.9104C105.535 26.6193 105.74 27.2732 106.057 27.8571L107.815 26.9029C107.625 26.5535 107.483 26.1274 107.405 25.6096L105.427 25.9104ZM106.299 26.609C106.104 26.7698 105.831 26.9241 105.452 27.0541L106.1 28.9459C106.654 28.7559 107.154 28.4969 107.573 28.151L106.299 26.609ZM105.419 27.0659C105.081 27.195 104.729 27.26 104.356 27.26V29.26C104.969 29.26 105.564 29.1517 106.133 28.9341L105.419 27.0659ZM104.356 27.26C103.701 27.26 103.5 27.085 103.433 26.9961L101.839 28.2039C102.438 28.995 103.384 29.26 104.356 29.26V27.26ZM103.433 26.9961C103.287 26.804 103.136 26.4048 103.136 25.64H101.136C101.136 26.6086 101.318 27.516 101.839 28.2039L103.433 26.9961ZM103.136 25.64V15.44H101.136V25.64H103.136Z" fill="#253237" mask="url(#path-1-outside-1_144_1014)"/>
</svg>
