<svg width="388" height="109" viewBox="0 0 388 109" fill="none" xmlns="http://www.w3.org/2000/svg">
<g filter="url(#filter0_d_132_1568)">
<mask id="path-1-outside-1_132_1568" maskUnits="userSpaceOnUse" x="3" y="-1" width="382" height="102" fill="black">
<rect fill="white" x="3" y="-1" width="382" height="102"/>
<path d="M67.5625 65.125C67.1458 62.2917 66.6042 60 65.9375 58.25C65.3542 56.4167 64.4792 55 63.3125 54C62.2292 53 60.7292 52.3333 58.8125 52C56.9792 51.5833 54.6458 51.375 51.8125 51.375H31.1875V82.625C31.1875 85.125 31.3125 87.1667 31.5625 88.75C31.8958 90.3333 32.5208 91.625 33.4375 92.625C34.4375 93.5417 35.7708 94.2083 37.4375 94.625C39.1875 94.9583 41.4375 95.2083 44.1875 95.375V98H4.3125V95.375C6.97917 95.2083 9.10417 94.9167 10.6875 94.5C12.3542 94.0833 13.6042 93.375 14.4375 92.375C15.3542 91.2917 15.9375 89.875 16.1875 88.125C16.5208 86.2917 16.6875 83.875 16.6875 80.875V19.125C16.6875 16.625 16.5208 14.5833 16.1875 13C15.9375 11.4167 15.3542 10.1667 14.4375 9.25C13.5208 8.33333 12.2292 7.66667 10.5625 7.25C8.97917 6.83333 6.89583 6.54167 4.3125 6.375V3.5H80.0625L80.3125 24H76.9375C76.2708 20.75 75.5208 18.1667 74.6875 16.25C73.8542 14.25 72.6458 12.7083 71.0625 11.625C69.5625 10.5417 67.5208 9.83333 64.9375 9.5C62.4375 9.16667 59.1875 9 55.1875 9H35.8125C33.8125 9 32.5208 9.29167 31.9375 9.875C31.4375 10.4583 31.1875 11.7917 31.1875 13.875V45.5H51.8125C54.6458 45.5 56.9792 45.3333 58.8125 45C60.7292 44.6667 62.2292 44 63.3125 43C64.4792 42 65.3542 40.625 65.9375 38.875C66.6042 37.125 67.1458 34.8333 67.5625 32H70.9375V65.125H67.5625ZM107.438 32.75V83.5C107.438 86.0833 107.521 88.1667 107.688 89.75C107.938 91.25 108.438 92.4583 109.188 93.375C109.938 94.2083 110.979 94.7917 112.312 95.125C113.729 95.4583 115.646 95.75 118.062 96V98H84.1875V96C86.6875 95.8333 88.6458 95.5833 90.0625 95.25C91.5625 94.8333 92.6875 94.2083 93.4375 93.375C94.2708 92.4583 94.8125 91.25 95.0625 89.75C95.3125 88.1667 95.4375 86.0833 95.4375 83.5V50.375C95.4375 47.2083 95.0625 45 94.3125 43.75C93.6458 42.4167 92.4792 41.75 90.8125 41.75C90.1458 41.75 89.3542 41.7917 88.4375 41.875C87.6042 41.9583 86.7292 42.0833 85.8125 42.25L84.8125 42.375V40.25L106.812 32.375L107.438 32.75ZM100.312 0.5C102.312 0.5 104.021 1.25 105.438 2.75C106.854 4.16667 107.562 5.875 107.562 7.875C107.562 9.95833 106.854 11.7083 105.438 13.125C104.104 14.4583 102.354 15.125 100.188 15.125C98.1042 15.125 96.3958 14.4583 95.0625 13.125C93.7292 11.7083 93.0625 9.95833 93.0625 7.875C93.0625 5.875 93.7708 4.16667 95.1875 2.75C96.6042 1.25 98.3125 0.5 100.312 0.5ZM158.062 38.25H143.562V79.25C143.562 83.8333 144.146 87.125 145.312 89.125C146.479 91.0417 148.354 92 150.938 92C152.604 92 154.062 91.6667 155.312 91C156.562 90.25 158.021 88.9167 159.688 87L161.438 88.75C156.938 95.8333 151.188 99.375 144.188 99.375C135.771 99.375 131.562 93.3333 131.562 81.25V38.25H124.062C123.729 38.1667 123.562 37.875 123.562 37.375C123.562 36.5417 124.354 35.625 125.938 34.625C129.688 32.4583 134.312 27.375 139.812 19.375C140.229 18.7083 140.688 18.0833 141.188 17.5C141.771 16.8333 142.271 16.125 142.688 15.375C143.021 15.375 143.229 15.5 143.312 15.75C143.479 16 143.562 16.5 143.562 17.25V33.75H158.062V38.25ZM213.938 83C213.938 86.1667 214.229 88.375 214.812 89.625C215.396 90.7917 216.521 91.375 218.188 91.375C220.104 91.375 222.188 90.5 224.438 88.75V92.375C222.021 95.0417 219.896 96.875 218.062 97.875C216.229 98.875 214.104 99.375 211.688 99.375C208.771 99.375 206.604 98.5833 205.188 97C203.854 95.3333 203.021 92.5833 202.688 88.75C198.354 92.5 194.562 95.2083 191.312 96.875C188.062 98.5417 184.896 99.375 181.812 99.375C177.312 99.375 173.646 97.9583 170.812 95.125C168.062 92.2917 166.688 88.625 166.688 84.125C166.688 81.875 167.104 79.625 167.938 77.375C168.854 75.0417 170.146 73.1667 171.812 71.75C173.312 70.4167 174.688 69.2917 175.938 68.375C177.271 67.375 178.979 66.375 181.062 65.375C183.146 64.2917 185.854 63.0833 189.188 61.75C192.521 60.4167 196.938 58.625 202.438 56.375V47.25C202.438 43.3333 201.479 40.375 199.562 38.375C197.729 36.375 195.062 35.375 191.562 35.375C188.646 35.375 186.188 36.0833 184.188 37.5C182.271 38.8333 181.312 40.4583 181.312 42.375C181.312 43.125 181.396 44.0833 181.562 45.25C181.812 46.4167 181.938 47.375 181.938 48.125C181.938 49.7917 181.271 51.2083 179.938 52.375C178.688 53.5417 177.229 54.125 175.562 54.125C173.896 54.125 172.438 53.5417 171.188 52.375C170.021 51.125 169.438 49.6667 169.438 48C169.438 46.1667 169.938 44.2917 170.938 42.375C172.021 40.4583 173.479 38.75 175.312 37.25C177.229 35.5833 179.771 34.2917 182.938 33.375C186.188 32.4583 189.688 32 193.438 32C197.771 32 201.396 32.75 204.312 34.25C207.312 35.6667 209.604 37.6667 211.188 40.25C212.188 41.9167 212.896 43.875 213.312 46.125C213.729 48.2917 213.938 51.25 213.938 55V83ZM202.438 59.875C198.104 61.4583 194.396 63 191.312 64.5C188.312 65.9167 185.854 67.4167 183.938 69C182.104 70.5 180.771 72.125 179.938 73.875C179.104 75.625 178.688 77.5417 178.688 79.625V80.25C178.688 81.75 178.938 83.2083 179.438 84.625C179.938 85.9583 180.604 87.125 181.438 88.125C182.354 89.125 183.396 89.9167 184.562 90.5C185.729 91.0833 186.938 91.375 188.188 91.375C189.688 91.375 191.354 91.0833 193.188 90.5C195.104 89.8333 196.896 89.0417 198.562 88.125C200.229 87.2083 201.271 86.25 201.688 85.25C202.188 84.25 202.438 82.6667 202.438 80.5V59.875ZM225.812 40.25C227.896 39.5 229.812 38.8333 231.562 38.25C233.312 37.5833 234.979 36.9583 236.562 36.375C238.229 35.7083 239.854 35.0833 241.438 34.5C243.104 33.8333 244.896 33.125 246.812 32.375L247.688 32.625V45.75C249.438 43.1667 251.021 41.0417 252.438 39.375C253.854 37.625 255.229 36.25 256.562 35.25C257.896 34.1667 259.188 33.4167 260.438 33C261.771 32.5833 263.188 32.375 264.688 32.375C267.104 32.375 269.021 33.0833 270.438 34.5C271.854 35.8333 272.562 37.625 272.562 39.875C272.562 41.9583 272.062 43.5833 271.062 44.75C270.062 45.8333 268.729 46.375 267.062 46.375C266.146 46.375 265.229 46.2083 264.312 45.875C263.479 45.4583 262.479 44.6667 261.312 43.5C260.562 42.8333 259.854 42.3333 259.188 42C258.521 41.6667 257.979 41.5 257.562 41.5C256.562 41.5 255.479 41.9167 254.312 42.75C253.229 43.5 252.188 44.4583 251.188 45.625C250.188 46.7917 249.354 48.0417 248.688 49.375C248.021 50.7083 247.688 51.9583 247.688 53.125V85.25C247.688 87.25 247.854 88.9167 248.188 90.25C248.521 91.5833 249.146 92.6667 250.062 93.5C250.979 94.25 252.229 94.8333 253.812 95.25C255.396 95.6667 257.396 95.9167 259.812 96V98H225.438V96C227.688 95.5833 229.479 95.1667 230.812 94.75C232.229 94.25 233.271 93.6667 233.938 93C234.688 92.3333 235.146 91.4583 235.312 90.375C235.562 89.2083 235.688 87.75 235.688 86V50.375C235.688 47.2083 235.312 45 234.562 43.75C233.812 42.4167 232.562 41.75 230.812 41.75C229.896 41.75 229.062 41.7917 228.312 41.875C227.646 41.9583 226.812 42.125 225.812 42.375V40.25ZM275.062 38.75C277.062 38.25 278.854 37.75 280.438 37.25C282.104 36.75 283.729 36.25 285.312 35.75C286.896 35.25 288.438 34.75 289.938 34.25C291.521 33.6667 293.229 33.0417 295.062 32.375L296.062 32.625V43.375C299.062 41.125 301.604 39.2917 303.688 37.875C305.771 36.375 307.604 35.25 309.188 34.5C310.854 33.6667 312.354 33.125 313.688 32.875C315.021 32.5417 316.479 32.375 318.062 32.375C325.812 32.375 330.854 36.4167 333.188 44.5C337.188 40.25 341.021 37.1667 344.688 35.25C348.438 33.3333 352.396 32.375 356.562 32.375C367.646 32.375 373.188 40.7917 373.188 57.625V87.125C373.188 92.5417 375.271 95.375 379.438 95.625L383.062 96V98H351.812V96C353.896 95.75 355.521 95.4583 356.688 95.125C357.938 94.7083 358.854 94.1667 359.438 93.5C360.104 92.75 360.521 91.75 360.688 90.5C360.938 89.25 361.062 87.5833 361.062 85.5V55.5C361.062 52.5 360.896 50 360.562 48C360.229 46 359.646 44.4167 358.812 43.25C357.979 42 356.854 41.125 355.438 40.625C354.104 40.0417 352.438 39.75 350.438 39.75C347.104 39.75 344.229 40.4583 341.812 41.875C339.396 43.2083 337.104 45.4167 334.938 48.5V84.5C334.938 86.6667 335.062 88.5 335.312 90C335.646 91.4167 336.188 92.5833 336.938 93.5C337.771 94.3333 338.854 94.9583 340.188 95.375C341.521 95.7083 343.188 95.9167 345.188 96V98H313.188V96C315.188 95.8333 316.812 95.5833 318.062 95.25C319.396 94.9167 320.396 94.375 321.062 93.625C321.812 92.875 322.312 91.875 322.562 90.625C322.812 89.375 322.938 87.75 322.938 85.75V54.75C322.938 44.75 319.854 39.75 313.688 39.75C311.021 39.75 308.229 40.3333 305.312 41.5C302.479 42.6667 300.229 44.0833 298.562 45.75C297.312 47.1667 296.688 48 296.688 48.25V88.5C296.688 91.3333 297.312 93.25 298.562 94.25C299.896 95.25 302.479 95.8333 306.312 96V98H274.688V96C276.688 95.9167 278.312 95.7083 279.562 95.375C280.896 95.0417 281.938 94.5 282.688 93.75C283.438 93 283.938 92 284.188 90.75C284.521 89.4167 284.688 87.7917 284.688 85.875V49.75C284.688 46.25 284.312 43.875 283.562 42.625C282.896 41.2917 281.604 40.625 279.688 40.625C278.854 40.625 278.104 40.7083 277.438 40.875C276.854 40.9583 276.062 41.0833 275.062 41.25V38.75Z"/>
</mask>
<path d="M67.5625 65.125C67.1458 62.2917 66.6042 60 65.9375 58.25C65.3542 56.4167 64.4792 55 63.3125 54C62.2292 53 60.7292 52.3333 58.8125 52C56.9792 51.5833 54.6458 51.375 51.8125 51.375H31.1875V82.625C31.1875 85.125 31.3125 87.1667 31.5625 88.75C31.8958 90.3333 32.5208 91.625 33.4375 92.625C34.4375 93.5417 35.7708 94.2083 37.4375 94.625C39.1875 94.9583 41.4375 95.2083 44.1875 95.375V98H4.3125V95.375C6.97917 95.2083 9.10417 94.9167 10.6875 94.5C12.3542 94.0833 13.6042 93.375 14.4375 92.375C15.3542 91.2917 15.9375 89.875 16.1875 88.125C16.5208 86.2917 16.6875 83.875 16.6875 80.875V19.125C16.6875 16.625 16.5208 14.5833 16.1875 13C15.9375 11.4167 15.3542 10.1667 14.4375 9.25C13.5208 8.33333 12.2292 7.66667 10.5625 7.25C8.97917 6.83333 6.89583 6.54167 4.3125 6.375V3.5H80.0625L80.3125 24H76.9375C76.2708 20.75 75.5208 18.1667 74.6875 16.25C73.8542 14.25 72.6458 12.7083 71.0625 11.625C69.5625 10.5417 67.5208 9.83333 64.9375 9.5C62.4375 9.16667 59.1875 9 55.1875 9H35.8125C33.8125 9 32.5208 9.29167 31.9375 9.875C31.4375 10.4583 31.1875 11.7917 31.1875 13.875V45.5H51.8125C54.6458 45.5 56.9792 45.3333 58.8125 45C60.7292 44.6667 62.2292 44 63.3125 43C64.4792 42 65.3542 40.625 65.9375 38.875C66.6042 37.125 67.1458 34.8333 67.5625 32H70.9375V65.125H67.5625ZM107.438 32.75V83.5C107.438 86.0833 107.521 88.1667 107.688 89.75C107.938 91.25 108.438 92.4583 109.188 93.375C109.938 94.2083 110.979 94.7917 112.312 95.125C113.729 95.4583 115.646 95.75 118.062 96V98H84.1875V96C86.6875 95.8333 88.6458 95.5833 90.0625 95.25C91.5625 94.8333 92.6875 94.2083 93.4375 93.375C94.2708 92.4583 94.8125 91.25 95.0625 89.75C95.3125 88.1667 95.4375 86.0833 95.4375 83.5V50.375C95.4375 47.2083 95.0625 45 94.3125 43.75C93.6458 42.4167 92.4792 41.75 90.8125 41.75C90.1458 41.75 89.3542 41.7917 88.4375 41.875C87.6042 41.9583 86.7292 42.0833 85.8125 42.25L84.8125 42.375V40.25L106.812 32.375L107.438 32.75ZM100.312 0.5C102.312 0.5 104.021 1.25 105.438 2.75C106.854 4.16667 107.562 5.875 107.562 7.875C107.562 9.95833 106.854 11.7083 105.438 13.125C104.104 14.4583 102.354 15.125 100.188 15.125C98.1042 15.125 96.3958 14.4583 95.0625 13.125C93.7292 11.7083 93.0625 9.95833 93.0625 7.875C93.0625 5.875 93.7708 4.16667 95.1875 2.75C96.6042 1.25 98.3125 0.5 100.312 0.5ZM158.062 38.25H143.562V79.25C143.562 83.8333 144.146 87.125 145.312 89.125C146.479 91.0417 148.354 92 150.938 92C152.604 92 154.062 91.6667 155.312 91C156.562 90.25 158.021 88.9167 159.688 87L161.438 88.75C156.938 95.8333 151.188 99.375 144.188 99.375C135.771 99.375 131.562 93.3333 131.562 81.25V38.25H124.062C123.729 38.1667 123.562 37.875 123.562 37.375C123.562 36.5417 124.354 35.625 125.938 34.625C129.688 32.4583 134.312 27.375 139.812 19.375C140.229 18.7083 140.688 18.0833 141.188 17.5C141.771 16.8333 142.271 16.125 142.688 15.375C143.021 15.375 143.229 15.5 143.312 15.75C143.479 16 143.562 16.5 143.562 17.25V33.75H158.062V38.25ZM213.938 83C213.938 86.1667 214.229 88.375 214.812 89.625C215.396 90.7917 216.521 91.375 218.188 91.375C220.104 91.375 222.188 90.5 224.438 88.75V92.375C222.021 95.0417 219.896 96.875 218.062 97.875C216.229 98.875 214.104 99.375 211.688 99.375C208.771 99.375 206.604 98.5833 205.188 97C203.854 95.3333 203.021 92.5833 202.688 88.75C198.354 92.5 194.562 95.2083 191.312 96.875C188.062 98.5417 184.896 99.375 181.812 99.375C177.312 99.375 173.646 97.9583 170.812 95.125C168.062 92.2917 166.688 88.625 166.688 84.125C166.688 81.875 167.104 79.625 167.938 77.375C168.854 75.0417 170.146 73.1667 171.812 71.75C173.312 70.4167 174.688 69.2917 175.938 68.375C177.271 67.375 178.979 66.375 181.062 65.375C183.146 64.2917 185.854 63.0833 189.188 61.75C192.521 60.4167 196.938 58.625 202.438 56.375V47.25C202.438 43.3333 201.479 40.375 199.562 38.375C197.729 36.375 195.062 35.375 191.562 35.375C188.646 35.375 186.188 36.0833 184.188 37.5C182.271 38.8333 181.312 40.4583 181.312 42.375C181.312 43.125 181.396 44.0833 181.562 45.25C181.812 46.4167 181.938 47.375 181.938 48.125C181.938 49.7917 181.271 51.2083 179.938 52.375C178.688 53.5417 177.229 54.125 175.562 54.125C173.896 54.125 172.438 53.5417 171.188 52.375C170.021 51.125 169.438 49.6667 169.438 48C169.438 46.1667 169.938 44.2917 170.938 42.375C172.021 40.4583 173.479 38.75 175.312 37.25C177.229 35.5833 179.771 34.2917 182.938 33.375C186.188 32.4583 189.688 32 193.438 32C197.771 32 201.396 32.75 204.312 34.25C207.312 35.6667 209.604 37.6667 211.188 40.25C212.188 41.9167 212.896 43.875 213.312 46.125C213.729 48.2917 213.938 51.25 213.938 55V83ZM202.438 59.875C198.104 61.4583 194.396 63 191.312 64.5C188.312 65.9167 185.854 67.4167 183.938 69C182.104 70.5 180.771 72.125 179.938 73.875C179.104 75.625 178.688 77.5417 178.688 79.625V80.25C178.688 81.75 178.938 83.2083 179.438 84.625C179.938 85.9583 180.604 87.125 181.438 88.125C182.354 89.125 183.396 89.9167 184.562 90.5C185.729 91.0833 186.938 91.375 188.188 91.375C189.688 91.375 191.354 91.0833 193.188 90.5C195.104 89.8333 196.896 89.0417 198.562 88.125C200.229 87.2083 201.271 86.25 201.688 85.25C202.188 84.25 202.438 82.6667 202.438 80.5V59.875ZM225.812 40.25C227.896 39.5 229.812 38.8333 231.562 38.25C233.312 37.5833 234.979 36.9583 236.562 36.375C238.229 35.7083 239.854 35.0833 241.438 34.5C243.104 33.8333 244.896 33.125 246.812 32.375L247.688 32.625V45.75C249.438 43.1667 251.021 41.0417 252.438 39.375C253.854 37.625 255.229 36.25 256.562 35.25C257.896 34.1667 259.188 33.4167 260.438 33C261.771 32.5833 263.188 32.375 264.688 32.375C267.104 32.375 269.021 33.0833 270.438 34.5C271.854 35.8333 272.562 37.625 272.562 39.875C272.562 41.9583 272.062 43.5833 271.062 44.75C270.062 45.8333 268.729 46.375 267.062 46.375C266.146 46.375 265.229 46.2083 264.312 45.875C263.479 45.4583 262.479 44.6667 261.312 43.5C260.562 42.8333 259.854 42.3333 259.188 42C258.521 41.6667 257.979 41.5 257.562 41.5C256.562 41.5 255.479 41.9167 254.312 42.75C253.229 43.5 252.188 44.4583 251.188 45.625C250.188 46.7917 249.354 48.0417 248.688 49.375C248.021 50.7083 247.688 51.9583 247.688 53.125V85.25C247.688 87.25 247.854 88.9167 248.188 90.25C248.521 91.5833 249.146 92.6667 250.062 93.5C250.979 94.25 252.229 94.8333 253.812 95.25C255.396 95.6667 257.396 95.9167 259.812 96V98H225.438V96C227.688 95.5833 229.479 95.1667 230.812 94.75C232.229 94.25 233.271 93.6667 233.938 93C234.688 92.3333 235.146 91.4583 235.312 90.375C235.562 89.2083 235.688 87.75 235.688 86V50.375C235.688 47.2083 235.312 45 234.562 43.75C233.812 42.4167 232.562 41.75 230.812 41.75C229.896 41.75 229.062 41.7917 228.312 41.875C227.646 41.9583 226.812 42.125 225.812 42.375V40.25ZM275.062 38.75C277.062 38.25 278.854 37.75 280.438 37.25C282.104 36.75 283.729 36.25 285.312 35.75C286.896 35.25 288.438 34.75 289.938 34.25C291.521 33.6667 293.229 33.0417 295.062 32.375L296.062 32.625V43.375C299.062 41.125 301.604 39.2917 303.688 37.875C305.771 36.375 307.604 35.25 309.188 34.5C310.854 33.6667 312.354 33.125 313.688 32.875C315.021 32.5417 316.479 32.375 318.062 32.375C325.812 32.375 330.854 36.4167 333.188 44.5C337.188 40.25 341.021 37.1667 344.688 35.25C348.438 33.3333 352.396 32.375 356.562 32.375C367.646 32.375 373.188 40.7917 373.188 57.625V87.125C373.188 92.5417 375.271 95.375 379.438 95.625L383.062 96V98H351.812V96C353.896 95.75 355.521 95.4583 356.688 95.125C357.938 94.7083 358.854 94.1667 359.438 93.5C360.104 92.75 360.521 91.75 360.688 90.5C360.938 89.25 361.062 87.5833 361.062 85.5V55.5C361.062 52.5 360.896 50 360.562 48C360.229 46 359.646 44.4167 358.812 43.25C357.979 42 356.854 41.125 355.438 40.625C354.104 40.0417 352.438 39.75 350.438 39.75C347.104 39.75 344.229 40.4583 341.812 41.875C339.396 43.2083 337.104 45.4167 334.938 48.5V84.5C334.938 86.6667 335.062 88.5 335.312 90C335.646 91.4167 336.188 92.5833 336.938 93.5C337.771 94.3333 338.854 94.9583 340.188 95.375C341.521 95.7083 343.188 95.9167 345.188 96V98H313.188V96C315.188 95.8333 316.812 95.5833 318.062 95.25C319.396 94.9167 320.396 94.375 321.062 93.625C321.812 92.875 322.312 91.875 322.562 90.625C322.812 89.375 322.938 87.75 322.938 85.75V54.75C322.938 44.75 319.854 39.75 313.688 39.75C311.021 39.75 308.229 40.3333 305.312 41.5C302.479 42.6667 300.229 44.0833 298.562 45.75C297.312 47.1667 296.688 48 296.688 48.25V88.5C296.688 91.3333 297.312 93.25 298.562 94.25C299.896 95.25 302.479 95.8333 306.312 96V98H274.688V96C276.688 95.9167 278.312 95.7083 279.562 95.375C280.896 95.0417 281.938 94.5 282.688 93.75C283.438 93 283.938 92 284.188 90.75C284.521 89.4167 284.688 87.7917 284.688 85.875V49.75C284.688 46.25 284.312 43.875 283.562 42.625C282.896 41.2917 281.604 40.625 279.688 40.625C278.854 40.625 278.104 40.7083 277.438 40.875C276.854 40.9583 276.062 41.0833 275.062 41.25V38.75Z" fill="white"/>
<path d="M67.5625 65.125L66.5732 65.2705L66.6988 66.125H67.5625V65.125ZM65.9375 58.25L64.9846 58.5532L64.993 58.5799L65.003 58.606L65.9375 58.25ZM63.3125 54L62.6342 54.7348L62.6477 54.7473L62.6617 54.7593L63.3125 54ZM58.8125 52L58.5909 52.9751L58.6159 52.9808L58.6411 52.9852L58.8125 52ZM31.1875 51.375V50.375H30.1875V51.375H31.1875ZM31.5625 88.75L30.5747 88.906L30.5787 88.9311L30.584 88.956L31.5625 88.75ZM33.4375 92.625L32.7003 93.3007L32.7297 93.3328L32.7618 93.3622L33.4375 92.625ZM37.4375 94.625L37.195 95.5951L37.2225 95.602L37.2504 95.6073L37.4375 94.625ZM44.1875 95.375H45.1875V94.4338L44.248 94.3768L44.1875 95.375ZM44.1875 98V99H45.1875V98H44.1875ZM4.3125 98H3.3125V99H4.3125V98ZM4.3125 95.375L4.25012 94.377L3.3125 94.4355V95.375H4.3125ZM10.6875 94.5L10.4449 93.5298L10.433 93.5329L10.6875 94.5ZM14.4375 92.375L13.6741 91.729L13.6693 91.7348L14.4375 92.375ZM16.1875 88.125L15.2036 87.9461L15.2002 87.9648L15.1975 87.9836L16.1875 88.125ZM16.1875 13L15.1997 13.156L15.2037 13.1811L15.209 13.206L16.1875 13ZM10.5625 7.25L10.308 8.21715L10.32 8.22015L10.5625 7.25ZM4.3125 6.375H3.3125V7.31256L4.24812 7.37292L4.3125 6.375ZM4.3125 3.5V2.5H3.3125V3.5H4.3125ZM80.0625 3.5L81.0624 3.48781L81.0504 2.5H80.0625V3.5ZM80.3125 24V25H81.3248L81.3124 23.9878L80.3125 24ZM76.9375 24L75.9579 24.2009L76.1218 25H76.9375V24ZM74.6875 16.25L73.7644 16.6346L73.7674 16.6417L73.7704 16.6487L74.6875 16.25ZM71.0625 11.625L70.477 12.4357L70.4873 12.4431L70.4978 12.4503L71.0625 11.625ZM64.9375 9.5L64.8053 10.4912L64.8095 10.4918L64.9375 9.5ZM31.9375 9.875L31.2304 9.16789L31.2032 9.19505L31.1783 9.22421L31.9375 9.875ZM31.1875 45.5H30.1875V46.5H31.1875V45.5ZM58.8125 45L58.6411 44.0148L58.6336 44.0161L58.8125 45ZM63.3125 43L62.6617 42.2407L62.6477 42.2527L62.6342 42.2652L63.3125 43ZM65.9375 38.875L65.003 38.519L64.9955 38.5387L64.9888 38.5588L65.9375 38.875ZM67.5625 32V31H66.6988L66.5732 31.8545L67.5625 32ZM70.9375 32H71.9375V31H70.9375V32ZM70.9375 65.125V66.125H71.9375V65.125H70.9375ZM68.5518 64.9795C68.1295 62.1078 67.5743 59.7377 66.872 57.894L65.003 58.606C65.634 60.2623 66.1621 62.4756 66.5732 65.2705L68.5518 64.9795ZM66.8904 57.9468C66.2648 55.9807 65.3027 54.3888 63.9633 53.2407L62.6617 54.7593C63.6556 55.6112 64.4435 56.8526 64.9846 58.5532L66.8904 57.9468ZM63.9908 53.2652C62.7275 52.0991 61.0307 51.3708 58.9839 51.0148L58.6411 52.9852C60.4277 53.2959 61.7308 53.9009 62.6342 54.7348L63.9908 53.2652ZM59.0341 51.0249C57.1014 50.5856 54.6869 50.375 51.8125 50.375V52.375C54.6048 52.375 56.8569 52.5811 58.5909 52.9751L59.0341 51.0249ZM51.8125 50.375H31.1875V52.375H51.8125V50.375ZM30.1875 51.375V82.625H32.1875V51.375H30.1875ZM30.1875 82.625C30.1875 85.1518 30.3134 87.2509 30.5747 88.906L32.5503 88.594C32.3116 87.0825 32.1875 85.0982 32.1875 82.625H30.1875ZM30.584 88.956C30.9471 90.6807 31.6411 92.1452 32.7003 93.3007L34.1747 91.9493C33.4006 91.1048 32.8446 89.9859 32.541 88.544L30.584 88.956ZM32.7618 93.3622C33.913 94.4174 35.4089 95.1486 37.195 95.5951L37.68 93.6549C36.1328 93.2681 34.962 92.6659 34.1132 91.8878L32.7618 93.3622ZM37.2504 95.6073C39.0583 95.9517 41.3548 96.2052 44.127 96.3732L44.248 94.3768C41.5202 94.2115 39.3167 93.965 37.6246 93.6427L37.2504 95.6073ZM43.1875 95.375V98H45.1875V95.375H43.1875ZM44.1875 97H4.3125V99H44.1875V97ZM5.3125 98V95.375H3.3125V98H5.3125ZM4.37488 96.373C7.07129 96.2045 9.26901 95.9073 10.942 95.4671L10.433 93.5329C8.9393 93.926 6.88704 94.2121 4.25012 94.377L4.37488 96.373ZM10.93 95.4701C12.7371 95.0184 14.199 94.2232 15.2057 93.0152L13.6693 91.7348C13.0093 92.5268 11.9712 93.1483 10.445 93.5299L10.93 95.4701ZM15.2009 93.0209C16.2657 91.7626 16.9074 90.157 17.1775 88.2664L15.1975 87.9836C14.9676 89.593 14.4427 90.8208 13.6741 91.7291L15.2009 93.0209ZM17.1714 88.3039C17.5199 86.387 17.6875 83.9035 17.6875 80.875H15.6875C15.6875 83.8465 15.5218 86.1963 15.2036 87.9461L17.1714 88.3039ZM17.6875 80.875V19.125H15.6875V80.875H17.6875ZM17.6875 19.125C17.6875 16.5889 17.5191 14.4712 17.166 12.794L15.209 13.206C15.5225 14.6955 15.6875 16.6611 15.6875 19.125H17.6875ZM17.1753 12.844C16.9002 11.1021 16.243 9.64127 15.1446 8.54289L13.7304 9.95711C14.4654 10.6921 14.9748 11.7313 15.1997 13.156L17.1753 12.844ZM15.1446 8.54289C14.0645 7.46284 12.5919 6.72659 10.805 6.27985L10.32 8.22015C11.8664 8.60675 12.9771 9.20382 13.7304 9.95711L15.1446 8.54289ZM10.817 6.28293C9.14639 5.84329 6.99203 5.54579 4.37688 5.37708L4.24812 7.37292C6.79962 7.53754 8.81195 7.82337 10.308 8.21707L10.817 6.28293ZM5.3125 6.375V3.5H3.3125V6.375H5.3125ZM4.3125 4.5H80.0625V2.5H4.3125V4.5ZM79.0626 3.51219L79.3126 24.0122L81.3124 23.9878L81.0624 3.48781L79.0626 3.51219ZM80.3125 23H76.9375V25H80.3125V23ZM77.9171 23.7991C77.2436 20.5157 76.4768 17.8573 75.6046 15.8513L73.7704 16.6487C74.5649 18.476 75.2981 20.9843 75.9579 24.2009L77.9171 23.7991ZM75.6106 15.8654C74.7128 13.7107 73.3901 12.0059 71.6272 10.7997L70.4978 12.4503C71.9016 13.4108 72.9955 14.7893 73.7644 16.6346L75.6106 15.8654ZM71.648 10.8143C69.9691 9.6018 67.7505 8.85468 65.0655 8.50822L64.8095 10.4918C67.2912 10.812 69.1559 11.4815 70.477 12.4357L71.648 10.8143ZM65.0697 8.50877C62.5082 8.16724 59.2093 8 55.1875 8V10C59.1657 10 62.3668 10.1661 64.8053 10.4912L65.0697 8.50877ZM55.1875 8H35.8125V10H55.1875V8ZM35.8125 8C34.7719 8 33.8683 8.07513 33.1235 8.24331C32.3946 8.4079 31.7139 8.68438 31.2304 9.16789L32.6446 10.5821C32.7444 10.4823 33.0012 10.3213 33.564 10.1942C34.1109 10.0707 34.8531 10 35.8125 10V8ZM31.1783 9.22421C30.7568 9.71584 30.528 10.4033 30.3921 11.1282C30.2514 11.8788 30.1875 12.8006 30.1875 13.875H32.1875C32.1875 12.8661 32.2486 12.0796 32.3579 11.4968C32.472 10.8884 32.6182 10.6175 32.6967 10.5258L31.1783 9.22421ZM30.1875 13.875V45.5H32.1875V13.875H30.1875ZM31.1875 46.5H51.8125V44.5H31.1875V46.5ZM51.8125 46.5C54.6783 46.5 57.077 46.3319 58.9914 45.9839L58.6336 44.0161C56.8813 44.3347 54.6133 44.5 51.8125 44.5V46.5ZM58.9839 45.9852C61.0307 45.6292 62.7275 44.9009 63.9908 43.7348L62.6342 42.2652C61.7308 43.0991 60.4277 43.7041 58.6411 44.0148L58.9839 45.9852ZM63.9633 43.7593C65.2929 42.6196 66.2571 41.0786 66.8862 39.1912L64.9888 38.5588C64.4513 40.1714 63.6655 41.3804 62.6617 42.2407L63.9633 43.7593ZM66.872 39.231C67.5743 37.3873 68.1295 35.0172 68.5518 32.1455L66.5732 31.8545C66.1621 34.6494 65.634 36.8627 65.003 38.519L66.872 39.231ZM67.5625 33H70.9375V31H67.5625V33ZM69.9375 32V65.125H71.9375V32H69.9375ZM70.9375 64.125H67.5625V66.125H70.9375V64.125ZM107.438 32.75H108.438V32.1838L107.952 31.8925L107.438 32.75ZM107.688 89.75L106.693 89.8547L106.696 89.8847L106.701 89.9144L107.688 89.75ZM109.188 93.375L108.414 94.0082L108.428 94.0265L108.444 94.044L109.188 93.375ZM112.312 95.125L112.07 96.0952L112.083 96.0984L112.312 95.125ZM118.062 96H119.062V95.0981L118.165 95.0053L118.062 96ZM118.062 98V99H119.062V98H118.062ZM84.1875 98H83.1875V99H84.1875V98ZM84.1875 96L84.121 95.0022L83.1875 95.0645V96H84.1875ZM90.0625 95.25L90.2915 96.2234L90.3109 96.2189L90.3301 96.2135L90.0625 95.25ZM93.4375 93.375L92.6975 92.7023L92.6942 92.706L93.4375 93.375ZM95.0625 89.75L96.0489 89.9144L96.0503 89.906L95.0625 89.75ZM94.3125 43.75L93.4181 44.1972L93.4352 44.2316L93.455 44.2645L94.3125 43.75ZM88.4375 41.875L88.347 40.8791L88.338 40.88L88.4375 41.875ZM85.8125 42.25L85.9365 43.2423L85.9641 43.2388L85.9914 43.2339L85.8125 42.25ZM84.8125 42.375H83.8125V43.5078L84.9365 43.3673L84.8125 42.375ZM84.8125 40.25L84.4755 39.3085L83.8125 39.5458V40.25H84.8125ZM106.812 32.375L107.327 31.5175L106.921 31.274L106.475 31.4335L106.812 32.375ZM105.438 2.75L104.71 3.43662L104.72 3.44701L104.73 3.45711L105.438 2.75ZM105.438 13.125L106.145 13.8321L105.438 13.125ZM95.0625 13.125L94.3343 13.8104L94.3447 13.8214L94.3554 13.8321L95.0625 13.125ZM95.1875 2.75L95.8946 3.45711L95.9047 3.44701L95.9145 3.43662L95.1875 2.75ZM106.438 32.75V83.5H108.438V32.75H106.438ZM106.438 83.5C106.438 86.0997 106.521 88.222 106.693 89.8547L108.682 89.6453C108.521 88.1113 108.438 86.067 108.438 83.5H106.438ZM106.701 89.9144C106.972 91.5387 107.526 92.9234 108.414 94.0082L109.961 92.7418C109.349 91.9933 108.903 90.9613 108.674 89.5856L106.701 89.9144ZM108.444 94.044C109.355 95.0558 110.587 95.7245 112.07 96.0951L112.555 94.1549C111.371 93.8588 110.52 93.3609 109.931 92.706L108.444 94.044ZM112.083 96.0984C113.56 96.4458 115.525 96.7428 117.96 96.9947L118.165 95.0053C115.767 94.7572 113.898 94.4708 112.542 94.1516L112.083 96.0984ZM117.062 96V98H119.062V96H117.062ZM118.062 97H84.1875V99H118.062V97ZM85.1875 98V96H83.1875V98H85.1875ZM84.254 96.9978C86.7757 96.8297 88.7968 96.5751 90.2915 96.2234L89.8335 94.2766C88.4949 94.5915 86.5993 94.837 84.121 95.0022L84.254 96.9978ZM90.3301 96.2135C91.945 95.765 93.2631 95.0636 94.1808 94.044L92.6942 92.706C92.1119 93.353 91.18 93.9017 89.7949 94.2865L90.3301 96.2135ZM94.1774 94.0477C95.1667 92.9595 95.7745 91.5607 96.0489 89.9144L94.0761 89.5856C93.8505 90.9393 93.3749 91.9572 92.6976 92.7023L94.1774 94.0477ZM96.0503 89.906C96.3118 88.2496 96.4375 86.1081 96.4375 83.5H94.4375C94.4375 86.0585 94.3132 88.0837 94.0747 89.594L96.0503 89.906ZM96.4375 83.5V50.375H94.4375V83.5H96.4375ZM96.4375 50.375C96.4375 47.1939 96.0724 44.7395 95.17 43.2355L93.455 44.2645C94.0526 45.2605 94.4375 47.2227 94.4375 50.375H96.4375ZM95.2069 43.3028C94.7953 42.4796 94.2069 41.8236 93.4336 41.3818C92.6669 40.9436 91.7785 40.75 90.8125 40.75V42.75C91.5132 42.75 92.0414 42.8897 92.4414 43.1182C92.8348 43.343 93.163 43.6871 93.4181 44.1972L95.2069 43.3028ZM90.8125 40.75C90.1067 40.75 89.2833 40.794 88.347 40.8791L88.528 42.8709C89.425 42.7894 90.185 42.75 90.8125 42.75V40.75ZM88.338 40.88C87.4753 40.9662 86.5737 41.0952 85.6336 41.2661L85.9914 43.2339C86.8846 43.0715 87.733 42.9504 88.537 42.87L88.338 40.88ZM85.6885 41.2577L84.6885 41.3827L84.9365 43.3673L85.9365 43.2423L85.6885 41.2577ZM85.8125 42.375V40.25H83.8125V42.375H85.8125ZM85.1495 41.1915L107.15 33.3165L106.475 31.4335L84.4755 39.3085L85.1495 41.1915ZM106.298 33.2325L106.923 33.6075L107.952 31.8925L107.327 31.5175L106.298 33.2325ZM100.312 1.5C102.028 1.5 103.476 2.12951 104.71 3.43662L106.165 2.06338C104.566 0.370491 102.597 -0.5 100.312 -0.5V1.5ZM104.73 3.45711C105.96 4.6866 106.562 6.14073 106.562 7.875H108.562C108.562 5.60927 107.748 3.64673 106.145 2.04289L104.73 3.45711ZM106.562 7.875C106.562 9.70491 105.951 11.1969 104.73 12.4179L106.145 13.8321C107.757 12.2197 108.562 10.2118 108.562 7.875H106.562ZM104.73 12.4179C103.613 13.5354 102.132 14.125 100.188 14.125V16.125C102.577 16.125 104.595 15.3813 106.145 13.8321L104.73 12.4179ZM100.188 14.125C98.3389 14.125 96.8949 13.5432 95.7696 12.4179L94.3554 13.8321C95.8968 15.3735 97.8695 16.125 100.188 16.125V14.125ZM95.7907 12.4396C94.6451 11.2224 94.0625 9.7234 94.0625 7.875H92.0625C92.0625 10.1933 92.8133 12.1943 94.3343 13.8104L95.7907 12.4396ZM94.0625 7.875C94.0625 6.14073 94.6651 4.6866 95.8946 3.45711L94.4804 2.04289C92.8766 3.64673 92.0625 5.60927 92.0625 7.875H94.0625ZM95.9145 3.43662C97.149 2.12951 98.5973 1.5 100.312 1.5V-0.5C98.0277 -0.5 96.0593 0.370491 94.4605 2.06338L95.9145 3.43662ZM158.062 38.25V39.25H159.062V38.25H158.062ZM143.562 38.25V37.25H142.562V38.25H143.562ZM145.312 89.125L144.449 89.6289L144.453 89.6369L144.458 89.6449L145.312 89.125ZM155.312 91L155.783 91.8824L155.805 91.8705L155.827 91.8575L155.312 91ZM159.688 87L160.395 86.2929L159.636 85.5347L158.933 86.3438L159.688 87ZM161.438 88.75L162.282 89.2862L162.711 88.6097L162.145 88.0429L161.438 88.75ZM131.562 38.25H132.562V37.25H131.562V38.25ZM124.062 38.25L123.82 39.2201L123.939 39.25H124.062V38.25ZM125.938 34.625L125.437 33.7591L125.42 33.769L125.404 33.7795L125.938 34.625ZM139.812 19.375L140.637 19.9415L140.649 19.9235L140.66 19.905L139.812 19.375ZM141.188 17.5L140.435 16.8415L140.428 16.8492L141.188 17.5ZM142.688 15.375V14.375H142.099L141.813 14.8894L142.688 15.375ZM143.312 15.75L142.364 16.0662L142.406 16.1933L142.48 16.3047L143.312 15.75ZM143.562 33.75H142.562V34.75H143.562V33.75ZM158.062 33.75H159.062V32.75H158.062V33.75ZM158.062 37.25H143.562V39.25H158.062V37.25ZM142.562 38.25V79.25H144.562V38.25H142.562ZM142.562 79.25C142.562 83.8681 143.141 87.3876 144.449 89.6289L146.176 88.6211C145.15 86.8624 144.562 83.7986 144.562 79.25H142.562ZM144.458 89.6449C145.837 91.9095 148.068 93 150.938 93V91C148.641 91 147.122 90.1738 146.167 88.6051L144.458 89.6449ZM150.938 93C152.739 93 154.365 92.6388 155.783 91.8824L154.842 90.1176C153.76 90.6945 152.469 91 150.938 91V93ZM155.827 91.8575C157.21 91.0276 158.75 89.6025 160.442 87.6562L158.933 86.3438C157.292 88.2308 155.915 89.4724 154.798 90.1425L155.827 91.8575ZM158.98 87.7071L160.73 89.4571L162.145 88.0429L160.395 86.2929L158.98 87.7071ZM160.593 88.2138C156.235 95.0749 150.773 98.375 144.188 98.375V100.375C151.602 100.375 157.64 96.5918 162.282 89.2862L160.593 88.2138ZM144.188 98.375C140.252 98.375 137.428 96.983 135.539 94.2722C133.605 91.4956 132.562 87.2063 132.562 81.25H130.562C130.562 87.377 131.624 92.1502 133.898 95.4153C136.218 98.7462 139.706 100.375 144.188 100.375V98.375ZM132.562 81.25V38.25H130.562V81.25H132.562ZM131.562 37.25H124.062V39.25H131.562V37.25ZM124.305 37.2799C124.338 37.2881 124.389 37.3077 124.444 37.3484C124.498 37.3895 124.535 37.436 124.556 37.4726C124.575 37.5063 124.576 37.5221 124.572 37.5049C124.569 37.4874 124.562 37.4463 124.562 37.375H122.562C122.562 37.7202 122.617 38.1117 122.819 38.4649C123.041 38.8534 123.396 39.1141 123.82 39.2201L124.305 37.2799ZM124.562 37.375C124.562 37.2869 124.604 37.0735 124.913 36.7161C125.219 36.3614 125.723 35.9433 126.471 35.4705L125.404 33.7795C124.569 34.3067 123.885 34.8469 123.399 35.4089C122.916 35.9682 122.562 36.6298 122.562 37.375H124.562ZM126.438 35.4909C130.399 33.202 135.132 27.9484 140.637 19.9415L138.988 18.8085C133.493 26.8016 128.976 31.7146 125.437 33.7591L126.438 35.4909ZM140.66 19.905C141.051 19.2798 141.48 18.6953 141.947 18.1508L140.428 16.8492C139.895 17.4714 139.407 18.1369 138.965 18.845L140.66 19.905ZM141.94 18.1585C142.568 17.4404 143.11 16.6744 143.562 15.8606L141.813 14.8894C141.432 15.5756 140.973 16.2263 140.435 16.8415L141.94 18.1585ZM142.688 16.375C142.738 16.375 142.678 16.3855 142.579 16.3262C142.528 16.2954 142.478 16.2527 142.437 16.1999C142.397 16.148 142.375 16.0996 142.364 16.0662L144.261 15.4338C144.151 15.103 143.935 14.8073 143.608 14.6113C143.301 14.427 142.971 14.375 142.688 14.375V16.375ZM142.48 16.3047C142.449 16.2578 142.481 16.2833 142.514 16.4769C142.543 16.6535 142.562 16.9066 142.562 17.25H144.562C144.562 16.8434 144.54 16.4715 144.486 16.1481C144.435 15.8417 144.343 15.4922 144.145 15.1953L142.48 16.3047ZM142.562 17.25V33.75H144.562V17.25H142.562ZM143.562 34.75H158.062V32.75H143.562V34.75ZM157.062 33.75V38.25H159.062V33.75H157.062ZM214.812 89.625L213.906 90.0479L213.912 90.0601L213.918 90.0722L214.812 89.625ZM224.438 88.75H225.438V86.7054L223.824 87.9606L224.438 88.75ZM224.438 92.375L225.178 93.0465L225.438 92.7607V92.375H224.438ZM205.188 97L204.407 97.6247L204.424 97.6462L204.442 97.6668L205.188 97ZM202.688 88.75L203.684 88.6634L203.514 86.7122L202.033 87.9938L202.688 88.75ZM170.812 95.125L170.095 95.8215L170.1 95.8268L170.105 95.8321L170.812 95.125ZM167.938 77.375L167.007 77.0094L167.003 77.0185L167 77.0277L167.938 77.375ZM171.812 71.75L172.46 72.5119L172.469 72.5048L172.477 72.4974L171.812 71.75ZM175.938 68.375L176.529 69.1815L176.538 69.175L175.938 68.375ZM181.062 65.375L181.495 66.2765L181.51 66.2696L181.524 66.2622L181.062 65.375ZM202.438 56.375L202.816 57.3006L203.438 57.0464V56.375H202.438ZM199.562 38.375L198.825 39.0507L198.833 39.0589L198.841 39.0669L199.562 38.375ZM184.188 37.5L184.759 38.3209L184.766 38.316L184.188 37.5ZM181.562 45.25L180.573 45.3914L180.577 45.4257L180.585 45.4595L181.562 45.25ZM179.938 52.375L179.279 51.6224L179.267 51.633L179.255 51.644L179.938 52.375ZM171.188 52.375L170.456 53.0573L170.48 53.0825L170.505 53.106L171.188 52.375ZM170.938 42.375L170.067 41.8829L170.059 41.8976L170.051 41.9124L170.938 42.375ZM175.312 37.25L175.946 38.024L175.957 38.0145L175.969 38.0046L175.312 37.25ZM182.938 33.375L182.666 32.4125L182.659 32.4144L182.938 33.375ZM204.312 34.25L203.855 35.1393L203.87 35.147L203.885 35.1543L204.312 34.25ZM211.188 40.25L212.045 39.7355L212.04 39.7274L211.188 40.25ZM213.312 46.125L212.329 46.3071L212.331 46.3138L213.312 46.125ZM202.438 59.875H203.438V58.4449L202.094 58.9357L202.438 59.875ZM191.312 64.5L191.74 65.4043L191.75 65.3992L191.312 64.5ZM183.938 69L184.571 69.774L184.574 69.771L183.938 69ZM179.438 84.625L178.495 84.9578L178.498 84.967L178.501 84.9761L179.438 84.625ZM181.438 88.125L180.669 88.7652L180.684 88.7833L180.7 88.8007L181.438 88.125ZM184.562 90.5L184.115 91.3944L184.562 90.5ZM193.188 90.5L193.491 91.4529L193.503 91.4489L193.516 91.4445L193.188 90.5ZM201.688 85.25L200.793 84.8028L200.778 84.8336L200.764 84.8654L201.688 85.25ZM212.938 83C212.938 86.1708 213.221 88.579 213.906 90.0479L215.719 89.2021C215.237 88.171 214.938 86.1625 214.938 83H212.938ZM213.918 90.0722C214.72 91.6766 216.267 92.375 218.188 92.375V90.375C216.775 90.375 216.071 89.9067 215.707 89.1778L213.918 90.0722ZM218.188 92.375C220.412 92.375 222.708 91.3622 225.051 89.5394L223.824 87.9606C221.667 89.6378 219.797 90.375 218.188 90.375V92.375ZM223.438 88.75V92.375H225.438V88.75H223.438ZM223.697 91.7035C221.309 94.3381 219.272 96.0759 217.584 96.9971L218.541 98.7529C220.519 97.6741 222.733 95.7452 225.178 93.0465L223.697 91.7035ZM217.584 96.9971C215.919 97.9052 213.963 98.375 211.688 98.375V100.375C214.245 100.375 216.539 99.8448 218.541 98.7529L217.584 96.9971ZM211.688 98.375C208.945 98.375 207.097 97.6342 205.933 96.3332L204.442 97.6668C206.112 99.5324 208.597 100.375 211.688 100.375V98.375ZM205.968 96.3753C204.823 94.9434 204.012 92.4371 203.684 88.6634L201.691 88.8366C202.03 92.7296 202.886 95.7233 204.407 97.6247L205.968 96.3753ZM202.033 87.9938C197.73 91.7175 194.007 94.3695 190.856 95.9852L191.769 97.7648C195.118 96.0472 198.978 93.2825 203.342 89.5062L202.033 87.9938ZM190.856 95.9852C187.721 97.5927 184.71 98.375 181.812 98.375V100.375C185.081 100.375 188.404 99.4906 191.769 97.7648L190.856 95.9852ZM181.812 98.375C177.542 98.375 174.142 97.0399 171.52 94.4179L170.105 95.8321C173.15 98.8768 177.083 100.375 181.812 100.375V98.375ZM171.53 94.4285C168.987 91.8082 167.688 88.4043 167.688 84.125H165.688C165.688 88.8457 167.138 92.7751 170.095 95.8215L171.53 94.4285ZM167.688 84.125C167.688 82.0012 168.08 79.8686 168.875 77.7223L167 77.0277C166.128 79.3814 165.688 81.7488 165.688 84.125H167.688ZM168.868 77.7406C169.734 75.5381 170.936 73.8072 172.46 72.5119L171.165 70.9881C169.355 72.5262 167.975 74.5452 167.007 77.0094L168.868 77.7406ZM172.477 72.4974C173.96 71.1792 175.31 70.0751 176.529 69.1814L175.346 67.5686C174.065 68.5082 172.665 69.6542 171.148 71.0026L172.477 72.4974ZM176.538 69.175C177.803 68.226 179.45 67.2582 181.495 66.2765L180.63 64.4735C178.508 65.4918 176.739 66.524 175.337 67.575L176.538 69.175ZM181.524 66.2622C183.567 65.1998 186.242 64.0052 189.559 62.6785L188.816 60.8215C185.466 62.1614 182.725 63.3835 180.601 64.4878L181.524 66.2622ZM189.559 62.6785C192.896 61.3438 197.315 59.551 202.816 57.3006L202.059 55.4494C196.56 57.699 192.146 59.4896 188.816 60.8215L189.559 62.6785ZM203.438 56.375V47.25H201.438V56.375H203.438ZM203.438 47.25C203.438 43.1827 202.442 39.9345 200.284 37.6831L198.841 39.0669C200.516 40.8155 201.438 43.484 201.438 47.25H203.438ZM200.3 37.6993C198.226 35.4367 195.257 34.375 191.562 34.375V36.375C194.868 36.375 197.233 37.3133 198.825 39.0507L200.3 37.6993ZM191.562 34.375C188.479 34.375 185.809 35.1263 183.609 36.684L184.766 38.316C186.566 37.0404 188.813 36.375 191.562 36.375V34.375ZM183.616 36.6791C181.498 38.1531 180.312 40.0576 180.312 42.375H182.312C182.312 40.8591 183.044 39.5136 184.759 38.3209L183.616 36.6791ZM180.312 42.375C180.312 43.1911 180.402 44.2011 180.573 45.3914L182.552 45.1086C182.389 43.9655 182.312 43.0589 182.312 42.375H180.312ZM180.585 45.4595C180.828 46.5926 180.938 47.4741 180.938 48.125H182.938C182.938 47.2759 182.797 46.2407 182.54 45.0405L180.585 45.4595ZM180.938 48.125C180.938 49.4833 180.411 50.6321 179.279 51.6224L180.596 53.1276C182.131 51.7846 182.938 50.1 182.938 48.125H180.938ZM179.255 51.644C178.185 52.6427 176.969 53.125 175.562 53.125V55.125C177.49 55.125 179.19 54.4406 180.62 53.106L179.255 51.644ZM175.562 53.125C174.156 53.125 172.94 52.6427 171.87 51.644L170.505 53.106C171.935 54.4406 173.635 55.125 175.562 55.125V53.125ZM171.919 51.6927C170.92 50.6225 170.438 49.4062 170.438 48H168.438C168.438 49.9271 169.122 51.6275 170.456 53.0573L171.919 51.6927ZM170.438 48C170.438 46.3543 170.885 44.637 171.824 42.8376L170.051 41.9124C168.99 43.9464 168.438 45.9791 168.438 48H170.438ZM171.808 42.8671C172.826 41.0662 174.201 39.4515 175.946 38.024L174.679 36.476C172.757 38.0485 171.216 39.8505 170.067 41.8829L171.808 42.8671ZM175.969 38.0046C177.748 36.4572 180.148 35.2234 183.216 34.3356L182.659 32.4144C179.393 33.3599 176.71 34.7095 174.656 36.4954L175.969 38.0046ZM183.209 34.3374C186.361 33.4483 189.769 33 193.438 33V31C189.606 31 186.014 31.4684 182.666 32.4126L183.209 34.3374ZM193.438 33C197.661 33 201.118 33.7316 203.855 35.1393L204.77 33.3607C201.674 31.7684 197.881 31 193.438 31V33ZM203.885 35.1543C206.727 36.496 208.863 38.3708 210.335 40.7726L212.04 39.7274C210.345 36.9625 207.898 34.8373 204.74 33.3457L203.885 35.1543ZM210.33 40.7645C211.259 42.3124 211.931 44.1541 212.329 46.3071L214.296 45.9429C213.861 43.5959 213.116 41.521 212.045 39.7355L210.33 40.7645ZM212.331 46.3138C212.73 48.39 212.938 51.276 212.938 55H214.938C214.938 51.224 214.729 48.1933 214.294 45.9362L212.331 46.3138ZM212.938 55V83H214.938V55H212.938ZM202.094 58.9357C197.739 60.5271 193.997 62.0817 190.875 63.6008L191.75 65.3992C194.794 63.9183 198.469 62.3896 202.781 60.8143L202.094 58.9357ZM190.885 63.5957C187.834 65.0369 185.299 66.5785 183.301 68.229L184.574 69.771C186.41 68.2549 188.791 66.7964 191.74 65.4043L190.885 63.5957ZM183.304 68.226C181.382 69.7991 179.944 71.5357 179.035 73.4451L180.84 74.3049C181.598 72.7143 182.827 71.2009 184.571 69.774L183.304 68.226ZM179.035 73.4451C178.133 75.3392 177.688 77.4043 177.688 79.625H179.688C179.688 77.6791 180.076 75.9108 180.84 74.3049L179.035 73.4451ZM177.688 79.625V80.25H179.688V79.625H177.688ZM177.688 80.25C177.688 81.8635 177.957 83.4344 178.495 84.9578L180.38 84.2922C179.918 82.9823 179.688 81.6365 179.688 80.25H177.688ZM178.501 84.9761C179.037 86.4047 179.758 87.6712 180.669 88.7652L182.206 87.4848C181.451 86.5788 180.838 85.5119 180.374 84.2739L178.501 84.9761ZM180.7 88.8007C181.696 89.8871 182.835 90.7543 184.115 91.3944L185.01 89.6056C183.957 89.079 183.012 88.3629 182.175 87.4493L180.7 88.8007ZM184.115 91.3944C185.415 92.0441 186.775 92.375 188.188 92.375V90.375C187.1 90.375 186.044 90.1226 185.01 89.6056L184.115 91.3944ZM188.188 92.375C189.815 92.375 191.586 92.0591 193.491 91.4529L192.884 89.5471C191.123 90.1076 189.56 90.375 188.188 90.375V92.375ZM193.516 91.4445C195.482 90.7606 197.325 89.9466 199.044 89.0012L198.081 87.2488C196.466 88.1367 194.726 88.906 192.859 89.5555L193.516 91.4445ZM199.044 89.0012C200.775 88.0493 202.062 86.9512 202.611 85.6346L200.764 84.8654C200.48 85.5488 199.683 86.3674 198.081 87.2488L199.044 89.0012ZM202.582 85.6972C203.19 84.481 203.438 82.7025 203.438 80.5H201.438C201.438 82.6308 201.185 84.019 200.793 84.8028L202.582 85.6972ZM203.438 80.5V59.875H201.438V80.5H203.438ZM225.812 40.25L225.474 39.3091L224.812 39.5472V40.25H225.812ZM231.562 38.25L231.879 39.1987L231.899 39.192L231.918 39.1845L231.562 38.25ZM236.562 36.375L236.908 37.3133L236.921 37.3086L236.934 37.3035L236.562 36.375ZM241.438 34.5L241.783 35.4383L241.796 35.4336L241.809 35.4285L241.438 34.5ZM246.812 32.375L247.087 31.4135L246.763 31.3207L246.448 31.4438L246.812 32.375ZM247.688 32.625H248.688V31.8707L247.962 31.6635L247.688 32.625ZM247.688 45.75H246.688V49.0092L248.515 46.3109L247.688 45.75ZM252.438 39.375L253.199 40.0226L253.207 40.0135L253.215 40.0042L252.438 39.375ZM256.562 35.25L257.163 36.05L257.178 36.0384L257.193 36.0261L256.562 35.25ZM260.438 33L260.139 32.0455L260.13 32.0483L260.121 32.0513L260.438 33ZM270.438 34.5L269.73 35.2071L269.741 35.2178L269.752 35.2282L270.438 34.5ZM271.062 44.75L271.797 45.4283L271.81 45.4148L271.822 45.4008L271.062 44.75ZM264.312 45.875L263.865 46.7694L263.917 46.7951L263.971 46.8148L264.312 45.875ZM261.312 43.5L262.02 42.7929L261.999 42.7721L261.977 42.7526L261.312 43.5ZM254.312 42.75L254.882 43.5722L254.888 43.568L254.894 43.5637L254.312 42.75ZM248.188 90.25L247.217 90.4925L248.188 90.25ZM250.062 93.5L249.39 94.2399L249.409 94.2575L249.429 94.274L250.062 93.5ZM259.812 96H260.812V95.0339L259.847 95.0006L259.812 96ZM259.812 98V99H260.812V98H259.812ZM225.438 98H224.438V99H225.438V98ZM225.438 96L225.255 95.0167L224.438 95.1682V96H225.438ZM230.812 94.75L231.111 95.7045L231.128 95.6991L231.145 95.693L230.812 94.75ZM233.938 93L233.273 92.2526L233.251 92.2721L233.23 92.2929L233.938 93ZM235.312 90.375L234.335 90.1655L234.329 90.194L234.324 90.2229L235.312 90.375ZM234.562 43.75L233.691 44.2403L233.698 44.2525L233.705 44.2645L234.562 43.75ZM228.312 41.875L228.202 40.881L228.188 40.8827L228.312 41.875ZM225.812 42.375H224.812V43.6558L226.055 43.3451L225.812 42.375ZM226.151 41.1909C228.229 40.4431 230.138 39.7791 231.879 39.1987L231.246 37.3013C229.487 37.8876 227.563 38.5569 225.474 39.3091L226.151 41.1909ZM231.918 39.1845C233.665 38.519 235.329 37.8953 236.908 37.3133L236.217 35.4367C234.63 36.0214 232.96 36.6477 231.207 37.3155L231.918 39.1845ZM236.934 37.3035C238.593 36.64 240.209 36.0183 241.783 35.4383L241.092 33.5617C239.499 34.1484 237.866 34.7767 236.191 35.4465L236.934 37.3035ZM241.809 35.4285C243.473 34.7629 245.262 34.0555 247.177 33.3062L246.448 31.4438C244.529 32.1945 242.735 32.9038 241.066 33.5715L241.809 35.4285ZM246.538 33.3365L247.413 33.5865L247.962 31.6635L247.087 31.4135L246.538 33.3365ZM246.688 32.625V45.75H248.688V32.625H246.688ZM248.515 46.3109C250.253 43.7461 251.814 41.6527 253.199 40.0226L251.676 38.7274C250.228 40.4306 248.622 42.5872 246.86 45.1891L248.515 46.3109ZM253.215 40.0042C254.596 38.2974 255.913 36.9868 257.163 36.05L255.962 34.45C254.545 35.5132 253.112 36.9526 251.66 38.7458L253.215 40.0042ZM257.193 36.0261C258.46 34.9969 259.647 34.3176 260.754 33.9487L260.121 32.0513C258.728 32.5157 257.332 33.3364 255.932 34.4739L257.193 36.0261ZM260.736 33.9545C261.966 33.5701 263.281 33.375 264.688 33.375V31.375C263.094 31.375 261.576 31.5965 260.139 32.0455L260.736 33.9545ZM264.688 33.375C266.897 33.375 268.539 34.0156 269.73 35.2071L271.145 33.7929C269.503 32.151 267.311 31.375 264.688 31.375V33.375ZM269.752 35.2282C270.936 36.3425 271.562 37.8535 271.562 39.875H273.562C273.562 37.3965 272.772 35.3242 271.123 33.7718L269.752 35.2282ZM271.562 39.875C271.562 41.8049 271.1 43.1694 270.303 44.0992L271.822 45.4008C273.025 43.9972 273.562 42.1118 273.562 39.875H271.562ZM270.328 44.0717C269.543 44.9222 268.49 45.375 267.062 45.375V47.375C268.968 47.375 270.582 46.7445 271.797 45.4283L270.328 44.0717ZM267.062 45.375C266.27 45.375 265.468 45.2313 264.654 44.9352L263.971 46.8148C264.99 47.1854 266.022 47.375 267.062 47.375V45.375ZM264.76 44.9806C264.069 44.6354 263.159 43.9326 262.02 42.7929L260.605 44.2071C261.799 45.4007 262.889 46.2812 263.865 46.7694L264.76 44.9806ZM261.977 42.7526C261.182 42.0463 260.402 41.489 259.635 41.1056L258.74 42.8944C259.307 43.1776 259.943 43.6203 260.648 44.2474L261.977 42.7526ZM259.635 41.1056C258.922 40.7494 258.213 40.5 257.562 40.5V42.5C257.746 42.5 258.119 42.5839 258.74 42.8944L259.635 41.1056ZM257.562 40.5C256.281 40.5 254.997 41.0323 253.731 41.9363L254.894 43.5637C255.962 42.801 256.844 42.5 257.562 42.5V40.5ZM253.743 41.9278C252.579 42.7339 251.475 43.753 250.428 44.9742L251.947 46.2758C252.9 45.1637 253.879 44.2661 254.882 43.5722L253.743 41.9278ZM250.428 44.9742C249.377 46.201 248.497 47.5191 247.793 48.9278L249.582 49.8222C250.211 48.5642 250.998 47.3823 251.947 46.2758L250.428 44.9742ZM247.793 48.9278C247.076 50.3626 246.688 51.7661 246.688 53.125H248.688C248.688 52.1506 248.966 51.0541 249.582 49.8222L247.793 48.9278ZM246.688 53.125V85.25H248.688V53.125H246.688ZM246.688 85.25C246.688 87.2983 246.857 89.0529 247.217 90.4925L249.158 90.0075C248.851 88.7804 248.688 87.2017 248.688 85.25H246.688ZM247.217 90.4925C247.593 91.9956 248.311 93.2595 249.39 94.2399L250.735 92.7601C249.98 92.0739 249.449 91.171 249.158 90.0075L247.217 90.4925ZM249.429 94.274C250.491 95.1425 251.886 95.777 253.558 96.2171L254.067 94.2829C252.573 93.8896 251.468 93.3575 250.696 92.726L249.429 94.274ZM253.558 96.2171C255.239 96.6593 257.319 96.9146 259.778 96.9994L259.847 95.0006C257.473 94.9187 255.553 94.674 254.067 94.2829L253.558 96.2171ZM258.812 96V98H260.812V96H258.812ZM259.812 97H225.438V99H259.812V97ZM226.438 98V96H224.438V98H226.438ZM225.62 96.9833C227.888 96.5633 229.723 96.1381 231.111 95.7045L230.514 93.7955C229.235 94.1952 227.487 94.6034 225.255 95.0167L225.62 96.9833ZM231.145 95.693C232.628 95.1696 233.828 94.5237 234.645 93.7071L233.23 92.2929C232.714 92.8096 231.83 93.3304 230.48 93.807L231.145 95.693ZM234.602 93.7474C235.542 92.9114 236.102 91.8178 236.301 90.5271L234.324 90.2229C234.189 91.0989 233.833 91.7552 233.273 92.2526L234.602 93.7474ZM236.29 90.5845C236.56 89.3252 236.688 87.791 236.688 86H234.688C234.688 87.709 234.565 89.0915 234.335 90.1655L236.29 90.5845ZM236.688 86V50.375H234.688V86H236.688ZM236.688 50.375C236.688 47.1939 236.322 44.7395 235.42 43.2355L233.705 44.2645C234.303 45.2605 234.688 47.2227 234.688 50.375H236.688ZM235.434 43.2597C234.478 41.5605 232.861 40.75 230.812 40.75V42.75C232.264 42.75 233.147 43.2729 233.691 44.2403L235.434 43.2597ZM230.812 40.75C229.866 40.75 228.996 40.793 228.202 40.8811L228.423 42.8689C229.129 42.7904 229.925 42.75 230.812 42.75V40.75ZM228.188 40.8827C227.467 40.9729 226.591 41.1497 225.57 41.4049L226.055 43.3451C227.034 43.1003 227.825 42.9437 228.437 42.8673L228.188 40.8827ZM226.812 42.375V40.25H224.812V42.375H226.812ZM275.062 38.75L274.82 37.7799L274.062 37.9692V38.75H275.062ZM280.438 37.25L280.15 36.2922L280.143 36.2943L280.136 36.2964L280.438 37.25ZM289.938 34.25L290.254 35.1987L290.269 35.1937L290.283 35.1883L289.938 34.25ZM295.062 32.375L295.305 31.4049L295.008 31.3307L294.721 31.4352L295.062 32.375ZM296.062 32.625H297.062V31.8442L296.305 31.6549L296.062 32.625ZM296.062 43.375H295.062V45.375L296.662 44.175L296.062 43.375ZM303.688 37.875L304.25 38.7019L304.261 38.6944L304.272 38.6865L303.688 37.875ZM309.188 34.5L309.616 35.4037L309.625 35.3992L309.635 35.3944L309.188 34.5ZM313.688 32.875L313.872 33.8579L313.901 33.8524L313.93 33.8451L313.688 32.875ZM333.188 44.5L332.227 44.7773L332.713 46.4629L333.916 45.1854L333.188 44.5ZM344.688 35.25L344.232 34.3595L344.224 34.3638L344.688 35.25ZM379.438 95.625L379.54 94.6303L379.519 94.6281L379.497 94.6268L379.438 95.625ZM383.062 96H384.062V95.0981L383.165 95.0053L383.062 96ZM383.062 98V99H384.062V98H383.062ZM351.812 98H350.812V99H351.812V98ZM351.812 96L351.693 95.0071L350.812 95.1128V96H351.812ZM356.688 95.125L356.962 96.0865L356.983 96.0806L357.004 96.0737L356.688 95.125ZM359.438 93.5L358.69 92.8356L358.685 92.8415L359.438 93.5ZM360.688 90.5L359.707 90.3039L359.701 90.3357L359.696 90.3678L360.688 90.5ZM358.812 43.25L357.98 43.8047L357.989 43.8181L357.999 43.8312L358.812 43.25ZM355.438 40.625L355.037 41.5412L355.07 41.5558L355.105 41.568L355.438 40.625ZM341.812 41.875L342.296 42.7506L342.307 42.7443L342.318 42.7377L341.812 41.875ZM334.938 48.5L334.119 47.925L333.938 48.1838V48.5H334.938ZM335.312 90L334.326 90.1644L334.332 90.1969L334.339 90.229L335.312 90ZM336.938 93.5L336.164 94.1332L336.195 94.1718L336.23 94.2071L336.938 93.5ZM340.188 95.375L339.889 96.3295L339.917 96.3381L339.945 96.3451L340.188 95.375ZM345.188 96H346.188V95.0408L345.229 95.0009L345.188 96ZM345.188 98V99H346.188V98H345.188ZM313.188 98H312.188V99H313.188V98ZM313.188 96L313.104 95.0034L312.188 95.0799V96H313.188ZM318.062 95.25L317.82 94.2799L317.812 94.2818L317.805 94.2838L318.062 95.25ZM321.062 93.625L320.355 92.9179L320.335 92.9387L320.315 92.9606L321.062 93.625ZM305.312 41.5L304.941 40.5715L304.932 40.5753L305.312 41.5ZM298.562 45.75L297.855 45.0429L297.833 45.065L297.813 45.0884L298.562 45.75ZM298.562 94.25L297.938 95.0309L297.95 95.0406L297.963 95.05L298.562 94.25ZM306.312 96H307.312V95.0425L306.356 95.0009L306.312 96ZM306.312 98V99H307.312V98H306.312ZM274.688 98H273.688V99H274.688V98ZM274.688 96L274.646 95.0009L273.688 95.0408V96H274.688ZM279.562 95.375L279.32 94.4049L279.312 94.4068L279.305 94.4088L279.562 95.375ZM284.188 90.75L283.217 90.5075L283.212 90.5305L283.207 90.5539L284.188 90.75ZM283.562 42.625L282.668 43.0722L282.685 43.1066L282.705 43.1395L283.562 42.625ZM277.438 40.875L277.579 41.8649L277.63 41.8577L277.68 41.8451L277.438 40.875ZM275.062 41.25H274.062V42.4305L275.227 42.2364L275.062 41.25ZM275.305 39.7201C277.32 39.2163 279.132 38.7109 280.739 38.2036L280.136 36.2964C278.576 36.7891 276.805 37.2837 274.82 37.7799L275.305 39.7201ZM280.725 38.2078C282.396 37.7065 284.026 37.2051 285.614 36.7036L285.011 34.7964C283.433 35.2949 281.812 35.7935 280.15 36.2922L280.725 38.2078ZM285.614 36.7036C287.202 36.2021 288.748 35.7004 290.254 35.1987L289.621 33.3013C288.127 33.7996 286.59 34.2979 285.011 34.7964L285.614 36.7036ZM290.283 35.1883C291.865 34.6056 293.572 33.981 295.404 33.3148L294.721 31.4352C292.886 32.1023 291.177 32.7278 289.592 33.3117L290.283 35.1883ZM294.82 33.3451L295.82 33.5951L296.305 31.6549L295.305 31.4049L294.82 33.3451ZM295.062 32.625V43.375H297.062V32.625H295.062ZM296.662 44.175C299.655 41.9303 302.184 40.1068 304.25 38.7019L303.125 37.0481C301.025 38.4765 298.47 40.3197 295.463 42.575L296.662 44.175ZM304.272 38.6865C306.326 37.2072 308.106 36.1189 309.616 35.4037L308.759 33.5963C307.102 34.3811 305.215 35.5428 303.103 37.0635L304.272 38.6865ZM309.635 35.3944C311.247 34.5883 312.657 34.0857 313.872 33.8579L313.503 31.8921C312.052 32.1643 310.461 32.745 308.74 33.6056L309.635 35.3944ZM313.93 33.8451C315.173 33.5344 316.549 33.375 318.062 33.375V31.375C316.409 31.375 314.869 31.549 313.445 31.9049L313.93 33.8451ZM318.062 33.375C321.757 33.375 324.721 34.3348 327.031 36.1865C329.348 38.0443 331.1 40.8744 332.227 44.7773L334.148 44.2227C332.942 40.0423 331.006 36.8099 328.282 34.626C325.55 32.4361 322.118 31.375 318.062 31.375V33.375ZM333.916 45.1854C337.868 40.986 341.614 37.9847 345.151 36.1362L344.224 34.3638C340.427 36.3486 336.507 39.514 332.459 43.8146L333.916 45.1854ZM345.143 36.1404C348.753 34.295 352.556 33.375 356.562 33.375V31.375C352.236 31.375 348.122 32.3717 344.232 34.3596L345.143 36.1404ZM356.562 33.375C361.807 33.375 365.631 35.3417 368.196 39.2374C370.809 43.2062 372.188 49.2863 372.188 57.625H374.188C374.188 49.1304 372.795 42.5854 369.866 38.1376C366.89 33.6167 362.401 31.375 356.562 31.375V33.375ZM372.188 57.625V87.125H374.188V57.625H372.188ZM372.188 87.125C372.188 89.9384 372.725 92.2462 373.944 93.9049C375.195 95.6064 377.059 96.4841 379.378 96.6232L379.497 94.6268C377.649 94.5159 376.388 93.852 375.556 92.7201C374.692 91.5455 374.188 89.7282 374.188 87.125H372.188ZM379.335 96.6197L382.96 96.9947L383.165 95.0053L379.54 94.6303L379.335 96.6197ZM382.062 96V98H384.062V96H382.062ZM383.062 97H351.812V99H383.062V97ZM352.812 98V96H350.812V98H352.812ZM351.932 96.9929C354.036 96.7404 355.721 96.4412 356.962 96.0865L356.413 94.1635C355.321 94.4755 353.756 94.7596 351.693 95.0071L351.932 96.9929ZM357.004 96.0737C358.346 95.6263 359.446 95.0088 360.19 94.1585L358.685 92.8415C358.262 93.3245 357.529 93.7904 356.371 94.1763L357.004 96.0737ZM360.185 94.1644C361.015 93.231 361.492 92.0291 361.679 90.6322L359.696 90.3678C359.549 91.4709 359.194 92.269 358.69 92.8356L360.185 94.1644ZM361.668 90.6961C361.937 89.354 362.062 87.6134 362.062 85.5H360.062C360.062 87.5533 359.938 89.146 359.707 90.3039L361.668 90.6961ZM362.062 85.5V55.5H360.062V85.5H362.062ZM362.062 55.5C362.062 52.4684 361.894 49.909 361.549 47.8356L359.576 48.1644C359.897 50.091 360.062 52.5316 360.062 55.5H362.062ZM361.549 47.8356C361.2 45.7435 360.577 43.9998 359.626 42.6688L357.999 43.8312C358.715 44.8335 359.258 46.2565 359.576 48.1644L361.549 47.8356ZM359.645 42.6953C358.691 41.2653 357.391 40.254 355.77 39.682L355.105 41.568C356.317 41.996 357.267 42.7347 357.98 43.8047L359.645 42.6953ZM355.838 39.7088C354.341 39.0536 352.527 38.75 350.438 38.75V40.75C352.348 40.75 353.868 41.0297 355.037 41.5412L355.838 39.7088ZM350.438 38.75C346.96 38.75 343.904 39.49 341.307 41.0123L342.318 42.7377C344.555 41.4267 347.248 40.75 350.438 40.75V38.75ZM341.329 40.9994C338.74 42.4279 336.343 44.7604 334.119 47.925L335.756 49.075C337.865 46.073 340.051 43.9887 342.296 42.7506L341.329 40.9994ZM333.938 48.5V84.5H335.938V48.5H333.938ZM333.938 84.5C333.938 86.7007 334.064 88.5926 334.326 90.1644L336.299 89.8356C336.061 88.4074 335.938 86.6327 335.938 84.5H333.938ZM334.339 90.229C334.699 91.7606 335.298 93.0749 336.164 94.1332L337.711 92.8668C337.077 92.0918 336.592 91.0727 336.286 89.771L334.339 90.229ZM336.23 94.2071C337.197 95.1741 338.43 95.8735 339.889 96.3295L340.486 94.4205C339.278 94.0432 338.344 93.4925 337.645 92.7929L336.23 94.2071ZM339.945 96.3451C341.366 96.7005 343.106 96.9141 345.146 96.9991L345.229 95.0009C343.269 94.9192 341.675 94.7162 340.43 94.4049L339.945 96.3451ZM344.188 96V98H346.188V96H344.188ZM345.188 97H313.188V99H345.188V97ZM314.188 98V96H312.188V98H314.188ZM313.271 96.9966C315.301 96.8273 316.991 96.5707 318.32 96.2162L317.805 94.2838C316.634 94.5959 315.074 94.8393 313.104 95.0034L313.271 96.9966ZM318.305 96.2201C319.763 95.8556 320.968 95.2361 321.81 94.2894L320.315 92.9606C319.823 93.5139 319.028 93.9778 317.82 94.2799L318.305 96.2201ZM321.77 94.3321C322.685 93.4164 323.262 92.2251 323.543 90.8211L321.582 90.4289C321.363 91.5249 320.94 92.3336 320.355 92.9179L321.77 94.3321ZM323.543 90.8211C323.811 89.4809 323.938 87.7832 323.938 85.75H321.938C321.938 87.7168 321.814 89.2691 321.582 90.4289L323.543 90.8211ZM323.938 85.75V54.75H321.938V85.75H323.938ZM323.938 54.75C323.938 49.6797 323.162 45.7083 321.476 42.9751C319.742 40.1624 317.097 38.75 313.688 38.75V40.75C316.445 40.75 318.425 41.8376 319.774 44.0249C321.172 46.2917 321.938 49.8203 321.938 54.75H323.938ZM313.688 38.75C310.873 38.75 307.955 39.3659 304.941 40.5715L305.684 42.4285C308.503 41.3008 311.169 40.75 313.688 40.75V38.75ZM304.932 40.5753C302.011 41.7779 299.639 43.2594 297.855 45.0429L299.27 46.4571C300.819 44.9072 302.947 43.5555 305.693 42.4247L304.932 40.5753ZM297.813 45.0884C297.182 45.8034 296.693 46.3891 296.356 46.8375C296.19 47.0598 296.045 47.2681 295.938 47.4534C295.885 47.5459 295.83 47.6508 295.787 47.7617C295.749 47.8577 295.688 48.0347 295.688 48.25H297.688C297.688 48.3346 297.675 48.3982 297.667 48.4314C297.658 48.4666 297.65 48.4891 297.647 48.4961C297.642 48.5081 297.646 48.4958 297.671 48.4529C297.72 48.3674 297.81 48.2318 297.956 48.0375C298.245 47.6525 298.693 47.1133 299.312 46.4116L297.813 45.0884ZM295.688 48.25V88.5H297.688V48.25H295.688ZM295.688 88.5C295.688 91.4141 296.319 93.7357 297.938 95.0309L299.187 93.4691C298.306 92.7643 297.688 91.2525 297.688 88.5H295.688ZM297.963 95.05C298.789 95.6698 299.923 96.1065 301.28 96.4129C302.649 96.7221 304.317 96.9142 306.269 96.9991L306.356 95.0009C304.475 94.9192 302.934 94.7362 301.72 94.4621C300.494 94.1852 299.669 93.8302 299.162 93.45L297.963 95.05ZM305.312 96V98H307.312V96H305.312ZM306.312 97H274.688V99H306.312V97ZM275.688 98V96H273.688V98H275.688ZM274.729 96.9991C276.767 96.9142 278.472 96.7007 279.82 96.3412L279.305 94.4088C278.153 94.716 276.608 94.9191 274.646 95.0009L274.729 96.9991ZM279.805 96.3451C281.263 95.9806 282.484 95.3679 283.395 94.4571L281.98 93.0429C281.391 93.6321 280.528 94.1028 279.32 94.4049L279.805 96.3451ZM283.395 94.4571C284.31 93.5414 284.887 92.3501 285.168 90.9461L283.207 90.5539C282.988 91.6499 282.565 92.4586 281.98 93.0429L283.395 94.4571ZM285.158 90.9925C285.517 89.5556 285.688 87.8439 285.688 85.875H283.688C283.688 87.7394 283.525 89.2777 283.217 90.5075L285.158 90.9925ZM285.688 85.875V49.75H283.688V85.875H285.688ZM285.688 49.75C285.688 47.9691 285.592 46.4443 285.394 45.1878C285.198 43.9452 284.89 42.8942 284.42 42.1105L282.705 43.1395C282.985 43.6058 283.24 44.3673 283.418 45.4997C283.595 46.6182 283.688 48.0309 283.688 49.75H285.688ZM284.457 42.1778C283.57 40.4044 281.855 39.625 279.688 39.625V41.625C281.354 41.625 282.221 42.1789 282.668 43.0722L284.457 42.1778ZM279.688 39.625C278.789 39.625 277.956 39.7147 277.195 39.9049L277.68 41.8451C278.253 41.702 278.919 41.625 279.688 41.625V39.625ZM277.296 39.8851C276.702 39.97 275.901 40.0964 274.898 40.2636L275.227 42.2364C276.224 42.0702 277.007 41.9467 277.579 41.8649L277.296 39.8851ZM276.062 41.25V38.75H274.062V41.25H276.062Z" fill="white" mask="url(#path-1-outside-1_132_1568)"/>
</g>
<defs>
<filter id="filter0_d_132_1568" x="0.3125" y="0.5" width="386.75" height="107.875" filterUnits="userSpaceOnUse" color-interpolation-filters="sRGB">
<feFlood flood-opacity="0" result="BackgroundImageFix"/>
<feColorMatrix in="SourceAlpha" type="matrix" values="0 0 0 0 0 0 0 0 0 0 0 0 0 0 0 0 0 0 127 0" result="hardAlpha"/>
<feOffset dy="5"/>
<feGaussianBlur stdDeviation="2"/>
<feComposite in2="hardAlpha" operator="out"/>
<feColorMatrix type="matrix" values="0 0 0 0 0 0 0 0 0 0 0 0 0 0 0 0 0 0 0.7 0"/>
<feBlend mode="normal" in2="BackgroundImageFix" result="effect1_dropShadow_132_1568"/>
<feBlend mode="normal" in="SourceGraphic" in2="effect1_dropShadow_132_1568" result="shape"/>
</filter>
</defs>
</svg>
